Preview_shantell-semi_organic-300_800-Weight_460.00_VL.ufo
<glyph name="exclam" format="2">
	<unicode hex="0021"/>
	<advance width="288"/>
	<outline>
		<contour>
			<point x="193.24" y="636.04" type="curve" smooth="yes"/>
			<point x="193.24" y="582.9105691057"/>
			<point x="183.48" y="546.6712195122"/>
			<point x="183.48" y="453" type="curve" smooth="yes"/>
			<point x="183.48" y="362.44"/>
			<point x="192.2" y="332.44"/>
			<point x="192.2" y="283.24" type="curve" smooth="yes"/>
			<point x="192.2" y="240.88"/>
			<point x="171.32" y="225.12"/>
			<point x="148.72" y="225.12" type="curve" smooth="yes"/>
			<point x="123.48" y="225.12"/>
			<point x="105.4" y="241.04"/>
			<point x="99.8" y="271.04" type="curve" smooth="yes"/>
			<point x="87.44" y="343.28"/>
			<point x="83.8" y="392.8"/>
			<point x="83.8" y="457.4" type="curve" smooth="yes"/>
			<point x="83.8" y="553.6433333333"/>
			<point x="94.1666930725" y="604.6390493908"/>
			<point x="93.56" y="667.96" type="curve" smooth="yes"/>
			<point x="92.92" y="693.36"/>
			<point x="103.88" y="713.92"/>
			<point x="129.24" y="713.92" type="curve" smooth="yes"/>
			<point x="165.56" y="713.92"/>
			<point x="193.24" y="688.76"/>
		</contour>
		<contour>
			<point x="158.12" y="-10.96" type="curve" smooth="yes"/>
			<point x="200.84" y="-10.96"/>
			<point x="219.96" y="15.36"/>
			<point x="219.96" y="46.12" type="curve" smooth="yes"/>
			<point x="219.96" y="88.88"/>
			<point x="193.52" y="129.64"/>
			<point x="130.56" y="129.64" type="curve" smooth="yes"/>
			<point x="95.24" y="129.64"/>
			<point x="68.08" y="105.4"/>
			<point x="68.08" y="65.8" type="curve" smooth="yes"/>
			<point x="68.08" y="16.96"/>
			<point x="105.92" y="-10.96"/>
		</contour>
	</outline>
</glyph>
<glyph name="quotedbl" format="2">
	<unicode hex="0022"/>
	<advance width="460"/>
	<outline>
		<contour>
			<point x="188.92" y="400.04" type="curve" smooth="yes"/>
			<point x="211.28" y="400.04"/>
			<point x="225.04" y="413.56"/>
			<point x="232.92" y="436.92" type="curve" smooth="yes"/>
			<point x="257.16" y="507.36"/>
			<point x="270.92" y="602.96"/>
			<point x="254.88" y="678.48" type="curve" smooth="yes"/>
			<point x="250.28" y="700.56"/>
			<point x="228.24" y="716.36"/>
			<point x="204.56" y="716.36" type="curve" smooth="yes"/>
			<point x="172.92" y="716.36"/>
			<point x="151.52" y="688.72"/>
			<point x="155.56" y="659.08" type="curve" smooth="yes"/>
			<point x="166.41587986" y="594.4271236392"/>
			<point x="153" y="524.72"/>
			<point x="139.28" y="468.8" type="curve" smooth="yes"/>
			<point x="128.6" y="425.72"/>
			<point x="156.72" y="400.04"/>
		</contour>
		<contour>
			<point x="244.24" y="400.04" type="curve" smooth="yes"/>
			<point x="266.6" y="400.04"/>
			<point x="283.08" y="413.56"/>
			<point x="290.28" y="436.92" type="curve" smooth="yes"/>
			<point x="311.8" y="508.72"/>
			<point x="322.16" y="599.56"/>
			<point x="309.52" y="677.8" type="curve" smooth="yes"/>
			<point x="305.6" y="700.56"/>
			<point x="283.56" y="716.36"/>
			<point x="259.88" y="716.36" type="curve" smooth="yes"/>
			<point x="228.24" y="716.36"/>
			<point x="207.6" y="688.72"/>
			<point x="210.88" y="659.08" type="curve" smooth="yes"/>
			<point x="217.7817639266" y="592.6223607341"/>
			<point x="207.2" y="522"/>
			<point x="193.56" y="467.8" type="curve" smooth="yes"/>
			<point x="184" y="431.64"/>
			<point x="210.8545454546" y="400.04"/>
		</contour>
	</outline>
</glyph>
<glyph name="numbersign" format="2">
	<unicode hex="0023"/>
	<advance width="966"/>
	<outline>
		<contour>
			<point x="477.12" y="750.8" type="curve" smooth="yes"/>
			<point x="477.12" y="590.52"/>
			<point x="270.12" y="138.84"/>
			<point x="270.12" y="-61.56" type="curve" smooth="yes"/>
			<point x="270.12" y="-87.76"/>
			<point x="246.48" y="-109.76"/>
			<point x="222.84" y="-108.76" type="curve" smooth="yes"/>
			<point x="191.28" y="-107.76"/>
			<point x="165.64" y="-84.4"/>
			<point x="165.64" y="-40.04" type="curve" smooth="yes"/>
			<point x="165.64" y="155.84"/>
			<point x="370.92" y="602.72"/>
			<point x="372.96" y="762.8" type="curve" smooth="yes"/>
			<point x="372.96" y="794.8"/>
			<point x="388.4" y="814.24"/>
			<point x="416.68" y="814.56" type="curve" smooth="yes"/>
			<point x="449.2" y="814.88"/>
			<point x="477.12" y="785.64"/>
		</contour>
		<contour>
			<point x="817.36" y="695.6" type="curve" smooth="yes"/>
			<point x="817.36" y="546.52"/>
			<point x="611.96" y="175.76"/>
			<point x="611.96" y="-113.92" type="curve" smooth="yes"/>
			<point x="611.96" y="-142.36"/>
			<point x="591.2" y="-161.8"/>
			<point x="566.6" y="-160.8" type="curve" smooth="yes"/>
			<point x="531.84" y="-159.8"/>
			<point x="507.16" y="-134.52"/>
			<point x="507.48" y="-96.56" type="curve" smooth="yes"/>
			<point x="509.08" y="180.28"/>
			<point x="714.16" y="550.84"/>
			<point x="714.16" y="714.52" type="curve" smooth="yes"/>
			<point x="714.16" y="741.72"/>
			<point x="726.32" y="761.52"/>
			<point x="753.64" y="762.2" type="curve" smooth="yes"/>
			<point x="785.16" y="762.88"/>
			<point x="817.36" y="738.2"/>
		</contour>
		<contour>
			<point x="94.68" y="227.48" type="curve" smooth="yes"/>
			<point x="343.8890066225" y="227.48"/>
			<point x="627.2709933775" y="263.88"/>
			<point x="867.64" y="263.88" type="curve" smooth="yes"/>
			<point x="897.4" y="263.88"/>
			<point x="913.64" y="251.72"/>
			<point x="913.96" y="225.96" type="curve" smooth="yes"/>
			<point x="914.6" y="195.76"/>
			<point x="887.6" y="165.24"/>
			<point x="831.88" y="163.96" type="curve" smooth="yes"/>
			<point x="612.7966976799" y="162.3099140021"/>
			<point x="322.1352978056" y="117.84"/>
			<point x="120.16" y="117.84" type="curve" smooth="yes"/>
			<point x="61.92" y="117.84"/>
			<point x="40.84" y="152.36"/>
			<point x="42.48" y="184.16" type="curve" smooth="yes"/>
			<point x="43.8" y="210.16"/>
			<point x="65.76" y="227.48"/>
		</contour>
		<contour>
			<point x="875.8" y="533.84" type="curve" smooth="yes"/>
			<point x="905.8" y="533.84"/>
			<point x="922.96" y="522.08"/>
			<point x="923.96" y="495.76" type="curve" smooth="yes"/>
			<point x="924.96" y="464.4"/>
			<point x="898.88" y="438.12"/>
			<point x="855.32" y="438.12" type="curve" smooth="yes"/>
			<point x="629.4" y="438.12"/>
			<point x="429.76" y="443.08"/>
			<point x="232.88" y="467.84" type="curve" smooth="yes"/>
			<point x="170.2" y="475.08"/>
			<point x="155.04" y="503.92"/>
			<point x="155.04" y="531.24" type="curve" smooth="yes"/>
			<point x="155.04" y="558.56"/>
			<point x="172.56" y="575.6"/>
			<point x="206.68" y="575.6" type="curve" smooth="yes"/>
			<point x="281.3186786787" y="575.6"/>
			<point x="358.36" y="533.84"/>
		</contour>
	</outline>
</glyph>
<glyph name="dollar" format="2">
	<unicode hex="0024"/>
	<advance width="574"/>
	<outline>
		<contour>
			<point x="194" y="-9" type="curve" smooth="yes"/>
			<point x="372.64" y="-9"/>
			<point x="515.2" y="48.04"/>
			<point x="515.2" y="167.32" type="curve" smooth="yes"/>
			<point x="515.2" y="347.72"/>
			<point x="164.8" y="353.0535458167"/>
			<point x="164.8" y="430.6" type="curve" smooth="yes"/>
			<point x="164.8" y="509.2745945946"/>
			<point x="269.9107070414" y="576.9338707593"/>
			<point x="468.28" y="608" type="curve" smooth="yes"/>
			<point x="504.52" y="612.72"/>
			<point x="520" y="631.76"/>
			<point x="520" y="657.16" type="curve" smooth="yes"/>
			<point x="520" y="687.12"/>
			<point x="502.8" y="710"/>
			<point x="460.04" y="710" type="curve" smooth="yes"/>
			<point x="335.12" y="710"/>
			<point x="60.6" y="605"/>
			<point x="60.6" y="427.8" type="curve" smooth="yes"/>
			<point x="60.6" y="265.7428571428"/>
			<point x="410.8584856996" y="293.118328652"/>
			<point x="418.6" y="164.52" type="curve"/>
			<point x="381.4220499371" y="111.2925010957"/>
			<point x="298.9934328358" y="90.68"/>
			<point x="181.84" y="90.68" type="curve" smooth="yes"/>
			<point x="126.56" y="90.68"/>
			<point x="115.36" y="106.12"/>
			<point x="84.8" y="106.12" type="curve" smooth="yes"/>
			<point x="57.76" y="106.12"/>
			<point x="48.44" y="93.28"/>
			<point x="48.44" y="71.2" type="curve" smooth="yes"/>
			<point x="48.44" y="27.72"/>
			<point x="97.68" y="-9"/>
		</contour>
		<contour>
			<point x="310.8" y="411.96" type="curve" smooth="yes"/>
			<point x="331.24" y="411.96"/>
			<point x="341.08" y="425.8"/>
			<point x="346.96" y="450.12" type="curve" smooth="yes"/>
			<point x="366.5123437112" y="546.6038233102"/>
			<point x="370.0537813601" y="674.2800007261"/>
			<point x="347.8" y="780.4" type="curve" smooth="yes"/>
			<point x="342.88" y="802.48"/>
			<point x="323.2" y="818.28"/>
			<point x="297.48" y="818.28" type="curve" smooth="yes"/>
			<point x="257.68" y="818.28"/>
			<point x="242.52" y="790.64"/>
			<point x="248.48" y="761" type="curve" smooth="yes"/>
			<point x="267.8521698778" y="667.8837143155"/>
			<point x="266.3325709112" y="568.8500915304"/>
			<point x="259.84" y="486.16" type="curve" smooth="yes"/>
			<point x="259.36" y="435.72"/>
			<point x="278.92" y="411.64"/>
		</contour>
		<contour>
			<point x="260.32" y="215.4" type="curve" smooth="yes"/>
			<point x="239.56" y="215.4"/>
			<point x="227.8" y="202.2"/>
			<point x="224.8" y="177.88" type="curve" smooth="yes"/>
			<point x="212.2553501729" y="87.8019774468"/>
			<point x="205.7579521349" y="-14.2638521621"/>
			<point x="224.28" y="-114.64" type="curve" smooth="yes"/>
			<point x="227.6" y="-135.76"/>
			<point x="246.92" y="-156.36"/>
			<point x="282.92" y="-156.36" type="curve" smooth="yes"/>
			<point x="317.88" y="-156.36"/>
			<point x="326.04" y="-135.44"/>
			<point x="322" y="-101.32" type="curve" smooth="yes"/>
			<point x="306.1920728943" y="-15.6883371362"/>
			<point x="306.116736849" y="78.8632807509"/>
			<point x="310.64" y="147.6" type="curve" smooth="yes"/>
			<point x="309.52" y="191.96"/>
			<point x="286.44" y="215.4"/>
		</contour>
	</outline>
</glyph>
<glyph name="ampersand" format="2">
	<unicode hex="0026"/>
	<advance width="636"/>
	<outline>
		<contour>
			<point x="295.76" y="612.08" type="curve" smooth="yes"/>
			<point x="197.8682872928" y="612.08"/>
			<point x="141.36" y="570.9285944128"/>
			<point x="141.36" y="509.72" type="curve" smooth="yes"/>
			<point x="141.36" y="446.7177809836"/>
			<point x="177.4533194704" y="405.5498195131"/>
			<point x="337.64" y="298.36" type="curve" smooth="yes"/>
			<point x="594.2" y="126.8"/>
			<point x="642.96" y="61.84"/>
			<point x="642.96" y="-16.64" type="curve" smooth="yes"/>
			<point x="642.96" y="-62.4663291139"/>
			<point x="618.0324528302" y="-132.68"/>
			<point x="562.36" y="-132.68" type="curve" smooth="yes"/>
			<point x="534.9779310345" y="-132.68"/>
			<point x="520" y="-116.1514285714"/>
			<point x="520" y="-91.64" type="curve" smooth="yes"/>
			<point x="520" y="-60.76"/>
			<point x="540.96" y="-54.4"/>
			<point x="540.96" y="-23.68" type="curve" smooth="yes"/>
			<point x="540.96" y="21.96"/>
			<point x="496.88" y="65.12"/>
			<point x="263.64" y="225.8" type="curve" smooth="yes"/>
			<point x="75.64" y="354.16"/>
			<point x="40.04" y="422.72"/>
			<point x="40.04" y="509.64" type="curve" smooth="yes"/>
			<point x="40.04" y="610.88"/>
			<point x="113" y="710.68"/>
			<point x="294.48" y="710.68" type="curve" smooth="yes"/>
			<point x="379.2962436548" y="710.68"/>
			<point x="437.92" y="690.52"/>
			<point x="491.12" y="660.8" type="curve" smooth="yes"/>
			<point x="518.36" y="645.12"/>
			<point x="527.52" y="627.72"/>
			<point x="527.52" y="608.32" type="curve" smooth="yes"/>
			<point x="527.52" y="580.68"/>
			<point x="507.6" y="559.68"/>
			<point x="479.6" y="559.68" type="curve" smooth="yes"/>
			<point x="443.96" y="559.68"/>
			<point x="409.56" y="612.08"/>
		</contour>
		<contour>
			<point x="199.6" y="294.88" type="curve" smooth="yes"/>
			<point x="160.72" y="256.16"/>
			<point x="147.96" y="225.56"/>
			<point x="147.96" y="177.52" type="curve" smooth="yes"/>
			<point x="147.96" y="124.48"/>
			<point x="186.48" y="76.88"/>
			<point x="231.44" y="76.88" type="curve" smooth="yes"/>
			<point x="335.4" y="76.88"/>
			<point x="419.3909487822" y="177.8717687799"/>
			<point x="545.12" y="401.48" type="curve" smooth="yes"/>
			<point x="558.5356873009" y="426.2042371415"/>
			<point x="567.72" y="436.64"/>
			<point x="585.2" y="436.64" type="curve" smooth="yes"/>
			<point x="613.2" y="436.64"/>
			<point x="635.12" y="411.52"/>
			<point x="635.12" y="379.68" type="curve" smooth="yes"/>
			<point x="635.12" y="368.4"/>
			<point x="631.52" y="354.4"/>
			<point x="617.68" y="331.28" type="curve" smooth="yes"/>
			<point x="459.4" y="60.88"/>
			<point x="352.4" y="-18.16"/>
			<point x="224.92" y="-18.16" type="curve" smooth="yes"/>
			<point x="131.04" y="-18.16"/>
			<point x="47.32" y="61.32"/>
			<point x="47.32" y="169.76" type="curve" smooth="yes"/>
			<point x="47.32" y="247.24"/>
			<point x="82.88" y="307.64"/>
			<point x="135.16" y="347.72" type="curve" smooth="yes"/>
			<point x="156.56" y="363.24"/>
			<point x="182.72" y="363.16"/>
			<point x="200.76" y="345.64" type="curve" smooth="yes"/>
			<point x="212.96" y="333.68"/>
			<point x="211.16" y="307.36"/>
		</contour>
	</outline>
</glyph>
<glyph name="quotesingle" format="2">
	<unicode hex="0027"/>
	<advance width="266"/>
	<outline>
		<contour>
			<point x="121.84" y="400.04" type="curve" smooth="yes"/>
			<point x="144.2523076923" y="400.04"/>
			<point x="157.96" y="413.56"/>
			<point x="165.84" y="436.92" type="curve" smooth="yes"/>
			<point x="190.08" y="507.36"/>
			<point x="203.84" y="602.96"/>
			<point x="187.8" y="678.48" type="curve" smooth="yes"/>
			<point x="182.88" y="700.56"/>
			<point x="161.16" y="716.36"/>
			<point x="137.48" y="716.36" type="curve" smooth="yes"/>
			<point x="105.84" y="716.36"/>
			<point x="82.72" y="688.84"/>
			<point x="88.48" y="659.08" type="curve" smooth="yes"/>
			<point x="101.56" y="595.16"/>
			<point x="87.52" y="525.36"/>
			<point x="72.52" y="473.92" type="curve" smooth="yes"/>
			<point x="60.5937952546" y="434.1536749473"/>
			<point x="89.4948571428" y="400.04"/>
		</contour>
	</outline>
</glyph>
<glyph name="parenleft" format="2">
	<unicode hex="0028"/>
	<advance width="452"/>
	<outline>
		<contour>
			<point x="395.44" y="717.2" type="curve" smooth="yes"/>
			<point x="287.96" y="580.16"/>
			<point x="188.56" y="395.04"/>
			<point x="188.56" y="179.2" type="curve" smooth="yes"/>
			<point x="188.56" y="-6.6"/>
			<point x="259.16" y="-122.08"/>
			<point x="382.56" y="-168.2" type="curve" smooth="yes"/>
			<point x="414.32" y="-179.8"/>
			<point x="425.56" y="-193.48"/>
			<point x="425.56" y="-212.92" type="curve" smooth="yes"/>
			<point x="425.56" y="-240.7654221716"/>
			<point x="400.4" y="-261.64"/>
			<point x="376.84" y="-261.64" type="curve" smooth="yes"/>
			<point x="359.24" y="-261.64"/>
			<point x="349.68" y="-259.64"/>
			<point x="318.96" y="-247.08" type="curve" smooth="yes"/>
			<point x="183.96" y="-192.44"/>
			<point x="84.64" y="-60.36"/>
			<point x="84.64" y="179.2" type="curve" smooth="yes"/>
			<point x="84.64" y="419.36"/>
			<point x="193.24" y="626.8"/>
			<point x="316.8" y="784.56" type="curve" smooth="yes"/>
			<point x="332.32" y="804.4"/>
			<point x="347.8" y="811"/>
			<point x="362.6" y="811" type="curve" smooth="yes"/>
			<point x="392.64" y="811"/>
			<point x="415.52" y="784.72"/>
			<point x="415.52" y="758.08" type="curve" smooth="yes"/>
			<point x="415.52" y="746.24"/>
			<point x="410.28" y="736.04"/>
		</contour>
	</outline>
</glyph>
<glyph name="parenright" format="2">
	<unicode hex="0029"/>
	<advance width="428"/>
	<outline>
		<contour>
			<point x="58.48" y="-171.16" type="curve" smooth="yes"/>
			<point x="180.84" y="-72.24"/>
			<point x="262.2" y="78.88"/>
			<point x="262.2" y="257.48" type="curve" smooth="yes"/>
			<point x="262.2" y="479.24"/>
			<point x="174.84" y="632.6"/>
			<point x="69.32" y="705.56" type="curve" smooth="yes"/>
			<point x="37.24" y="727.4"/>
			<point x="26.8" y="744.8"/>
			<point x="26.8" y="763.48" type="curve" smooth="yes"/>
			<point x="26.8" y="790.16"/>
			<point x="51.2" y="810.64"/>
			<point x="76.4" y="810.64" type="curve" smooth="yes"/>
			<point x="95.04" y="810.64"/>
			<point x="105.88" y="807.68"/>
			<point x="132.8" y="789.72" type="curve" smooth="yes"/>
			<point x="257" y="705.24"/>
			<point x="366.12" y="517.88"/>
			<point x="366.12" y="257.48" type="curve" smooth="yes"/>
			<point x="366.12" y="49.84"/>
			<point x="273.16" y="-130.56"/>
			<point x="133.64" y="-236.6" type="curve" smooth="yes"/>
			<point x="110.2" y="-254.12"/>
			<point x="94.2" y="-259.68"/>
			<point x="81.12" y="-259.68" type="curve" smooth="yes"/>
			<point x="55.64" y="-259.68"/>
			<point x="32.68" y="-242"/>
			<point x="32.68" y="-215.72" type="curve" smooth="yes"/>
			<point x="32.68" y="-199.28"/>
			<point x="39.92" y="-187.04"/>
		</contour>
	</outline>
</glyph>
<glyph name="asterisk" format="2">
	<unicode hex="002A"/>
	<advance width="493"/>
	<outline>
		<contour>
			<point x="304.08" y="560.48" type="curve" smooth="yes"/>
			<point x="304.08" y="488.8"/>
			<point x="292.6" y="382.28"/>
			<point x="309.96" y="294.6" type="curve" smooth="yes"/>
			<point x="316.6" y="260.12"/>
			<point x="297.24" y="243"/>
			<point x="269.64" y="243" type="curve" smooth="yes"/>
			<point x="244.84" y="243"/>
			<point x="230.6" y="256.88"/>
			<point x="225.96" y="280.12" type="curve" smooth="yes"/>
			<point x="208.32" y="369.04"/>
			<point x="218.08" y="484.84"/>
			<point x="218.08" y="559.12" type="curve" smooth="yes"/>
			<point x="218.08" y="672.92"/>
			<point x="180.96" y="684.76"/>
			<point x="180.96" y="723.04" type="curve" smooth="yes"/>
			<point x="180.96" y="742.88"/>
			<point x="191.88" y="755.8"/>
			<point x="215.32" y="755.8" type="curve" smooth="yes"/>
			<point x="261.08" y="755.8"/>
			<point x="304.08" y="682.16"/>
		</contour>
		<contour>
			<point x="434.6" y="598.04" type="curve" smooth="yes"/>
			<point x="390.16" y="531.24"/>
			<point x="215" y="447.48"/>
			<point x="143.52" y="354.6" type="curve" smooth="yes"/>
			<point x="134.6" y="342.76"/>
			<point x="123.32" y="337.12"/>
			<point x="109.8" y="337.12" type="curve" smooth="yes"/>
			<point x="86.64" y="337.12"/>
			<point x="66.16" y="358.64"/>
			<point x="66.16" y="380.44" type="curve" smooth="yes"/>
			<point x="66.16" y="389.4"/>
			<point x="68.52" y="399"/>
			<point x="78" y="411.08" type="curve" smooth="yes"/>
			<point x="147.16" y="496.84"/>
			<point x="321.04" y="578.16"/>
			<point x="370.44" y="655.36" type="curve" smooth="yes"/>
			<point x="381" y="671.2"/>
			<point x="390.88" y="680.8"/>
			<point x="408.76" y="680.8" type="curve" smooth="yes"/>
			<point x="433.88" y="680.8"/>
			<point x="449.2" y="660.92"/>
			<point x="449.2" y="639.44" type="curve" smooth="yes"/>
			<point x="449.2" y="627.32"/>
			<point x="445.6" y="616.08"/>
		</contour>
		<contour>
			<point x="108.6" y="636.28" type="curve" smooth="yes"/>
			<point x="184.68" y="593.88"/>
			<point x="321.52" y="535"/>
			<point x="438.48" y="454" type="curve" smooth="yes"/>
			<point x="451" y="446.04"/>
			<point x="458.24" y="432.48"/>
			<point x="458.24" y="417.68" type="curve" smooth="yes"/>
			<point x="458.24" y="393.16"/>
			<point x="439.88" y="374.36"/>
			<point x="418.16" y="374.36" type="curve" smooth="yes"/>
			<point x="405.96" y="374.36"/>
			<point x="398.64" y="377.68"/>
			<point x="371.88" y="395.28" type="curve" smooth="yes"/>
			<point x="275.76" y="461.64"/>
			<point x="138.28" y="519.8"/>
			<point x="62.16" y="564.56" type="curve" smooth="yes"/>
			<point x="35.4" y="580.08"/>
			<point x="29.12" y="600.52"/>
			<point x="29.12" y="617.44" type="curve" smooth="yes"/>
			<point x="29.12" y="637.88"/>
			<point x="42" y="651.84"/>
			<point x="62.52" y="651.84" type="curve" smooth="yes"/>
			<point x="79.12" y="651.84"/>
			<point x="86.4" y="648.56"/>
		</contour>
	</outline>
</glyph>
<glyph name="comma" format="2">
	<unicode hex="002C"/>
	<advance width="266"/>
	<outline>
		<contour>
			<point x="118.4" y="165.24" type="curve" smooth="yes"/>
			<point x="86.84" y="165.24"/>
			<point x="70" y="142.16"/>
			<point x="70" y="101.44" type="curve" smooth="yes"/>
			<point x="70" y="43.16"/>
			<point x="64.36" y="-16.24"/>
			<point x="35.68" y="-77.6" type="curve" smooth="yes"/>
			<point x="22.0386208417" y="-106.4970110887"/>
			<point x="15.92" y="-124.7788235294"/>
			<point x="15.92" y="-139.52" type="curve" smooth="yes"/>
			<point x="15.92" y="-159.3733333333"/>
			<point x="28.48" y="-171.84"/>
			<point x="50.84" y="-171.84" type="curve" smooth="yes"/>
			<point x="77.48" y="-171.84"/>
			<point x="109.0928764338" y="-152.3972708647"/>
			<point x="127.68" y="-125.44" type="curve" smooth="yes"/>
			<point x="168.6520512645" y="-64.721681778"/>
			<point x="194.52" y="24.2303030303"/>
			<point x="194.52" y="87.8" type="curve" smooth="yes"/>
			<point x="194.52" y="139.9571007872"/>
			<point x="165.88" y="165.24"/>
		</contour>
	</outline>
</glyph>
<glyph name="hyphen" format="2">
	<unicode hex="002D"/>
	<advance width="490"/>
	<outline>
		<contour>
			<point x="146.16" y="200.48" type="curve" smooth="yes"/>
			<point x="180.2517983043" y="200.48"/>
			<point x="235.7138063364" y="217.28"/>
			<point x="388.36" y="217.28" type="curve" smooth="yes"/>
			<point x="420.04" y="217.28"/>
			<point x="438.72" y="231.48"/>
			<point x="438.72" y="254.28" type="curve" smooth="yes"/>
			<point x="438.72" y="276.24"/>
			<point x="410" y="312.28"/>
			<point x="329.76" y="312.28" type="curve" smooth="yes"/>
			<point x="247.2055754771" y="312.28"/>
			<point x="170.0353425598" y="303.3287972451"/>
			<point x="83.8" y="287.64" type="curve" smooth="yes"/>
			<point x="57.84" y="283.04"/>
			<point x="51.16" y="268.36"/>
			<point x="51.16" y="253.84" type="curve" smooth="yes"/>
			<point x="51.16" y="227.64"/>
			<point x="84.68" y="200.48"/>
		</contour>
	</outline>
</glyph>
<glyph name="period" format="2">
	<unicode hex="002E"/>
	<advance width="320"/>
	<outline>
		<contour>
			<point x="178.24" y="-11.92" type="curve" smooth="yes"/>
			<point x="221.84" y="-11.92"/>
			<point x="241.24" y="16.64"/>
			<point x="241.24" y="46.12" type="curve" smooth="yes"/>
			<point x="241.24" y="92.64"/>
			<point x="208.4" y="143.96"/>
			<point x="142.48" y="143.96" type="curve" smooth="yes"/>
			<point x="108.16" y="143.96"/>
			<point x="79.76" y="119.48"/>
			<point x="79.76" y="80.6" type="curve" smooth="yes"/>
			<point x="79.76" y="27.44"/>
			<point x="119.6" y="-11.92"/>
		</contour>
	</outline>
</glyph>
<glyph name="slash" format="2">
	<unicode hex="002F"/>
	<advance width="370"/>
	<outline>
		<contour>
			<point x="436" y="709.4" type="curve" smooth="yes"/>
			<point x="268.2231905377" y="433.2111755681"/>
			<point x="176.4" y="175.44"/>
			<point x="151.56" y="-104.08" type="curve" smooth="yes"/>
			<point x="148.28" y="-142.04"/>
			<point x="129.88" y="-160.8"/>
			<point x="101.64" y="-160.8" type="curve" smooth="yes"/>
			<point x="65.84" y="-160.8"/>
			<point x="43.7596216636" y="-132.9254858786"/>
			<point x="47.36" y="-92.72" type="curve" smooth="yes"/>
			<point x="73.2" y="203.68"/>
			<point x="180.52" y="508.28"/>
			<point x="336.56" y="762.2" type="curve" smooth="yes"/>
			<point x="362.28" y="802.52"/>
			<point x="379.76" y="820"/>
			<point x="405.44" y="820" type="curve" smooth="yes"/>
			<point x="444.12" y="820"/>
			<point x="473.6" y="770.8"/>
		</contour>
	</outline>
</glyph>
<glyph name="zero" format="2">
	<unicode hex="0030"/>
	<advance width="700"/>
	<outline>
		<contour>
			<point x="291.4" y="536.64" type="curve" smooth="yes"/>
			<point x="216.2" y="480.64"/>
			<point x="162.72" y="385.08"/>
			<point x="162.72" y="270" type="curve" smooth="yes"/>
			<point x="162.72" y="165.88"/>
			<point x="207.48" y="88.6"/>
			<point x="316.36" y="88.6" type="curve" smooth="yes"/>
			<point x="431.84" y="88.6"/>
			<point x="536.28" y="204.08"/>
			<point x="536.28" y="417" type="curve" smooth="yes"/>
			<point x="536.28" y="528.52"/>
			<point x="502.29" y="611.76"/>
			<point x="400" y="611.76" type="curve" smooth="yes"/>
			<point x="325.6480874317" y="611.76"/>
			<point x="260.7104140204" y="567.1673919584"/>
			<point x="211.64" y="502.88" type="curve" smooth="yes"/>
			<point x="200.12" y="490.28"/>
			<point x="180.8" y="485.44"/>
			<point x="163.16" y="485.44" type="curve" smooth="yes"/>
			<point x="133.56" y="485.44"/>
			<point x="117.12" y="512.76"/>
			<point x="117.12" y="533.72" type="curve" smooth="yes"/>
			<point x="117.12" y="585.8024742268"/>
			<point x="244.8659541985" y="711"/>
			<point x="400" y="711" type="curve" smooth="yes"/>
			<point x="565.44" y="711"/>
			<point x="637.2" y="599"/>
			<point x="637.2" y="417" type="curve" smooth="yes"/>
			<point x="637.2" y="128"/>
			<point x="473.8157099698" y="-11"/>
			<point x="317" y="-11" type="curve" smooth="yes"/>
			<point x="171.6736842105" y="-11"/>
			<point x="61.8" y="74"/>
			<point x="61.8" y="270" type="curve" smooth="yes"/>
			<point x="61.8" y="483.6166754617"/>
			<point x="210" y="629.8"/>
			<point x="278.92" y="629.8" type="curve" smooth="yes"/>
			<point x="305.9152" y="629.8"/>
			<point x="318.36" y="620"/>
			<point x="318.36" y="586.4" type="curve" smooth="yes"/>
			<point x="318.36" y="568.12"/>
			<point x="309.4819790968" y="550.1348726309"/>
		</contour>
	</outline>
</glyph>
<glyph name="one" format="2">
	<unicode hex="0031"/>
	<advance width="700"/>
	<outline>
		<contour>
			<point x="147.4" y="92.2" type="curve" smooth="yes"/>
			<point x="245.92" y="92.2"/>
			<point x="417.5378723404" y="100.56"/>
			<point x="539.56" y="100.56" type="curve" smooth="yes"/>
			<point x="597.3345454546" y="100.56"/>
			<point x="638.96" y="80.28"/>
			<point x="638.92" y="43.64" type="curve" smooth="yes"/>
			<point x="638.88" y="18.72"/>
			<point x="618.1916129032" y="0"/>
			<point x="575.68" y="0" type="curve" smooth="yes"/>
			<point x="427.7395876289" y="0"/>
			<point x="284.96" y="-9.68"/>
			<point x="192.08" y="-9.68" type="curve" smooth="yes"/>
			<point x="106.76" y="-9.68"/>
			<point x="76.28" y="18.2817699115"/>
			<point x="76.28" y="50.8" type="curve" smooth="yes"/>
			<point x="76.28" y="77.2514285714"/>
			<point x="97.36" y="92.2"/>
		</contour>
		<contour>
			<point x="131.2" y="611.68" type="curve" smooth="yes"/>
			<point x="209.24" y="614.24"/>
			<point x="290.6" y="639.84"/>
			<point x="365.92" y="689.4" type="curve" smooth="yes"/>
			<point x="384.24" y="702.32"/>
			<point x="402.16" y="709.88"/>
			<point x="421.24" y="709.88" type="curve" smooth="yes"/>
			<point x="461.28" y="709.88"/>
			<point x="488.0156254578" y="677.1784105892"/>
			<point x="481.08" y="636.12" type="curve" smooth="yes"/>
			<point x="465.72" y="550.64"/>
			<point x="423.48" y="338.4"/>
			<point x="423.48" y="93.64" type="curve" smooth="yes"/>
			<point x="423.48" y="69.24"/>
			<point x="408.64" y="49.76"/>
			<point x="386.04" y="49.76" type="curve" smooth="yes"/>
			<point x="348.96" y="49.76"/>
			<point x="322.56" y="79.64"/>
			<point x="322.56" y="115.72" type="curve" smooth="yes"/>
			<point x="322.56" y="275.04"/>
			<point x="345.72" y="462.52"/>
			<point x="372.84" y="614.52" type="curve"/>
			<point x="397.36" y="596.04" type="line"/>
			<point x="322.6777832904" y="545.0873550919"/>
			<point x="235.08" y="516.28"/>
			<point x="151" y="516.28" type="curve" smooth="yes"/>
			<point x="112.28" y="516.28"/>
			<point x="88.44" y="540.1534020619"/>
			<point x="88.44" y="572.56" type="curve" smooth="yes"/>
			<point x="88.44" y="593.9795744681"/>
			<point x="102.64" y="609.76"/>
		</contour>
	</outline>
</glyph>
<glyph name="two" format="2">
	<unicode hex="0032"/>
	<advance width="700"/>
	<outline>
		<contour>
			<point x="129.88" y="624.32" type="curve" smooth="yes"/>
			<point x="201.4604479665" y="676.8896944262"/>
			<point x="288.9265306122" y="713"/>
			<point x="378" y="713" type="curve" smooth="yes"/>
			<point x="528.48" y="713"/>
			<point x="586.4" y="630.4823529412"/>
			<point x="586.4" y="512.6" type="curve" smooth="yes"/>
			<point x="586.4" y="395.7155741128"/>
			<point x="514.7671890077" y="249.9832872898"/>
			<point x="202.64" y="60.72" type="curve"/>
			<point x="180.72" y="92.8" type="line"/>
			<point x="201.96" y="83.76"/>
			<point x="221.84" y="81.76"/>
			<point x="242.76" y="81.76" type="curve" smooth="yes"/>
			<point x="314.8" y="81.76"/>
			<point x="422.72" y="100.56"/>
			<point x="545.64" y="100.56" type="curve" smooth="yes"/>
			<point x="616.36" y="100.56"/>
			<point x="636.4" y="71.3350943396"/>
			<point x="636.4" y="41.36" type="curve" smooth="yes"/>
			<point x="636.4" y="16.5835294118"/>
			<point x="617.768" y="0"/>
			<point x="578.6" y="0" type="curve" smooth="yes"/>
			<point x="374.6857148578" y="0"/>
			<point x="274.7184140969" y="-20"/>
			<point x="186.28" y="-20" type="curve" smooth="yes"/>
			<point x="123.44" y="-20"/>
			<point x="91.44" y="9.28"/>
			<point x="91.44" y="60.96" type="curve" smooth="yes"/>
			<point x="91.44" y="85.96"/>
			<point x="102.36" y="102.6"/>
			<point x="117.64" y="111.88" type="curve" smooth="yes"/>
			<point x="394.2616094786" y="286.6403204314"/>
			<point x="485.48" y="405.6805660377"/>
			<point x="485.48" y="512.6" type="curve" smooth="yes"/>
			<point x="485.48" y="574.6126618705"/>
			<point x="451.44" y="612.8"/>
			<point x="378" y="612.8" type="curve" smooth="yes"/>
			<point x="246.2410526316" y="612.8"/>
			<point x="185.5283333334" y="528.96"/>
			<point x="146.72" y="528.96" type="curve" smooth="yes"/>
			<point x="119.76" y="528.96"/>
			<point x="99.08" y="551.24"/>
			<point x="99.08" y="576.8" type="curve" smooth="yes"/>
			<point x="99.08" y="595.2"/>
			<point x="107.72" y="607.76"/>
		</contour>
	</outline>
</glyph>
<glyph name="three" format="2">
	<unicode hex="0033"/>
	<advance width="700"/>
	<outline>
		<contour>
			<point x="372" y="712" type="curve" smooth="yes"/>
			<point x="504.72" y="712"/>
			<point x="567.76" y="649.08"/>
			<point x="567.76" y="552.4" type="curve" smooth="yes"/>
			<point x="567.76" y="477.1978142077"/>
			<point x="525.6551266324" y="390.4510402356"/>
			<point x="351.6" y="360.92" type="curve"/>
			<point x="350.36" y="384.96" type="line"/>
			<point x="550.6408923679" y="385.6800089685"/>
			<point x="627.2" y="320.1988285522"/>
			<point x="627.2" y="214.4" type="curve" smooth="yes"/>
			<point x="627.2" y="72.5113043478"/>
			<point x="491.4" y="-12"/>
			<point x="297.8" y="-12" type="curve" smooth="yes"/>
			<point x="153.944" y="-12"/>
			<point x="92.48" y="43.36"/>
			<point x="92.48" y="94.48" type="curve" smooth="yes"/>
			<point x="92.48" y="121.7144827586"/>
			<point x="105.4906666667" y="142.52"/>
			<point x="130.36" y="142.52" type="curve" smooth="yes"/>
			<point x="166.6" y="142.52"/>
			<point x="168.3554887218" y="88.92"/>
			<point x="280.32" y="88.92" type="curve" smooth="yes"/>
			<point x="417.56" y="88.92"/>
			<point x="526.28" y="138.7283435583"/>
			<point x="526.28" y="217.92" type="curve" smooth="yes"/>
			<point x="526.28" y="288.8057142857"/>
			<point x="445.0804988379" y="309.1999963321"/>
			<point x="299.16" y="309.88" type="curve" smooth="yes"/>
			<point x="259.76" y="309.88"/>
			<point x="238.2" y="340.24"/>
			<point x="238.2" y="370.2" type="curve" smooth="yes"/>
			<point x="238.2" y="388.72"/>
			<point x="248.16" y="404"/>
			<point x="272.04" y="409.32" type="curve" smooth="yes"/>
			<point x="380.4398616936" y="435.1631020003"/>
			<point x="464.28" y="473.9636879433"/>
			<point x="464.28" y="549.2" type="curve" smooth="yes"/>
			<point x="464.28" y="604.5028571428"/>
			<point x="422.68" y="615"/>
			<point x="375.52" y="615" type="curve" smooth="yes"/>
			<point x="205.72" y="615"/>
			<point x="177.4171428572" y="541.64"/>
			<point x="133.6" y="541.64" type="curve" smooth="yes"/>
			<point x="108.32" y="541.64"/>
			<point x="85.52" y="560.32"/>
			<point x="85.52" y="585.92" type="curve" smooth="yes"/>
			<point x="85.52" y="632.1574193548"/>
			<point x="221.2678266453" y="712"/>
		</contour>
	</outline>
</glyph>
<glyph name="four" format="2">
	<unicode hex="0034"/>
	<advance width="700"/>
	<outline>
		<contour>
			<point x="361.68" y="157" type="curve" smooth="yes"/>
			<point x="361.68" y="289.0602597403"/>
			<point x="408.04" y="416.8"/>
			<point x="408.04" y="548.12" type="curve" smooth="yes"/>
			<point x="408.04" y="588.96"/>
			<point x="403.68" y="617.28"/>
			<point x="393.36" y="645.36" type="curve"/>
			<point x="429.36" y="625.08" type="line"/>
			<point x="305.12" y="546.36"/>
			<point x="205.44" y="397.8"/>
			<point x="151.44" y="231.6" type="curve"/>
			<point x="118.16" y="279.84" type="line"/>
			<point x="152.52" y="265.48"/>
			<point x="159.84" y="263.84"/>
			<point x="180.76" y="263.84" type="curve" smooth="yes"/>
			<point x="305.728" y="263.84"/>
			<point x="408.52" y="312.6"/>
			<point x="577.84" y="312.6" type="curve" smooth="yes"/>
			<point x="625.48" y="312.6"/>
			<point x="655.96" y="285.08"/>
			<point x="655.96" y="252.2" type="curve" smooth="yes"/>
			<point x="655.96" y="229.16"/>
			<point x="640.68" y="212.4"/>
			<point x="603.84" y="212.4" type="curve" smooth="yes"/>
			<point x="414.8464065708" y="212.4"/>
			<point x="306.2710472279" y="162.64"/>
			<point x="156.48" y="162.64" type="curve" smooth="yes"/>
			<point x="98.4" y="162.64"/>
			<point x="61.24" y="200.6"/>
			<point x="61.24" y="245.2" type="curve" smooth="yes"/>
			<point x="61.24" y="277.8593548387"/>
			<point x="67.7847054021" y="308.3480473534"/>
			<point x="96.12" y="363.56" type="curve" smooth="yes"/>
			<point x="190.84" y="563.68"/>
			<point x="347.8" y="715"/>
			<point x="430.64" y="715" type="curve" smooth="yes"/>
			<point x="487.6" y="715"/>
			<point x="510.88" y="656.6"/>
			<point x="510.88" y="556.52" type="curve" smooth="yes"/>
			<point x="510.88" y="410.68"/>
			<point x="463.24" y="302.4190843373"/>
			<point x="463.24" y="148" type="curve" smooth="yes"/>
			<point x="463.24" y="93.2"/>
			<point x="473.24" y="69.48"/>
			<point x="473.24" y="39.4" type="curve" smooth="yes"/>
			<point x="473.24" y="7.56"/>
			<point x="453.56" y="-11"/>
			<point x="424.04" y="-11" type="curve" smooth="yes"/>
			<point x="379.16" y="-11"/>
			<point x="361.68" y="39"/>
		</contour>
	</outline>
</glyph>
<glyph name="five" format="2">
	<unicode hex="0035"/>
	<advance width="700"/>
	<outline>
		<contour>
			<point x="567" y="616.44" type="curve" smooth="yes"/>
			<point x="416.6351122194" y="616.44"/>
			<point x="347.3616072259" y="597.3850311947"/>
			<point x="170" y="600.44" type="curve"/>
			<point x="236.96" y="637.84" type="line"/>
			<point x="216.84" y="598.64"/>
			<point x="196.16" y="538.36"/>
			<point x="196.16" y="497.96" type="curve" smooth="yes"/>
			<point x="196.16" y="469.16"/>
			<point x="202.8915400107" y="463.8055026351"/>
			<point x="381" y="429.28" type="curve" smooth="yes"/>
			<point x="575.5216405635" y="391.3173801941"/>
			<point x="620.6" y="335.96"/>
			<point x="620.6" y="247.48" type="curve" smooth="yes"/>
			<point x="620.6" y="101.04"/>
			<point x="473.4505149052" y="-12"/>
			<point x="248.8" y="-12" type="curve" smooth="yes"/>
			<point x="146.8388571428" y="-12"/>
			<point x="100.28" y="29.12"/>
			<point x="100.28" y="90.8" type="curve" smooth="yes"/>
			<point x="100.28" y="118.84"/>
			<point x="113.44" y="140.6"/>
			<point x="140.08" y="140.6" type="curve" smooth="yes"/>
			<point x="173.04" y="140.6"/>
			<point x="169.56" y="86.6"/>
			<point x="237.08" y="86.6" type="curve" smooth="yes"/>
			<point x="384.506440678" y="86.6"/>
			<point x="516.16" y="144.72"/>
			<point x="516.16" y="244.12" type="curve" smooth="yes"/>
			<point x="516.16" y="296.64"/>
			<point x="454.6793983437" y="319.7485714607"/>
			<point x="351.4" y="340.56" type="curve" smooth="yes"/>
			<point x="118.5700005912" y="386.0579410547"/>
			<point x="93.96" y="406.96"/>
			<point x="93.96" y="490.68" type="curve" smooth="yes"/>
			<point x="93.96" y="527.68"/>
			<point x="102.96" y="577.4"/>
			<point x="123.32" y="642.92" type="curve" smooth="yes"/>
			<point x="135.68" y="683"/>
			<point x="155.8" y="700"/>
			<point x="185.68" y="700" type="curve" smooth="yes"/>
			<point x="346.9068164052" y="697.8931437118"/>
			<point x="406.9904477612" y="716"/>
			<point x="527.88" y="716" type="curve" smooth="yes"/>
			<point x="587.36" y="716"/>
			<point x="618.4" y="685.12"/>
			<point x="616.76" y="651.96" type="curve" smooth="yes"/>
			<point x="615.76" y="630.24"/>
			<point x="596.2" y="616.44"/>
		</contour>
	</outline>
</glyph>
<glyph name="six" format="2">
	<unicode hex="0036"/>
	<advance width="700"/>
	<outline>
		<contour>
			<point x="440.52" y="606.12" type="curve" smooth="yes"/>
			<point x="275.2493977837" y="485.9979595859"/>
			<point x="168.96" y="365.2163636364"/>
			<point x="168.96" y="240.6" type="curve" smooth="yes"/>
			<point x="168.96" y="126.3448101266"/>
			<point x="246.6444418645" y="88.6"/>
			<point x="354.2" y="88.6" type="curve" smooth="yes"/>
			<point x="449.4955751629" y="88.6"/>
			<point x="531.96" y="124.4477018634"/>
			<point x="531.96" y="207.2" type="curve" smooth="yes"/>
			<point x="531.96" y="254.8965656565"/>
			<point x="495.2360454168" y="306.36"/>
			<point x="385.76" y="306.36" type="curve" smooth="yes"/>
			<point x="259.3761831077" y="306.36"/>
			<point x="237.5931914894" y="276.52"/>
			<point x="194.64" y="276.52" type="curve" smooth="yes"/>
			<point x="169.64" y="276.52"/>
			<point x="161.76" y="288.36"/>
			<point x="161.76" y="308.92" type="curve" smooth="yes"/>
			<point x="161.76" y="345.7874015748"/>
			<point x="250.2198373983" y="398.24"/>
			<point x="402.88" y="398.24" type="curve" smooth="yes"/>
			<point x="553.5138461539" y="398.24"/>
			<point x="634.2" y="310.2357209302"/>
			<point x="634.2" y="197.8" type="curve" smooth="yes"/>
			<point x="634.2" y="87.648372093"/>
			<point x="534.4499099309" y="-10"/>
			<point x="352.92" y="-10" type="curve" smooth="yes"/>
			<point x="152.8750478496" y="-10"/>
			<point x="65.8" y="84.88"/>
			<point x="65.8" y="239" type="curve" smooth="yes"/>
			<point x="65.8" y="385.1323006834"/>
			<point x="177.5892178296" y="538.5032045052"/>
			<point x="370.92" y="678.72" type="curve" smooth="yes"/>
			<point x="405.5401097532" y="703.2481881982"/>
			<point x="416.7489855072" y="710.68"/>
			<point x="435.76" y="710.68" type="curve" smooth="yes"/>
			<point x="460.8382978724" y="710.68"/>
			<point x="479.52" y="688.0416161616"/>
			<point x="479.52" y="662.32" type="curve" smooth="yes"/>
			<point x="479.52" y="640.68"/>
			<point x="472.8" y="628.76"/>
		</contour>
	</outline>
</glyph>
<glyph name="seven" format="2">
	<unicode hex="0037"/>
	<advance width="700"/>
	<outline>
		<contour>
			<point x="206" y="352.4" type="curve" smooth="yes"/>
			<point x="311.8527834678" y="352.4"/>
			<point x="405.6354209228" y="380.4"/>
			<point x="562.8" y="380.4" type="curve" smooth="yes"/>
			<point x="615.96" y="380.4"/>
			<point x="648" y="353.12"/>
			<point x="648" y="316.2" type="curve" smooth="yes"/>
			<point x="648" y="296.52"/>
			<point x="632.52" y="283.4"/>
			<point x="604.2" y="283.4" type="curve" smooth="yes"/>
			<point x="403.7557963545" y="283.4"/>
			<point x="331.99139674" y="255.4"/>
			<point x="244" y="255.4" type="curve" smooth="yes"/>
			<point x="201.96" y="255.4"/>
			<point x="170.84" y="285.4"/>
			<point x="170.84" y="314.32" type="curve" smooth="yes"/>
			<point x="170.84" y="337.92"/>
			<point x="185.08" y="352.4"/>
		</contour>
		<contour>
			<point x="98.24" y="646.36" type="curve" smooth="yes"/>
			<point x="182.6111642213" y="683.4917588262"/>
			<point x="282.2103008956" y="710"/>
			<point x="376" y="710" type="curve" smooth="yes"/>
			<point x="533.2862745098" y="710"/>
			<point x="592.8" y="645.88"/>
			<point x="592.8" y="552.2" type="curve" smooth="yes"/>
			<point x="592.8" y="405.8"/>
			<point x="399.2" y="235"/>
			<point x="399.2" y="55.72" type="curve" smooth="yes"/>
			<point x="399.2" y="5.6"/>
			<point x="388.36" y="-9"/>
			<point x="359.4" y="-9" type="curve" smooth="yes"/>
			<point x="325.88" y="-9"/>
			<point x="298.28" y="13.2"/>
			<point x="298.28" y="59.88" type="curve" smooth="yes"/>
			<point x="298.28" y="244.76"/>
			<point x="490.6" y="446.2"/>
			<point x="490.6" y="544.08" type="curve" smooth="yes"/>
			<point x="490.6" y="590.76"/>
			<point x="467.8" y="611.96"/>
			<point x="383" y="611.96" type="curve" smooth="yes"/>
			<point x="232.3104918033" y="611.96"/>
			<point x="167.469484609" y="552.48"/>
			<point x="122.6" y="552.48" type="curve" smooth="yes"/>
			<point x="95.7127272727" y="552.48"/>
			<point x="70.28" y="577.6"/>
			<point x="70.28" y="605.92" type="curve" smooth="yes"/>
			<point x="70.28" y="622.48"/>
			<point x="80.28" y="638.68"/>
		</contour>
	</outline>
</glyph>
<glyph name="eight" format="2">
	<unicode hex="0038"/>
	<advance width="700"/>
	<outline>
		<contour>
			<point x="430" y="613.36" type="curve" smooth="yes"/>
			<point x="248.2504229844" y="618.0874872405"/>
			<point x="174.72" y="590.76"/>
			<point x="174.72" y="537.64" type="curve" smooth="yes"/>
			<point x="174.72" y="499.2458741259"/>
			<point x="218.6851570296" y="470.5985364996"/>
			<point x="386.16" y="410.68" type="curve" smooth="yes"/>
			<point x="594.8164070507" y="336.9513522339"/>
			<point x="615.4" y="279.1909433962"/>
			<point x="615.4" y="200.24" type="curve" smooth="yes"/>
			<point x="615.4" y="90.84"/>
			<point x="525.2541176471" y="-12"/>
			<point x="289.44" y="-12" type="curve" smooth="yes"/>
			<point x="146.6984615385" y="-12"/>
			<point x="94.3999779232" y="58.6789292752"/>
			<point x="95.72" y="140.04" type="curve" smooth="yes"/>
			<point x="97.0400358788" y="211.2413992709"/>
			<point x="118.4924928698" y="270.9526740079"/>
			<point x="325.04" y="399.56" type="curve" smooth="yes"/>
			<point x="441.7245335213" y="470.3773895712"/>
			<point x="488.557924083" y="520.7955214156"/>
			<point x="509.8" y="595.92" type="curve" smooth="yes"/>
			<point x="519.12" y="627.16"/>
			<point x="528.5288888889" y="642.68"/>
			<point x="551.44" y="642.68" type="curve" smooth="yes"/>
			<point x="579.5445614035" y="642.68"/>
			<point x="603.24" y="617.44"/>
			<point x="603.24" y="585.32" type="curve" smooth="yes"/>
			<point x="603.24" y="517.4"/>
			<point x="549.6928564365" y="425.1372556862"/>
			<point x="407.24" y="336.8" type="curve" smooth="yes"/>
			<point x="230.24" y="229.48"/>
			<point x="195.88" y="183.9268449198"/>
			<point x="195.88" y="133.28" type="curve" smooth="yes"/>
			<point x="195.88" y="106.7647058824"/>
			<point x="201.0506203357" y="76.1207992932"/>
			<point x="219.96" y="43.72" type="curve"/>
			<point x="163.04" y="116" type="line"/>
			<point x="204.127192354" y="93.5164582044"/>
			<point x="245.5243076923" y="86.92"/>
			<point x="288.8" y="86.92" type="curve" smooth="yes"/>
			<point x="411.4193548387" y="86.92"/>
			<point x="511.28" y="122.9690322581"/>
			<point x="511.28" y="202.56" type="curve" smooth="yes"/>
			<point x="511.28" y="250.8034666666"/>
			<point x="483.2870650064" y="283.9460117809"/>
			<point x="341.32" y="330.12" type="curve" smooth="yes"/>
			<point x="109.8360557231" y="405.029846854"/>
			<point x="72.7966835477" y="459.0378989791"/>
			<point x="73.8" y="539" type="curve" smooth="yes"/>
			<point x="75.7999951629" y="647.4397097733"/>
			<point x="169.2153424658" y="711"/>
			<point x="382.6" y="711" type="curve" smooth="yes"/>
			<point x="443.48" y="711"/>
			<point x="473.16" y="679.12"/>
			<point x="472.52" y="648.52" type="curve" smooth="yes"/>
			<point x="472.2" y="628.8"/>
			<point x="452.4" y="612.36"/>
		</contour>
	</outline>
</glyph>
<glyph name="nine" format="2">
	<unicode hex="0039"/>
	<advance width="700"/>
	<outline>
		<contour>
			<point x="485.12" y="568.52" type="curve" smooth="yes"/>
			<point x="507.12" y="568.52"/>
			<point x="517.32" y="592.68"/>
			<point x="517.32" y="616.52" type="curve" smooth="yes"/>
			<point x="517.32" y="674.2"/>
			<point x="462.5450847458" y="710"/>
			<point x="369" y="710" type="curve" smooth="yes"/>
			<point x="179.44" y="710"/>
			<point x="72.8" y="578.1160305343"/>
			<point x="72.8" y="452.88" type="curve" smooth="yes"/>
			<point x="72.8" y="339.796952381"/>
			<point x="136.4519111111" y="265.84"/>
			<point x="270.28" y="265.84" type="curve" smooth="yes"/>
			<point x="390.7457425743" y="265.84"/>
			<point x="494.7809076259" y="327.3662462435"/>
			<point x="544.36" y="442.56" type="curve"/>
			<point x="494.44" y="427.64" type="line"/>
			<point x="494.44" y="267.5184452297"/>
			<point x="488.6758505887" y="141.3318010556"/>
			<point x="502.68" y="52.4" type="curve" smooth="yes"/>
			<point x="509.1192250054" y="15.4586939776"/>
			<point x="533.92" y="-9"/>
			<point x="571.16" y="-9" type="curve" smooth="yes"/>
			<point x="595.76" y="-9"/>
			<point x="609.2" y="5.84"/>
			<point x="609.2" y="35.72" type="curve" smooth="yes"/>
			<point x="609.2" y="81.88"/>
			<point x="595.6" y="130.2806374502"/>
			<point x="595.6" y="280.96" type="curve" smooth="yes"/>
			<point x="595.6" y="324.8"/>
			<point x="593.88" y="409.08"/>
			<point x="595.52" y="510.92" type="curve"/>
			<point x="616.720995843" y="621.1823978609"/>
			<point x="589.88" y="659.88"/>
			<point x="532.32" y="659.88" type="curve" smooth="yes"/>
			<point x="509.56" y="659.88"/>
			<point x="494.4" y="639.96"/>
			<point x="494.4" y="602.72" type="curve" smooth="yes"/>
			<point x="494.4" y="430.2879144385"/>
			<point x="388.8" y="363.8"/>
			<point x="270.6" y="363.8" type="curve" smooth="yes"/>
			<point x="208.4" y="363.8"/>
			<point x="173.72" y="395.7244444444"/>
			<point x="173.72" y="454.8" type="curve" smooth="yes"/>
			<point x="173.72" y="539.2836363636"/>
			<point x="248" y="611.08"/>
			<point x="369" y="611.08" type="curve" smooth="yes"/>
			<point x="455.12" y="611.08"/>
			<point x="452.32" y="568.52"/>
		</contour>
	</outline>
</glyph>
<glyph name="colon" format="2">
	<unicode hex="003A"/>
	<advance width="320"/>
	<outline>
		<contour>
			<point x="165.04" y="349.68" type="curve" smooth="yes"/>
			<point x="217.56" y="349.68"/>
			<point x="241.24" y="381.2208219178"/>
			<point x="241.24" y="414.12" type="curve" smooth="yes"/>
			<point x="241.24" y="458.7542857143"/>
			<point x="212.0248275862" y="505.56"/>
			<point x="149.76" y="505.56" type="curve" smooth="yes"/>
			<point x="105.509787234" y="505.56"/>
			<point x="79.76" y="479.9466666666"/>
			<point x="79.76" y="439.48" type="curve" smooth="yes"/>
			<point x="79.76" y="384.7782716049"/>
			<point x="114.56" y="349.68"/>
		</contour>
		<contour>
			<point x="168.24" y="-11.28" type="curve" smooth="yes"/>
			<point x="218.52" y="-11.28"/>
			<point x="241.24" y="20.2608219178"/>
			<point x="241.24" y="53.16" type="curve" smooth="yes"/>
			<point x="241.24" y="96.4342857143"/>
			<point x="211.6628965517" y="144.6"/>
			<point x="151.2" y="144.6" type="curve" smooth="yes"/>
			<point x="112.4178723404" y="144.6"/>
			<point x="79.76" y="117.4"/>
			<point x="79.76" y="74.44" type="curve" smooth="yes"/>
			<point x="79.76" y="25.64"/>
			<point x="116.2" y="-11.28"/>
		</contour>
	</outline>
</glyph>
<glyph name="semicolon" format="2">
	<unicode hex="003B"/>
	<advance width="320"/>
	<outline>
		<contour>
			<point x="161.84" y="356.76" type="curve" smooth="yes"/>
			<point x="216.465982906" y="356.76"/>
			<point x="241.24" y="388.3008219178"/>
			<point x="241.24" y="421.2" type="curve" smooth="yes"/>
			<point x="241.24" y="461.2666666667"/>
			<point x="214.7393103448" y="506.24"/>
			<point x="162.08" y="506.24" type="curve" smooth="yes"/>
			<point x="117.2791489362" y="506.24"/>
			<point x="79.76" y="477.9066666667"/>
			<point x="79.76" y="432.88" type="curve" smooth="yes"/>
			<point x="79.76" y="389.7443298969"/>
			<point x="112.8845901639" y="356.76"/>
		</contour>
		<component base="comma"/>
	</outline>
</glyph>
<glyph name="question" format="2">
	<unicode hex="003F"/>
	<advance width="487"/>
	<outline>
		<contour>
			<point x="49.2" y="680.72" type="curve" smooth="yes"/>
			<point x="94.76" y="704.32"/>
			<point x="172" y="720"/>
			<point x="229.24" y="720" type="curve" smooth="yes"/>
			<point x="377.84" y="720"/>
			<point x="446.76" y="654.4"/>
			<point x="446.76" y="562.92" type="curve" smooth="yes"/>
			<point x="446.76" y="503.64"/>
			<point x="422.28" y="459.68"/>
			<point x="340.24" y="406.88" type="curve" smooth="yes"/>
			<point x="267.16" y="361.32"/>
			<point x="257.56" y="345.52"/>
			<point x="257.56" y="325.64" type="curve" smooth="yes"/>
			<point x="257.56" y="293.16"/>
			<point x="298.36" y="288.68"/>
			<point x="298.36" y="255.12" type="curve" smooth="yes"/>
			<point x="298.36" y="237.24"/>
			<point x="284.16" y="220.8"/>
			<point x="259.84" y="220.8" type="curve" smooth="yes"/>
			<point x="203.92" y="220.8"/>
			<point x="155.56" y="271.36"/>
			<point x="155.56" y="330.28" type="curve" smooth="yes"/>
			<point x="155.56" y="368.84"/>
			<point x="166.6" y="407.52"/>
			<point x="271.28" y="473.76" type="curve" smooth="yes"/>
			<point x="333.2" y="512.64"/>
			<point x="342.92" y="532.12"/>
			<point x="342.92" y="559.72" type="curve" smooth="yes"/>
			<point x="342.92" y="597.8"/>
			<point x="312" y="619.36"/>
			<point x="232.76" y="619.36" type="curve" smooth="yes"/>
			<point x="141.6" y="619.36"/>
			<point x="108.12" y="585.36"/>
			<point x="70.96" y="585.36" type="curve" smooth="yes"/>
			<point x="42.64" y="585.36"/>
			<point x="21.28" y="604.2"/>
			<point x="21.28" y="635.04" type="curve" smooth="yes"/>
			<point x="21.28" y="655.04"/>
			<point x="31.16" y="671.2"/>
		</contour>
		<contour>
			<point x="251.92" y="-10.96" type="curve" smooth="yes"/>
			<point x="296.88" y="-10.96"/>
			<point x="316.96" y="16.64"/>
			<point x="316.96" y="49.32" type="curve" smooth="yes"/>
			<point x="316.96" y="90.48"/>
			<point x="290.52" y="129.64"/>
			<point x="227.56" y="129.64" type="curve" smooth="yes"/>
			<point x="192.24" y="129.64"/>
			<point x="165.08" y="105.4"/>
			<point x="165.08" y="65.8" type="curve" smooth="yes"/>
			<point x="165.08" y="16.96"/>
			<point x="201.64" y="-10.96"/>
		</contour>
	</outline>
</glyph>
<glyph name="at" format="2">
	<unicode hex="0040"/>
	<advance width="872"/>
	<outline>
		<contour>
			<point x="509.52" y="325" type="curve" smooth="yes"/>
			<point x="427.72" y="314.04"/>
			<point x="380.56" y="263.8"/>
			<point x="380.56" y="214.84" type="curve" smooth="yes"/>
			<point x="380.56" y="198.88"/>
			<point x="382.8" y="182.88"/>
			<point x="398.84" y="151.84" type="curve"/>
			<point x="333.96" y="212.76" type="line"/>
			<point x="365.8" y="194"/>
			<point x="380.76" y="191"/>
			<point x="394.68" y="191" type="curve" smooth="yes"/>
			<point x="420.2" y="191"/>
			<point x="432.28" y="206.04"/>
			<point x="452.2" y="245.6" type="curve" smooth="yes"/>
			<point x="480.16" y="305.04"/>
			<point x="506" y="320.52"/>
			<point x="541.68" y="320.52" type="curve" smooth="yes"/>
			<point x="572.6" y="320.52"/>
			<point x="600.8683021612" y="308.1144448878"/>
			<point x="624.92" y="261.24" type="curve" smooth="yes"/>
			<point x="653.9385025104" y="205.6718162846"/>
			<point x="659.1372972973" y="203.68"/>
			<point x="674.6" y="203.68" type="curve" smooth="yes"/>
			<point x="704.08" y="203.68"/>
			<point x="713.2" y="247.72"/>
			<point x="713.2" y="282.96" type="curve" smooth="yes"/>
			<point x="713.2" y="391.23"/>
			<point x="643.16" y="549.12"/>
			<point x="476.92" y="549.12" type="curve" smooth="yes"/>
			<point x="313.2" y="549.12"/>
			<point x="159.12" y="393.6"/>
			<point x="159.12" y="236.44" type="curve" smooth="yes"/>
			<point x="159.12" y="60.64"/>
			<point x="309.72" y="-24.72"/>
			<point x="468.76" y="-24.72" type="curve" smooth="yes"/>
			<point x="642.12" y="-24.72"/>
			<point x="667.52" y="24.84"/>
			<point x="704.8" y="24.84" type="curve" smooth="yes"/>
			<point x="734.68" y="24.84"/>
			<point x="750.04" y="3.52"/>
			<point x="750.04" y="-24.8" type="curve" smooth="yes"/>
			<point x="750.04" y="-45.88"/>
			<point x="738.88" y="-64.96"/>
			<point x="713.8" y="-79.28" type="curve" smooth="yes"/>
			<point x="664.88" y="-107.64"/>
			<point x="599.28" y="-125.04"/>
			<point x="468.76" y="-125.04" type="curve" smooth="yes"/>
			<point x="247.88" y="-125.04"/>
			<point x="58.8" y="4"/>
			<point x="58.8" y="236.44" type="curve"/>
			<point x="58.8" y="442.32"/>
			<point x="259.28" y="649.76"/>
			<point x="476.92" y="649.76" type="curve" smooth="yes"/>
			<point x="714.76" y="649.76"/>
			<point x="813.52" y="428.24"/>
			<point x="813.52" y="282.96" type="curve" smooth="yes"/>
			<point x="813.52" y="155.16"/>
			<point x="747.64" y="103.36"/>
			<point x="681.32" y="103.36" type="curve" smooth="yes"/>
			<point x="590.4251851852" y="103.36"/>
			<point x="584.4968674431" y="187.4787607956"/>
			<point x="519.28" y="239.36" type="curve"/>
			<point x="553.24" y="238.4" type="line"/>
			<point x="518.2" y="191.16"/>
			<point x="499.44" y="98.12"/>
			<point x="403.08" y="98.12" type="curve" smooth="yes"/>
			<point x="337.72" y="98.12"/>
			<point x="285.04" y="136.08"/>
			<point x="285.04" y="221.88" type="curve" smooth="yes"/>
			<point x="285.04" y="330.08"/>
			<point x="401.84" y="424.04"/>
			<point x="497.88" y="424.04" type="curve" smooth="yes"/>
			<point x="530.08" y="424.04"/>
			<point x="548.2" y="404.04"/>
			<point x="548.2" y="376.08" type="curve" smooth="yes"/>
			<point x="548.2" y="351.28"/>
			<point x="533.32" y="330.2"/>
		</contour>
	</outline>
</glyph>
<glyph name="A" format="2">
	<unicode hex="0041"/>
	<advance width="734"/>
	<outline>
		<contour>
			<point x="628.04" y="-9.64" type="curve" smooth="yes"/>
			<point x="651.09" y="-9.64"/>
			<point x="664.8" y="3.56"/>
			<point x="664.8" y="27.96" type="curve" smooth="yes"/>
			<point x="664.8" y="83.8"/>
			<point x="602.92" y="169.48"/>
			<point x="578.52" y="389" type="curve" smooth="yes"/>
			<point x="553.6" y="616.16"/>
			<point x="533.4" y="715.12"/>
			<point x="412.6" y="715.12" type="curve" smooth="yes"/>
			<point x="337.4990163934" y="715.12"/>
			<point x="274.2" y="651.6"/>
			<point x="214.04" y="529.88" type="curve"/>
			<point x="256.48" y="542.64" type="line"/>
			<point x="236.8592340265" y="566.1929864753"/>
			<point x="219.927706422" y="578.36"/>
			<point x="199.8" y="578.36" type="curve"/>
			<point x="178.04" y="578.36"/>
			<point x="167.12" y="563.72"/>
			<point x="167.12" y="541.44" type="curve" smooth="yes"/>
			<point x="167.12" y="383.3870967742"/>
			<point x="88.52" y="235.7109677419"/>
			<point x="88.52" y="77.72" type="curve" smooth="yes"/>
			<point x="88.52" y="19.32"/>
			<point x="115.4305882353" y="-8"/>
			<point x="144.56" y="-8" type="curve" smooth="yes"/>
			<point x="167.88" y="-8.64"/>
			<point x="178.72" y="6.6"/>
			<point x="182.36" y="35.24" type="curve" smooth="yes"/>
			<point x="229.88" y="384.76"/>
			<point x="338.44" y="615.56"/>
			<point x="410.04" y="615.56" type="curve" smooth="yes"/>
			<point x="451.84" y="615.56"/>
			<point x="458.48" y="560.64"/>
			<point x="477.48" y="387.2" type="curve" smooth="yes"/>
			<point x="489.8" y="278.84"/>
			<point x="515.04" y="144.56"/>
			<point x="549.6" y="70.92" type="curve" smooth="yes"/>
			<point x="575.609050022" y="12.2145999707"/>
			<point x="593.6692063492" y="-9.64"/>
		</contour>
		<contour>
			<point x="90.48" y="183.12" type="curve" smooth="yes"/>
			<point x="191.4" y="183.84"/>
			<point x="299.04" y="242.88"/>
			<point x="612.12" y="242.88" type="curve" smooth="yes"/>
			<point x="658" y="242.88"/>
			<point x="696.96" y="270.88"/>
			<point x="696.96" y="305.24" type="curve" smooth="yes"/>
			<point x="696.96" y="335.52"/>
			<point x="688.44" y="343.44"/>
			<point x="615.32" y="343.44" type="curve" smooth="yes"/>
			<point x="403.24" y="343.44"/>
			<point x="212.84" y="319.72"/>
			<point x="65.6" y="262.08" type="curve" smooth="yes"/>
			<point x="42.96" y="253.08"/>
			<point x="35.04" y="242.8"/>
			<point x="35.04" y="226.24" type="curve" smooth="yes"/>
			<point x="35.04" y="204.16"/>
			<point x="62.76" y="183.12"/>
		</contour>
	</outline>
</glyph>
<glyph name="B" format="2">
	<unicode hex="0042"/>
	<advance width="596"/>
	<outline>
		<contour>
			<point x="172.92" y="334.76" type="curve" smooth="yes"/>
			<point x="175.64" y="420.92"/>
			<point x="179" y="473.68"/>
			<point x="196.2" y="577.16" type="curve" smooth="yes"/>
			<point x="203.92" y="620.8"/>
			<point x="178.16" y="658.24"/>
			<point x="148.96" y="658.24" type="curve" smooth="yes"/>
			<point x="127" y="658.24"/>
			<point x="113.04" y="649.04"/>
			<point x="107.44" y="623.88" type="curve" smooth="yes"/>
			<point x="81.4" y="496.92"/>
			<point x="72.68" y="438"/>
			<point x="72.68" y="331" type="curve" smooth="yes"/>
			<point x="72.68" y="151.32"/>
			<point x="138.16" y="-10"/>
			<point x="247.48" y="-10" type="curve" smooth="yes"/>
			<point x="367.4405594405" y="-10"/>
			<point x="526.28" y="80.88"/>
			<point x="526.28" y="202.28" type="curve" smooth="yes"/>
			<point x="526.28" y="267.24"/>
			<point x="472.16" y="340.92"/>
			<point x="275.44" y="361" type="curve"/>
			<point x="279" y="328.44" type="line"/>
			<point x="488.36" y="386"/>
			<point x="552.28" y="464.36"/>
			<point x="552.28" y="525" type="curve" smooth="yes"/>
			<point x="552.28" y="659.84"/>
			<point x="382.9412885154" y="712"/>
			<point x="170.52" y="712" type="curve" smooth="yes"/>
			<point x="82.5188439306" y="712"/>
			<point x="41.96" y="687.04"/>
			<point x="41.96" y="644.08" type="curve" smooth="yes"/>
			<point x="41.96" y="622.08"/>
			<point x="57.84" y="605.6"/>
			<point x="82.16" y="605.6" type="curve" smooth="yes"/>
			<point x="102.84" y="605.6"/>
			<point x="153.2" y="606.88"/>
			<point x="200.56" y="606.88" type="curve" smooth="yes"/>
			<point x="344.9003278689" y="606.88"/>
			<point x="447.08" y="575.04"/>
			<point x="447.08" y="518" type="curve" smooth="yes"/>
			<point x="447.08" y="469.76"/>
			<point x="286.104402432" y="406.6812578377"/>
			<point x="179.4" y="383.48" type="curve" smooth="yes"/>
			<point x="129.16" y="372.72"/>
			<point x="110.48" y="359"/>
			<point x="110.48" y="336" type="curve" smooth="yes"/>
			<point x="110.48" y="299.24"/>
			<point x="136.48" y="283.28"/>
			<point x="173.48" y="284.28" type="curve" smooth="yes"/>
			<point x="313.6230261594" y="286.7010006084"/>
			<point x="424.28" y="238.56"/>
			<point x="424.28" y="198.56" type="curve" smooth="yes"/>
			<point x="424.28" y="154.92"/>
			<point x="325.0740186916" y="91.64"/>
			<point x="255.8" y="91.64" type="curve" smooth="yes"/>
			<point x="215.92" y="91.64"/>
			<point x="168.16" y="194.48"/>
		</contour>
	</outline>
</glyph>
<glyph name="C" format="2">
	<unicode hex="0043"/>
	<advance width="649"/>
	<outline>
		<contour>
			<point x="342.52" y="-10" type="curve" smooth="yes"/>
			<point x="516.5541984733" y="-10"/>
			<point x="599" y="80.9990909091"/>
			<point x="599" y="146.64" type="curve" smooth="yes"/>
			<point x="599" y="171.68"/>
			<point x="588.8" y="191.8"/>
			<point x="571.32" y="191.8" type="curve" smooth="yes"/>
			<point x="536.28" y="191.8"/>
			<point x="501.7990123457" y="87.64"/>
			<point x="345.36" y="87.64" type="curve" smooth="yes"/>
			<point x="231.5150769231" y="87.64"/>
			<point x="158.88" y="157.2"/>
			<point x="158.88" y="283.52" type="curve" smooth="yes"/>
			<point x="158.88" y="446.36"/>
			<point x="268.8338686132" y="606.96"/>
			<point x="424.04" y="606.96" type="curve" smooth="yes"/>
			<point x="473.84" y="606.96"/>
			<point x="480.88" y="585.68"/>
			<point x="480.88" y="561.2" type="curve" smooth="yes"/>
			<point x="480.88" y="533.04"/>
			<point x="479.96" y="509.2"/>
			<point x="507.72" y="509.2" type="curve" smooth="yes"/>
			<point x="548.92" y="509.2"/>
			<point x="572.88" y="554.32"/>
			<point x="572.88" y="599.48" type="curve" smooth="yes"/>
			<point x="572.88" y="666.92"/>
			<point x="535.56" y="711"/>
			<point x="438.52" y="711" type="curve" smooth="yes"/>
			<point x="223.28" y="711"/>
			<point x="57.32" y="506"/>
			<point x="57.32" y="289" type="curve" smooth="yes"/>
			<point x="57.32" y="119.08"/>
			<point x="146" y="-10"/>
		</contour>
	</outline>
</glyph>
<glyph name="D" format="2">
	<unicode hex="0044"/>
	<advance width="666"/>
	<outline>
		<contour>
			<point x="211.36" y="-10" type="curve" smooth="yes"/>
			<point x="393.72" y="-10"/>
			<point x="617.48" y="198.64"/>
			<point x="617.48" y="459.28" type="curve" smooth="yes"/>
			<point x="617.48" y="612.52"/>
			<point x="527.16" y="709"/>
			<point x="369.36" y="709" type="curve" smooth="yes"/>
			<point x="238.7982795699" y="709"/>
			<point x="90.0201497487" y="660.1768778693"/>
			<point x="41.16" y="629.24" type="curve" smooth="yes"/>
			<point x="28.16" y="620.32"/>
			<point x="21.4" y="609.28"/>
			<point x="21.4" y="595.68" type="curve" smooth="yes"/>
			<point x="21.4" y="568.28"/>
			<point x="48.68" y="546.44"/>
			<point x="86.36" y="546.44" type="curve" smooth="yes"/>
			<point x="153.3592094861" y="546.44"/>
			<point x="213.874624506" y="608.16"/>
			<point x="359.76" y="608.16" type="curve" smooth="yes"/>
			<point x="478.28" y="608.16"/>
			<point x="516.28" y="552.92"/>
			<point x="516.28" y="455.36" type="curve" smooth="yes"/>
			<point x="516.28" y="244.48"/>
			<point x="353.08" y="106.64"/>
			<point x="161.8" y="78.36" type="curve"/>
			<point x="208.76" y="58.68" type="line"/>
			<point x="200.68" y="100.36"/>
			<point x="198.04" y="134.72"/>
			<point x="198.04" y="165.88" type="curve" smooth="yes"/>
			<point x="198.04" y="330.96"/>
			<point x="217.56" y="464.88"/>
			<point x="217.56" y="562.52" type="curve" smooth="yes"/>
			<point x="217.56" y="593"/>
			<point x="197.24" y="618.2"/>
			<point x="172.36" y="618.2" type="curve" smooth="yes"/>
			<point x="139.24" y="618.2"/>
			<point x="125.44" y="603.24"/>
			<point x="121.08" y="563.28" type="curve" smooth="yes"/>
			<point x="105.96" y="425.64"/>
			<point x="97.56" y="294.52"/>
			<point x="97.56" y="119.6" type="curve" smooth="yes"/>
			<point x="97.56" y="55.8"/>
			<point x="145.68" y="-10"/>
		</contour>
	</outline>
</glyph>
<glyph name="E" format="2">
	<unicode hex="0045"/>
	<advance width="676"/>
	<outline>
		<contour>
			<point x="132.04" y="554.28" type="curve" smooth="yes"/>
			<point x="95.08" y="479.16"/>
			<point x="68.32" y="380.2"/>
			<point x="68.32" y="293" type="curve" smooth="yes"/>
			<point x="68.32" y="122.52"/>
			<point x="171.16" y="-7"/>
			<point x="361.32" y="-7" type="curve" smooth="yes"/>
			<point x="547.12" y="-7"/>
			<point x="635.44" y="45.68"/>
			<point x="635.44" y="99.56" type="curve" smooth="yes"/>
			<point x="635.44" y="122.6"/>
			<point x="627.2" y="138.44"/>
			<point x="598.96" y="138.44" type="curve" smooth="yes"/>
			<point x="569.88" y="138.44"/>
			<point x="515.96" y="93.2"/>
			<point x="358.6" y="93.2" type="curve" smooth="yes"/>
			<point x="244.48" y="93.2"/>
			<point x="170.2" y="175.08"/>
			<point x="170.88" y="293.72" type="curve" smooth="yes"/>
			<point x="171.56" y="401.32"/>
			<point x="209.16" y="508.16"/>
			<point x="252" y="582.8" type="curve" smooth="yes"/>
			<point x="267.64" y="618.36"/>
			<point x="246.76" y="633.2"/>
			<point x="221.08" y="633.2" type="curve" smooth="yes"/>
			<point x="183" y="633.2"/>
			<point x="153.52" y="598.76"/>
		</contour>
		<contour>
			<point x="170.04" y="266.28" type="curve" smooth="yes"/>
			<point x="239.04" y="282.28"/>
			<point x="352.84" y="298"/>
			<point x="458.28" y="304.64" type="curve" smooth="yes"/>
			<point x="502.04" y="307.28"/>
			<point x="538.96" y="324.24"/>
			<point x="538.96" y="365.76" type="curve" smooth="yes"/>
			<point x="538.96" y="393.92"/>
			<point x="527.04" y="404.56"/>
			<point x="480.16" y="404.56" type="curve" smooth="yes"/>
			<point x="393.2" y="402.28"/>
			<point x="269.6" y="386.92"/>
			<point x="178.76" y="370.56" type="curve" smooth="yes"/>
			<point x="137.68" y="362.92"/>
			<point x="112.4" y="340.88"/>
			<point x="112.4" y="315.2" type="curve" smooth="yes"/>
			<point x="112.4" y="285.32"/>
			<point x="125.76" y="256.28"/>
		</contour>
		<contour>
			<point x="144.96" y="579.52" type="curve" smooth="yes"/>
			<point x="218.56" y="579.52"/>
			<point x="331.76" y="611.64"/>
			<point x="584.52" y="611.64" type="curve" smooth="yes"/>
			<point x="616.88" y="611.64"/>
			<point x="628.24" y="630.56"/>
			<point x="628.24" y="655.48" type="curve" smooth="yes"/>
			<point x="628.24" y="685.48"/>
			<point x="600.32" y="709.28"/>
			<point x="551.88" y="709.28" type="curve" smooth="yes"/>
			<point x="437.32" y="709.28"/>
			<point x="246.96" y="698.68"/>
			<point x="106.64" y="668.32" type="curve" smooth="yes"/>
			<point x="82.84" y="662.08"/>
			<point x="75.16" y="645.12"/>
			<point x="75.16" y="629.64" type="curve" smooth="yes"/>
			<point x="75.16" y="601.08"/>
			<point x="99.08" y="579.52"/>
		</contour>
	</outline>
</glyph>
<glyph name="F" format="2">
	<unicode hex="0046"/>
	<advance width="573"/>
	<outline>
		<contour>
			<point x="194.68" y="270" type="curve" smooth="yes"/>
			<point x="192.64" y="383.8"/>
			<point x="216.88" y="514"/>
			<point x="228.44" y="585.76" type="curve" smooth="yes"/>
			<point x="231.16" y="614.72"/>
			<point x="224.72" y="628.32"/>
			<point x="196.16" y="628.32" type="curve" smooth="yes"/>
			<point x="159.16" y="628.32"/>
			<point x="136.36" y="607.36"/>
			<point x="123.04" y="543.84" type="curve" smooth="yes"/>
			<point x="105.6" y="464.44"/>
			<point x="92.76" y="377.6"/>
			<point x="92.76" y="294" type="curve" smooth="yes"/>
			<point x="92.76" y="175"/>
			<point x="110.04" y="108.04"/>
			<point x="138.24" y="58.52" type="curve" smooth="yes"/>
			<point x="167.72" y="6.08"/>
			<point x="195.8" y="-10"/>
			<point x="225.64" y="-10" type="curve" smooth="yes"/>
			<point x="250.96" y="-10"/>
			<point x="261.24" y="4"/>
			<point x="261.24" y="26.48" type="curve" smooth="yes"/>
			<point x="261.24" y="64.2"/>
			<point x="198.08" y="101.12"/>
		</contour>
		<contour>
			<point x="488.96" y="610.8" type="curve" smooth="yes"/>
			<point x="521.96" y="610.8"/>
			<point x="532.96" y="621.36"/>
			<point x="532.96" y="645.4" type="curve" smooth="yes"/>
			<point x="532.96" y="684.12"/>
			<point x="497.24" y="709.72"/>
			<point x="446.36" y="711" type="curve" smooth="yes"/>
			<point x="327.36" y="712.92"/>
			<point x="166.4" y="689.24"/>
			<point x="69.4" y="667.32" type="curve" smooth="yes"/>
			<point x="43.28" y="661.04"/>
			<point x="34.36" y="644.56"/>
			<point x="34.36" y="626.64" type="curve" smooth="yes"/>
			<point x="34.36" y="601.04"/>
			<point x="59.32" y="574.32"/>
			<point x="107.36" y="574.32" type="curve" smooth="yes"/>
			<point x="151.36" y="574.32"/>
			<point x="276.64" y="610.8"/>
		</contour>
		<contour>
			<point x="195.72" y="263.96" type="curve" smooth="yes"/>
			<point x="247.72" y="275.24"/>
			<point x="312.44" y="282.68"/>
			<point x="402.44" y="288.72" type="curve" smooth="yes"/>
			<point x="461.68" y="293.08"/>
			<point x="499.76" y="311.72"/>
			<point x="499.76" y="355.4" type="curve"/>
			<point x="499.76" y="381.16"/>
			<point x="487.12" y="388.36"/>
			<point x="440.08" y="388.36" type="curve" smooth="yes"/>
			<point x="354.2" y="386.08"/>
			<point x="255" y="376.76"/>
			<point x="179" y="363.52" type="curve" smooth="yes"/>
			<point x="138.28" y="356.24"/>
			<point x="117.68" y="332.44"/>
			<point x="117.68" y="301.68" type="curve" smooth="yes"/>
			<point x="117.68" y="280.16"/>
			<point x="133.4" y="250.68"/>
		</contour>
	</outline>
</glyph>
<glyph name="G" format="2">
	<unicode hex="0047"/>
	<advance width="773"/>
	<outline>
		<contour>
			<point x="379.24" y="264.36" type="curve" smooth="yes"/>
			<point x="429.48" y="264.36"/>
			<point x="511.88" y="301.56"/>
			<point x="686.08" y="301.56" type="curve" smooth="yes"/>
			<point x="726.92" y="301.56"/>
			<point x="744.72" y="326.8"/>
			<point x="744.72" y="352.64" type="curve" smooth="yes"/>
			<point x="744.72" y="381.32"/>
			<point x="731.84" y="400.24"/>
			<point x="666.8" y="400.24" type="curve" smooth="yes"/>
			<point x="570.88" y="399.6"/>
			<point x="479.52" y="384.6"/>
			<point x="390" y="361.96" type="curve" smooth="yes"/>
			<point x="340" y="349.32"/>
			<point x="327" y="334"/>
			<point x="327" y="311.92" type="curve" smooth="yes"/>
			<point x="327" y="284.36"/>
			<point x="347.24" y="264.36"/>
		</contour>
		<contour>
			<point x="678.44" y="-100.84" type="curve" smooth="yes"/>
			<point x="696.64" y="-100.84"/>
			<point x="715.24" y="-88.96"/>
			<point x="715.24" y="-65.96" type="curve"/>
			<point x="715.24" y="-48.4"/>
			<point x="711.24" y="-33.96"/>
			<point x="693.32" y="6.24" type="curve" smooth="yes"/>
			<point x="660.32" y="77.32"/>
			<point x="641.48" y="163.32"/>
			<point x="641.48" y="294.44" type="curve" smooth="yes"/>
			<point x="641.48" y="328.04"/>
			<point x="623.04" y="348"/>
			<point x="591.48" y="348" type="curve" smooth="yes"/>
			<point x="555.32" y="348"/>
			<point x="539.96" y="335.68"/>
			<point x="522.44" y="300.08" type="curve" smooth="yes"/>
			<point x="457.76" y="160.64"/>
			<point x="380.48" y="90.84"/>
			<point x="286.8" y="90.84" type="curve" smooth="yes"/>
			<point x="214.76" y="90.84"/>
			<point x="165.32" y="141.28"/>
			<point x="165.32" y="242.44" type="curve" smooth="yes"/>
			<point x="165.32" y="409.56"/>
			<point x="330.04" y="601.04"/>
			<point x="480.68" y="601.04" type="curve" smooth="yes"/>
			<point x="503.08" y="601.04"/>
			<point x="509.76" y="592.04"/>
			<point x="509.76" y="579.36" type="curve" smooth="yes"/>
			<point x="509.76" y="554.84"/>
			<point x="500.44" y="516"/>
			<point x="531.16" y="516" type="curve" smooth="yes"/>
			<point x="573.24" y="516"/>
			<point x="606.28" y="562.3384615385"/>
			<point x="606.28" y="627.28" type="curve" smooth="yes"/>
			<point x="606.28" y="671.76"/>
			<point x="576.08" y="708"/>
			<point x="501.4" y="708" type="curve" smooth="yes"/>
			<point x="284.8" y="708"/>
			<point x="58.6" y="480.36"/>
			<point x="58.6" y="237.68" type="curve" smooth="yes"/>
			<point x="58.6" y="73.04"/>
			<point x="150.24" y="-10"/>
			<point x="283.4" y="-10" type="curve" smooth="yes"/>
			<point x="389.64" y="-10"/>
			<point x="497.04" y="44.56"/>
			<point x="572.84" y="235.6" type="curve"/>
			<point x="544.8" y="238.24" type="line"/>
			<point x="552.32" y="80.64"/>
			<point x="580.96" y="-4.88"/>
			<point x="601.92" y="-45.56" type="curve" smooth="yes"/>
			<point x="621.8" y="-84.52"/>
			<point x="643.84" y="-100.84"/>
		</contour>
	</outline>
</glyph>
<glyph name="H" format="2">
	<unicode hex="0048"/>
	<advance width="720"/>
	<outline>
		<contour>
			<point x="175.16" y="-12" type="curve" smooth="yes"/>
			<point x="198.12" y="-12"/>
			<point x="216.16" y="6.76"/>
			<point x="216.16" y="28.8" type="curve" smooth="yes"/>
			<point x="216.16" y="176.6"/>
			<point x="214.76" y="391.12"/>
			<point x="214.76" y="610" type="curve" smooth="yes"/>
			<point x="214.76" y="677"/>
			<point x="184.64" y="709"/>
			<point x="151.44" y="709" type="curve" smooth="yes"/>
			<point x="119.64" y="709"/>
			<point x="105.52" y="695.44"/>
			<point x="105.52" y="661.2" type="curve" smooth="yes"/>
			<point x="105.52" y="436.56"/>
			<point x="113.96" y="260.92"/>
			<point x="111.4" y="89.08" type="curve" smooth="yes"/>
			<point x="110.12" y="26"/>
			<point x="144.92" y="-12"/>
		</contour>
		<contour>
			<point x="590.44" y="-10" type="curve" smooth="yes"/>
			<point x="611.72" y="-10"/>
			<point x="625.64" y="9.48"/>
			<point x="621.56" y="36.84" type="curve" smooth="yes"/>
			<point x="612.72" y="116.8"/>
			<point x="603.56" y="176"/>
			<point x="602.56" y="233" type="curve" smooth="yes"/>
			<point x="601.56" y="326.88"/>
			<point x="608.56" y="475.2"/>
			<point x="608.56" y="594.8" type="curve" smooth="yes"/>
			<point x="608.56" y="666.56"/>
			<point x="581.24" y="704"/>
			<point x="547.8" y="704" type="curve" smooth="yes"/>
			<point x="526.72" y="704"/>
			<point x="507.64" y="691.08"/>
			<point x="507.64" y="661.6" type="curve" smooth="yes"/>
			<point x="507.64" y="574.6"/>
			<point x="498.08" y="443.6"/>
			<point x="498.08" y="304.6" type="curve" smooth="yes"/>
			<point x="498.08" y="78.52"/>
			<point x="521.64" y="-10"/>
		</contour>
		<contour>
			<point x="146.16" y="300.48" type="curve" smooth="yes"/>
			<point x="212.6" y="300.48"/>
			<point x="320.44" y="330.48"/>
			<point x="618.96" y="330.48" type="curve" smooth="yes"/>
			<point x="650.64" y="330.48"/>
			<point x="669.32" y="344.68"/>
			<point x="669.32" y="367.48" type="curve" smooth="yes"/>
			<point x="669.32" y="389.44"/>
			<point x="640.6" y="425.48"/>
			<point x="560.36" y="425.48" type="curve" smooth="yes"/>
			<point x="400.16" y="425.48"/>
			<point x="247.2" y="416"/>
			<point x="83.8" y="387.64" type="curve" smooth="yes"/>
			<point x="57.84" y="383.04"/>
			<point x="51.16" y="368.36"/>
			<point x="51.16" y="353.84" type="curve" smooth="yes"/>
			<point x="51.16" y="327.64"/>
			<point x="84.68" y="300.48"/>
		</contour>
	</outline>
</glyph>
<glyph name="I" format="2">
	<unicode hex="0049"/>
	<advance width="608"/>
	<outline>
		<contour>
			<point x="107.6" y="-11" type="curve" smooth="yes"/>
			<point x="170.2018604651" y="-11"/>
			<point x="315.1614985591" y="0"/>
			<point x="490.6" y="0" type="curve" smooth="yes"/>
			<point x="558.4464864865" y="0"/>
			<point x="587.2" y="26.6338461538"/>
			<point x="587.2" y="58.56" type="curve" smooth="yes"/>
			<point x="587.2" y="80.6"/>
			<point x="573.72" y="97.36"/>
			<point x="515.6" y="97.36" type="curve" smooth="yes"/>
			<point x="340.84" y="97.36"/>
			<point x="215.08" y="102.08"/>
			<point x="63.52" y="81.64" type="curve" smooth="yes"/>
			<point x="37.04" y="78.36"/>
			<point x="26.2" y="62.24"/>
			<point x="26.2" y="41.76" type="curve" smooth="yes"/>
			<point x="26.2" y="10.872"/>
			<point x="49.7565048544" y="-11"/>
		</contour>
		<contour>
			<point x="83.32" y="581" type="curve" smooth="yes"/>
			<point x="168.88" y="581"/>
			<point x="220.32" y="604.44"/>
			<point x="462.4" y="604.44" type="curve" smooth="yes"/>
			<point x="527.6" y="604.44"/>
			<point x="572.2" y="628.76"/>
			<point x="572.2" y="667.64" type="curve" smooth="yes"/>
			<point x="572.2" y="698.72"/>
			<point x="556.44" y="706.6"/>
			<point x="504.56" y="706.6" type="curve" smooth="yes"/>
			<point x="364.16" y="706.6"/>
			<point x="194.88" y="695.56"/>
			<point x="80.96" y="677.24" type="curve" smooth="yes"/>
			<point x="43.56" y="670.92"/>
			<point x="26.28" y="651.08"/>
			<point x="26.28" y="628.52" type="curve" smooth="yes"/>
			<point x="26.28" y="600.92"/>
			<point x="45.12" y="581"/>
		</contour>
		<contour>
			<point x="311.84" y="65.6" type="curve" smooth="yes"/>
			<point x="335.16" y="65.6"/>
			<point x="348.64" y="79.08"/>
			<point x="348.64" y="107.4" type="curve" smooth="yes"/>
			<point x="348.64" y="312.04"/>
			<point x="365.64" y="477.12"/>
			<point x="365.64" y="563" type="curve" smooth="yes"/>
			<point x="365.64" y="605.52"/>
			<point x="337.2666666666" y="639.4"/>
			<point x="302.52" y="639.4" type="curve" smooth="yes"/>
			<point x="273.28" y="639.4"/>
			<point x="264.08" y="621.24"/>
			<point x="264.08" y="585.6" type="curve" smooth="yes"/>
			<point x="264.08" y="467.56"/>
			<point x="247.72" y="305.92"/>
			<point x="247.72" y="142.6" type="curve" smooth="yes"/>
			<point x="247.72" y="95.6"/>
			<point x="272.9217391304" y="65.6"/>
		</contour>
	</outline>
</glyph>
<glyph name="J" format="2">
	<unicode hex="004A"/>
	<advance width="607"/>
	<outline>
		<contour>
			<point x="285.08" y="-12" type="curve" smooth="yes"/>
			<point x="447.88" y="-12"/>
			<point x="535.28" y="55.76"/>
			<point x="535.28" y="205.2" type="curve" smooth="yes"/>
			<point x="535.28" y="311.52"/>
			<point x="494.24" y="497.92"/>
			<point x="451.72" y="612.08" type="curve" smooth="yes"/>
			<point x="434.52" y="660.08"/>
			<point x="411.2" y="675.36"/>
			<point x="364.08" y="676" type="curve" smooth="yes"/>
			<point x="335.52" y="676"/>
			<point x="327.92" y="644"/>
			<point x="340.56" y="612.44" type="curve" smooth="yes"/>
			<point x="386.36" y="501.76"/>
			<point x="432.08" y="315.2"/>
			<point x="432.08" y="217.6" type="curve" smooth="yes"/>
			<point x="432.08" y="128.36"/>
			<point x="395.92" y="87.56"/>
			<point x="285.08" y="87.56" type="curve" smooth="yes"/>
			<point x="197.48" y="87.56"/>
			<point x="163.2" y="127.24"/>
			<point x="163.2" y="182.92" type="curve" smooth="yes"/>
			<point x="163.2" y="222.44"/>
			<point x="193.28" y="240.32"/>
			<point x="193.28" y="267.92" type="curve" smooth="yes"/>
			<point x="193.28" y="287.44"/>
			<point x="182.4" y="296.68"/>
			<point x="162.32" y="296.68" type="curve" smooth="yes"/>
			<point x="107.64" y="296.68"/>
			<point x="62.88" y="224.52"/>
			<point x="62.88" y="164.2" type="curve" smooth="yes"/>
			<point x="62.88" y="54.28"/>
			<point x="153.56" y="-12"/>
		</contour>
		<contour>
			<point x="169.64" y="599.44" type="curve" smooth="yes"/>
			<point x="249.64" y="599.44"/>
			<point x="375.96" y="613.36"/>
			<point x="506.28" y="613.36" type="curve" smooth="yes"/>
			<point x="543.44" y="613.36"/>
			<point x="562.68" y="627.56"/>
			<point x="562.68" y="652.96" type="curve" smooth="yes"/>
			<point x="562.68" y="701.16"/>
			<point x="518.2" y="712"/>
			<point x="478.28" y="712" type="curve" smooth="yes"/>
			<point x="347" y="712"/>
			<point x="280.36" y="700"/>
			<point x="185.92" y="700" type="curve" smooth="yes"/>
			<point x="144.92" y="700"/>
			<point x="128.04" y="713"/>
			<point x="94" y="713" type="curve" smooth="yes"/>
			<point x="71.52" y="713"/>
			<point x="58.96" y="699.16"/>
			<point x="58.96" y="677.4" type="curve" smooth="yes"/>
			<point x="58.96" y="620.84"/>
			<point x="124.04" y="599.44"/>
		</contour>
	</outline>
</glyph>
<glyph name="K" format="2">
	<unicode hex="004B"/>
	<advance width="668"/>
	<outline>
		<contour>
			<point x="152.28" y="-11" type="curve" smooth="yes"/>
			<point x="173.4" y="-11"/>
			<point x="186.6" y="2.56"/>
			<point x="186.6" y="25.4" type="curve" smooth="yes"/>
			<point x="186.6" y="77.48"/>
			<point x="174.6" y="86.28"/>
			<point x="174.6" y="214.76" type="curve" smooth="yes"/>
			<point x="174.6" y="332"/>
			<point x="198.96" y="467"/>
			<point x="198.96" y="552" type="curve" smooth="yes"/>
			<point x="198.96" y="617"/>
			<point x="190.08" y="710"/>
			<point x="123.28" y="710" type="curve" smooth="yes"/>
			<point x="99" y="710"/>
			<point x="86.04" y="696.48"/>
			<point x="86.04" y="669.6" type="curve" smooth="yes"/>
			<point x="86.04" y="634.12"/>
			<point x="97.4" y="614.48"/>
			<point x="97.4" y="551.36" type="curve" smooth="yes"/>
			<point x="97.4" y="483.36"/>
			<point x="74.04" y="345.68"/>
			<point x="74.04" y="187" type="curve" smooth="yes"/>
			<point x="74.04" y="41"/>
			<point x="92.48" y="-11"/>
		</contour>
		<contour>
			<point x="591.24" y="-11" type="curve" smooth="yes"/>
			<point x="623.47" y="-11"/>
			<point x="636.2" y="5.2752941176"/>
			<point x="636.2" y="32.56" type="curve" smooth="yes"/>
			<point x="636.2" y="62.7668686869"/>
			<point x="614.88" y="83"/>
			<point x="576.92" y="90.88" type="curve" smooth="yes"/>
			<point x="379.6" y="128.8"/>
			<point x="260.2" y="236.7279503106"/>
			<point x="260.2" y="312.92" type="curve" smooth="yes"/>
			<point x="260.2" y="372.16"/>
			<point x="358.32" y="500.24"/>
			<point x="516.72" y="590.32" type="curve" smooth="yes"/>
			<point x="558.8" y="614.16"/>
			<point x="577.28" y="631.72"/>
			<point x="577.28" y="663.36" type="curve" smooth="yes"/>
			<point x="577.28" y="693.16"/>
			<point x="558.64" y="707.56"/>
			<point x="531.36" y="707.56" type="curve" smooth="yes"/>
			<point x="510.04" y="707.56"/>
			<point x="486.12" y="697.56"/>
			<point x="447.96" y="672.48" type="curve" smooth="yes"/>
			<point x="305.32" y="582.56"/>
			<point x="168.2" y="440.32"/>
			<point x="168.2" y="302.88" type="curve" smooth="yes"/>
			<point x="168.2" y="106.08"/>
			<point x="472.8" y="-11"/>
		</contour>
	</outline>
</glyph>
<glyph name="L" format="2">
	<unicode hex="004C"/>
	<advance width="546"/>
	<outline>
		<contour>
			<point x="287.28" y="-9" type="curve" smooth="yes"/>
			<point x="362.7651502146" y="-9"/>
			<point x="434.5560677098" y="6.1223954394"/>
			<point x="490.04" y="37.24" type="curve" smooth="yes"/>
			<point x="512.8" y="52.28"/>
			<point x="524.44" y="75.64"/>
			<point x="524.44" y="99.96" type="curve" smooth="yes"/>
			<point x="524.44" y="122.04"/>
			<point x="510.6" y="139.72"/>
			<point x="488.8" y="139.72" type="curve" smooth="yes"/>
			<point x="456.1428571428" y="139.72"/>
			<point x="420.48" y="90.56"/>
			<point x="291.56" y="90.56" type="curve" smooth="yes"/>
			<point x="201" y="90.56"/>
			<point x="165.76" y="147.6"/>
			<point x="165.76" y="240.8" type="curve" smooth="yes"/>
			<point x="165.76" y="365.08"/>
			<point x="216.4" y="487.24"/>
			<point x="216.4" y="620.32" type="curve" smooth="yes"/>
			<point x="216.4" y="671.48"/>
			<point x="195.8226086957" y="710"/>
			<point x="154.6" y="710" type="curve" smooth="yes"/>
			<point x="122.4019047619" y="710"/>
			<point x="115.48" y="688.84"/>
			<point x="115.48" y="651.6" type="curve" smooth="yes"/>
			<point x="115.48" y="526.2"/>
			<point x="64.48" y="406.3577833753"/>
			<point x="64.48" y="251" type="curve" smooth="yes"/>
			<point x="64.48" y="83"/>
			<point x="142.6757894737" y="-9"/>
		</contour>
	</outline>
</glyph>
<glyph name="M" format="2">
	<unicode hex="004D"/>
	<advance width="958"/>
	<outline>
		<contour>
			<point x="205.4" y="497.48" type="curve" smooth="yes"/>
			<point x="212.12" y="390.84"/>
			<point x="166.28" y="381.76"/>
			<point x="185.52" y="490.8" type="curve" smooth="yes"/>
			<point x="211.4" y="634.48"/>
			<point x="253.12" y="709"/>
			<point x="308.56" y="709" type="curve" smooth="yes"/>
			<point x="380.8" y="709"/>
			<point x="418.2" y="578.32"/>
			<point x="453" y="296.32" type="curve" smooth="yes"/>
			<point x="458.6" y="256.4"/>
			<point x="466.2" y="188.64"/>
			<point x="495.64" y="119.88" type="curve" smooth="yes"/>
			<point x="511.04" y="85.6"/>
			<point x="439.2" y="81.76"/>
			<point x="467.84" y="137.76" type="curve" smooth="yes"/>
			<point x="529.96" y="252.2"/>
			<point x="557.6" y="454.96"/>
			<point x="598.84" y="563.92" type="curve" smooth="yes"/>
			<point x="633.68" y="656.08"/>
			<point x="666.88" y="707.48"/>
			<point x="714.12" y="707.48" type="curve" smooth="yes"/>
			<point x="762.48" y="707.48"/>
			<point x="825.6" y="670.48"/>
			<point x="835.24" y="453.68" type="curve" smooth="yes"/>
			<point x="840.6" y="325.16"/>
			<point x="865.36" y="174.68"/>
			<point x="906.44" y="61.08" type="curve" smooth="yes"/>
			<point x="921.08" y="18.72"/>
			<point x="909" y="-9"/>
			<point x="875.76" y="-9" type="curve" smooth="yes"/>
			<point x="843.24" y="-9"/>
			<point x="817.16" y="9.28"/>
			<point x="791.32" y="65.96" type="curve" smooth="yes"/>
			<point x="754.88" y="145.72"/>
			<point x="737.16" y="308.36"/>
			<point x="730.24" y="423.32" type="curve" smooth="yes"/>
			<point x="725.92" y="502.12"/>
			<point x="714.2" y="548.08"/>
			<point x="688.56" y="593.08" type="curve" smooth="yes"/>
			<point x="663.88" y="635.2"/>
			<point x="781.48" y="652.16"/>
			<point x="720.68" y="578.32" type="curve" smooth="yes"/>
			<point x="653.16" y="495.04"/>
			<point x="639.52" y="258.52"/>
			<point x="535.88" y="31.08" type="curve" smooth="yes"/>
			<point x="523.92" y="4.28"/>
			<point x="507.6" y="-9"/>
			<point x="483.6" y="-9" type="curve" smooth="yes"/>
			<point x="463.6" y="-9"/>
			<point x="444.2" y="2"/>
			<point x="427.84" y="27.08" type="curve" smooth="yes"/>
			<point x="385.16" y="93.96"/>
			<point x="360.88" y="217.72"/>
			<point x="344.16" y="349.96" type="curve" smooth="yes"/>
			<point x="333.8" y="439.92"/>
			<point x="318.32" y="513.56"/>
			<point x="293.96" y="581.4" type="curve" smooth="yes"/>
			<point x="267.28" y="659.52"/>
			<point x="346.88" y="669.12"/>
			<point x="301.96" y="581.8" type="curve" smooth="yes"/>
			<point x="247.4" y="466.08"/>
			<point x="208" y="267.96"/>
			<point x="208" y="29.44" type="curve" smooth="yes"/>
			<point x="208" y="2"/>
			<point x="191.2" y="-12"/>
			<point x="172.64" y="-12" type="curve" smooth="yes"/>
			<point x="119.6" y="-12"/>
			<point x="98.28" y="48.92"/>
			<point x="98.28" y="171.6" type="curve" smooth="yes"/>
			<point x="98.28" y="272.16"/>
			<point x="107.64" y="347.24"/>
			<point x="107.64" y="422.16" type="curve" smooth="yes"/>
			<point x="107.64" y="551.08"/>
			<point x="80.68" y="588.56"/>
			<point x="80.68" y="625.2" type="curve" smooth="yes"/>
			<point x="80.68" y="642.52"/>
			<point x="90.64" y="655.68"/>
			<point x="113.08" y="655.68" type="curve" smooth="yes"/>
			<point x="167.04" y="655.68"/>
			<point x="201.32" y="583.32"/>
		</contour>
	</outline>
</glyph>
<glyph name="N" format="2">
	<unicode hex="004E"/>
	<advance width="779"/>
	<outline>
		<contour>
			<point x="126.6" y="-11.2" type="curve" smooth="yes"/>
			<point x="154.2" y="-11.2"/>
			<point x="171.68" y="6.72"/>
			<point x="178.96" y="32.84" type="curve" smooth="yes"/>
			<point x="204.4" y="114"/>
			<point x="215.4" y="217"/>
			<point x="215.4" y="342" type="curve" smooth="yes"/>
			<point x="215.4" y="411.04"/>
			<point x="211.36" y="484.6"/>
			<point x="199" y="592.04" type="curve"/>
			<point x="181.6" y="587.4" type="line"/>
			<point x="359.8381411224" y="412.6924365791"/>
			<point x="389.3648514852" y="-12.24"/>
			<point x="576.6" y="-12.24" type="curve" smooth="yes"/>
			<point x="671.24" y="-12.24"/>
			<point x="686.8" y="94.6369465649"/>
			<point x="686.8" y="242" type="curve" smooth="yes"/>
			<point x="686.8" y="391"/>
			<point x="669.88" y="493.84"/>
			<point x="695.88" y="622.84" type="curve" smooth="yes"/>
			<point x="703.5086025188" y="661.7055453675"/>
			<point x="689.4934653465" y="708.2"/>
			<point x="645.68" y="708.2" type="curve" smooth="yes"/>
			<point x="619.5083870968" y="708.2"/>
			<point x="604.114224895" y="692.7734770905"/>
			<point x="596.12" y="658.4" type="curve" smooth="yes"/>
			<point x="565.92" y="531.28"/>
			<point x="587.36" y="392.08"/>
			<point x="587.36" y="233.8" type="curve" smooth="yes"/>
			<point x="587.36" y="142.3005847953"/>
			<point x="571.44" y="105.8"/>
			<point x="544.36" y="72" type="curve"/>
			<point x="591.68" y="94.88" type="line"/>
			<point x="452.16" y="120.4"/>
			<point x="367.44" y="710"/>
			<point x="156" y="710" type="curve" smooth="yes"/>
			<point x="117.6" y="710"/>
			<point x="97.4" y="678"/>
			<point x="97.4" y="638" type="curve" smooth="yes"/>
			<point x="97.4" y="605"/>
			<point x="113.4" y="457"/>
			<point x="113.4" y="342" type="curve" smooth="yes"/>
			<point x="113.4" y="137.76"/>
			<point x="78.52" y="97.92"/>
			<point x="78.52" y="43.96" type="curve" smooth="yes"/>
			<point x="78.52" y="6.88"/>
			<point x="95.8" y="-11.2"/>
		</contour>
	</outline>
</glyph>
<glyph name="O" format="2">
	<unicode hex="004F"/>
	<advance width="739"/>
	<outline>
		<contour>
			<point x="296.48" y="539.48" type="curve" smooth="yes"/>
			<point x="231.72" y="492.68"/>
			<point x="165.6" y="417.4"/>
			<point x="165.6" y="290" type="curve" smooth="yes"/>
			<point x="165.6" y="180.2"/>
			<point x="230.28" y="90.56"/>
			<point x="353.4" y="90.56" type="curve" smooth="yes"/>
			<point x="477.28" y="90.56"/>
			<point x="573.2" y="174.36"/>
			<point x="573.2" y="300" type="curve" smooth="yes"/>
			<point x="573.2" y="442.48"/>
			<point x="496.96" y="611.44"/>
			<point x="367.4" y="611.44" type="curve" smooth="yes"/>
			<point x="340.72" y="611.44"/>
			<point x="332.28" y="588.52"/>
			<point x="332.28" y="558.88" type="curve" smooth="yes"/>
			<point x="332.28" y="528.88"/>
			<point x="315.28" y="513.88"/>
			<point x="297.28" y="513.88" type="curve" smooth="yes"/>
			<point x="267.76" y="513.88"/>
			<point x="237.24" y="539.48"/>
			<point x="237.24" y="588.32" type="curve" smooth="yes"/>
			<point x="237.24" y="652.84"/>
			<point x="281.72" y="711"/>
			<point x="360.4" y="711" type="curve" smooth="yes"/>
			<point x="554.48" y="711"/>
			<point x="675.2" y="515.44"/>
			<point x="675.2" y="300" type="curve" smooth="yes"/>
			<point x="675.2" y="128.28"/>
			<point x="539.8" y="-10"/>
			<point x="353.4" y="-10" type="curve" smooth="yes"/>
			<point x="175.28" y="-10"/>
			<point x="63.6" y="124.28"/>
			<point x="63.6" y="290" type="curve" smooth="yes"/>
			<point x="63.6" y="509.08"/>
			<point x="241.8" y="636.36"/>
			<point x="278.36" y="636.36" type="curve" smooth="yes"/>
			<point x="289.56" y="636.36"/>
			<point x="305.56" y="631.48"/>
			<point x="316.84" y="616.88" type="curve" smooth="yes"/>
			<point x="335.76" y="590.28"/>
			<point x="324.44" y="558.72"/>
		</contour>
	</outline>
</glyph>
<glyph name="P" format="2">
	<unicode hex="0050"/>
	<advance width="597"/>
	<outline>
		<contour>
			<point x="119.44" y="75.16" type="curve" smooth="yes"/>
			<point x="119.44" y="15.04"/>
			<point x="144.32" y="-10"/>
			<point x="179.96" y="-10" type="curve" smooth="yes"/>
			<point x="209.92" y="-10"/>
			<point x="221.96" y="13.92"/>
			<point x="221.96" y="58.6" type="curve" smooth="yes"/>
			<point x="221.96" y="245.48"/>
			<point x="163.68" y="349"/>
			<point x="163.68" y="466" type="curve" smooth="yes"/>
			<point x="163.68" y="557.96"/>
			<point x="214.12" y="607.8"/>
			<point x="314" y="607.8" type="curve" smooth="yes"/>
			<point x="384.84" y="607.8"/>
			<point x="450.96" y="565.64"/>
			<point x="450.96" y="480" type="curve" smooth="yes"/>
			<point x="450.96" y="398.28"/>
			<point x="371.24" y="320.8"/>
			<point x="264.96" y="320.8" type="curve" smooth="yes"/>
			<point x="206.6" y="320.8"/>
			<point x="194.6" y="338.8"/>
			<point x="168.24" y="338.8" type="curve" smooth="yes"/>
			<point x="149.56" y="338.8"/>
			<point x="135.16" y="326.32"/>
			<point x="135.16" y="303" type="curve" smooth="yes"/>
			<point x="135.16" y="260.48"/>
			<point x="191.56" y="220.6"/>
			<point x="269.24" y="220.6" type="curve" smooth="yes"/>
			<point x="431.36" y="220.6"/>
			<point x="551.88" y="350.72"/>
			<point x="551.88" y="480" type="curve" smooth="yes"/>
			<point x="551.88" y="625"/>
			<point x="444.76" y="708"/>
			<point x="314.36" y="708" type="curve" smooth="yes"/>
			<point x="135.24" y="708"/>
			<point x="62.76" y="610.64"/>
			<point x="62.76" y="466" type="curve" smooth="yes"/>
			<point x="62.76" y="343.96"/>
			<point x="119.44" y="248.44"/>
		</contour>
	</outline>
</glyph>
<glyph name="Q" format="2">
	<unicode hex="0051"/>
	<advance width="731"/>
	<outline>
		<contour>
			<point x="458.6" y="271.96" type="curve" smooth="yes"/>
			<point x="487.96" y="230.2"/>
			<point x="547.08" y="77.84"/>
			<point x="635" y="-33.24" type="curve" smooth="yes"/>
			<point x="670.28" y="-77.72"/>
			<point x="654.52" y="-124.48"/>
			<point x="626.52" y="-124.48" type="curve" smooth="yes"/>
			<point x="601.32" y="-124.48"/>
			<point x="582.8" y="-116.2"/>
			<point x="551.52" y="-82.28" type="curve" smooth="yes"/>
			<point x="481.36" y="-6.84"/>
			<point x="413.32" y="169.72"/>
			<point x="357.08" y="250.32" type="curve" smooth="yes"/>
			<point x="326" y="293.64"/>
			<point x="332.12" y="328.32"/>
			<point x="369.36" y="328.32" type="curve" smooth="yes"/>
			<point x="411.48" y="328.32"/>
			<point x="430.2" y="312.12"/>
		</contour>
		<contour>
			<point x="251.92" y="554.2" type="curve" smooth="yes"/>
			<point x="192.56" y="507.96"/>
			<point x="159.08" y="403.56"/>
			<point x="159.08" y="313" type="curve" smooth="yes"/>
			<point x="159.08" y="197.56"/>
			<point x="215.24" y="91.2"/>
			<point x="368" y="91.2" type="curve" smooth="yes"/>
			<point x="492.4" y="91.2"/>
			<point x="569.64" y="200.92"/>
			<point x="569.64" y="315" type="curve" smooth="yes"/>
			<point x="569.64" y="460.32"/>
			<point x="502.92" y="605.6"/>
			<point x="392" y="605.6" type="curve" smooth="yes"/>
			<point x="341.56" y="605.6"/>
			<point x="288.64" y="566.64"/>
			<point x="253.4" y="498.52" type="curve" smooth="yes"/>
			<point x="237.4" y="467.52"/>
			<point x="222.4" y="457.52"/>
			<point x="199.4" y="457.52" type="curve" smooth="yes"/>
			<point x="176.68" y="457.52"/>
			<point x="164.64" y="471.32"/>
			<point x="164.64" y="498.36" type="curve" smooth="yes"/>
			<point x="164.64" y="587.68"/>
			<point x="285.32" y="709"/>
			<point x="407" y="709" type="curve" smooth="yes"/>
			<point x="550.24" y="709"/>
			<point x="671.2" y="546"/>
			<point x="671.2" y="327" type="curve" smooth="yes"/>
			<point x="671.2" y="147.84"/>
			<point x="558.52" y="-9"/>
			<point x="368" y="-9" type="curve" smooth="yes"/>
			<point x="140.92" y="-9"/>
			<point x="58.8" y="144"/>
			<point x="58.8" y="313" type="curve" smooth="yes"/>
			<point x="58.8" y="524.56"/>
			<point x="190.04" y="654.64"/>
			<point x="247.4" y="654.64" type="curve" smooth="yes"/>
			<point x="275.52" y="654.64"/>
			<point x="299.52" y="631.96"/>
			<point x="299.52" y="609.36" type="curve" smooth="yes"/>
			<point x="299.52" y="589.16"/>
			<point x="285.68" y="579.96"/>
		</contour>
	</outline>
</glyph>
<glyph name="R" format="2">
	<unicode hex="0052"/>
	<advance width="718"/>
	<outline>
		<contour>
			<point x="101.48" y="645.08" type="curve" smooth="yes"/>
			<point x="63.16" y="645.08"/>
			<point x="54.04" y="619.72"/>
			<point x="69.76" y="575.76" type="curve" smooth="yes"/>
			<point x="99.8" y="491.72"/>
			<point x="111.52" y="441.04"/>
			<point x="113.96" y="368.76" type="curve"/>
			<point x="78.96" y="261.76"/>
			<point x="62.96" y="179.08"/>
			<point x="62.96" y="112.4" type="curve" smooth="yes"/>
			<point x="62.96" y="30.32"/>
			<point x="93.76" y="-13"/>
			<point x="133.84" y="-13" type="curve" smooth="yes"/>
			<point x="159.88" y="-13"/>
			<point x="167.72" y="-2.44"/>
			<point x="167.72" y="60.32" type="curve" smooth="yes"/>
			<point x="167.72" y="383.32"/>
			<point x="324.64" y="609.8"/>
			<point x="471.96" y="609.8" type="curve" smooth="yes"/>
			<point x="525.76" y="609.8"/>
			<point x="546.4" y="577.92"/>
			<point x="546.4" y="538.36" type="curve" smooth="yes"/>
			<point x="546.4" y="469.16"/>
			<point x="468.12" y="371.68"/>
			<point x="224.96" y="294.44" type="curve" smooth="yes"/>
			<point x="183.24" y="281"/>
			<point x="173.68" y="238.36"/>
			<point x="196.68" y="207.36" type="curve" smooth="yes"/>
			<point x="275.68" y="105.36"/>
			<point x="526.32" y="-12"/>
			<point x="600.64" y="-12" type="curve" smooth="yes"/>
			<point x="647.36" y="-12"/>
			<point x="672.8" y="7.88"/>
			<point x="672.8" y="39.48" type="curve" smooth="yes"/>
			<point x="672.8" y="59.6"/>
			<point x="656.4" y="73.16"/>
			<point x="606" y="88.16" type="curve" smooth="yes"/>
			<point x="487.04" y="125.56"/>
			<point x="382" y="180.76"/>
			<point x="315.28" y="232.32" type="curve"/>
			<point x="568.48" y="320.68"/>
			<point x="649.68" y="434"/>
			<point x="649.68" y="541.92" type="curve" smooth="yes"/>
			<point x="649.68" y="636.12"/>
			<point x="599.72" y="710"/>
			<point x="481.92" y="710" type="curve" smooth="yes"/>
			<point x="358.8" y="710"/>
			<point x="247.76" y="636.68"/>
			<point x="174.92" y="475.72" type="curve"/>
			<point x="198.6" y="481.84" type="line"/>
			<point x="184.48" y="601.64"/>
			<point x="150.52" y="645.08"/>
		</contour>
	</outline>
</glyph>
<glyph name="S" format="2">
	<unicode hex="0053"/>
	<advance width="574"/>
	<outline>
		<contour>
			<point x="194" y="-9" type="curve" smooth="yes"/>
			<point x="372.9175510204" y="-9"/>
			<point x="515.2" y="39.2"/>
			<point x="515.2" y="140.12" type="curve" smooth="yes"/>
			<point x="515.2" y="310.5628571428"/>
			<point x="164.8" y="329.3648979592"/>
			<point x="164.8" y="428.56" type="curve" smooth="yes"/>
			<point x="164.8" y="500.8876712329"/>
			<point x="276.0136745715" y="572.2710507497"/>
			<point x="465.72" y="609.92" type="curve" smooth="yes"/>
			<point x="498.8756017597" y="616.0064730472"/>
			<point x="513.6" y="633.0378947369"/>
			<point x="513.6" y="657.16" type="curve" smooth="yes"/>
			<point x="513.6" y="686.865"/>
			<point x="496.6863157895" y="710"/>
			<point x="453.64" y="710" type="curve" smooth="yes"/>
			<point x="330.3451629073" y="710"/>
			<point x="60.6" y="596.36"/>
			<point x="60.6" y="427.8" type="curve" smooth="yes"/>
			<point x="60.6" y="250.2"/>
			<point x="385.52" y="242.12"/>
			<point x="409" y="137.32" type="curve"/>
			<point x="366.04" y="107.96"/>
			<point x="294.48" y="90.68"/>
			<point x="181.84" y="90.68" type="curve" smooth="yes"/>
			<point x="126.56" y="90.68"/>
			<point x="115.36" y="106.12"/>
			<point x="84.8" y="106.12" type="curve" smooth="yes"/>
			<point x="57.76" y="106.12"/>
			<point x="48.44" y="93.28"/>
			<point x="48.44" y="71.2" type="curve" smooth="yes"/>
			<point x="48.44" y="27.72"/>
			<point x="97.51" y="-9"/>
		</contour>
	</outline>
</glyph>
<glyph name="T" format="2">
	<unicode hex="0054"/>
	<advance width="642"/>
	<outline>
		<contour>
			<point x="266.84" y="600.64" type="curve" smooth="yes"/>
			<point x="242.84" y="318.64"/>
			<point x="250.04" y="178"/>
			<point x="265.44" y="87.72" type="curve" smooth="yes"/>
			<point x="278.92" y="9"/>
			<point x="307.6" y="-13"/>
			<point x="340.2" y="-13" type="curve" smooth="yes"/>
			<point x="363.52" y="-13"/>
			<point x="377.72" y="-2.8"/>
			<point x="377.72" y="25.8" type="curve" smooth="yes"/>
			<point x="377.72" y="67.52"/>
			<point x="342.28" y="167"/>
			<point x="365.64" y="534.4" type="curve" smooth="yes"/>
			<point x="370.64" y="622.4"/>
			<point x="357.24" y="653.6"/>
			<point x="309.6" y="653.6" type="curve" smooth="yes"/>
			<point x="284.92" y="653.6"/>
			<point x="269.16" y="631.76"/>
		</contour>
		<contour>
			<point x="127.28" y="608.28" type="curve" smooth="yes"/>
			<point x="249.84" y="602.04"/>
			<point x="334.12" y="601.36"/>
			<point x="481" y="601.36" type="curve" smooth="yes"/>
			<point x="546.28" y="601.36"/>
			<point x="613.2" y="623.12"/>
			<point x="613.2" y="673.48" type="curve" smooth="yes"/>
			<point x="613.2" y="695.52"/>
			<point x="600" y="711"/>
			<point x="571.6" y="711" type="curve" smooth="yes"/>
			<point x="523.96" y="711"/>
			<point x="501.48" y="700"/>
			<point x="417.76" y="700" type="curve" smooth="yes"/>
			<point x="296.52" y="700"/>
			<point x="220.36" y="707.28"/>
			<point x="72" y="707.28" type="curve" smooth="yes"/>
			<point x="40.8" y="707.28"/>
			<point x="28.52" y="692.52"/>
			<point x="28.52" y="674.12" type="curve" smooth="yes"/>
			<point x="28.52" y="638.3181818182"/>
			<point x="47.36" y="612.2"/>
		</contour>
	</outline>
</glyph>
<glyph name="U" format="2">
	<unicode hex="0055"/>
	<advance width="659"/>
	<outline>
		<contour>
			<point x="353.88" y="-13" type="curve" smooth="yes"/>
			<point x="522.76" y="-13"/>
			<point x="599.24" y="114"/>
			<point x="599.24" y="298" type="curve" smooth="yes"/>
			<point x="599.24" y="374.52"/>
			<point x="592.96" y="443.24"/>
			<point x="592.96" y="513.88" type="curve" smooth="yes"/>
			<point x="592.96" y="599.44"/>
			<point x="604" y="639.96"/>
			<point x="604" y="669.28" type="curve" smooth="yes"/>
			<point x="604" y="697.36"/>
			<point x="584.08" y="712"/>
			<point x="560.4" y="712" type="curve" smooth="yes"/>
			<point x="516.76" y="712"/>
			<point x="488.4" y="675.68"/>
			<point x="488.4" y="615" type="curve" smooth="yes"/>
			<point x="488.4" y="498"/>
			<point x="496.4" y="429"/>
			<point x="496.4" y="305" type="curve" smooth="yes"/>
			<point x="496.4" y="153.12"/>
			<point x="450.88" y="88.84"/>
			<point x="346.88" y="88.84" type="curve" smooth="yes"/>
			<point x="248.84" y="88.84"/>
			<point x="179.84" y="147.76"/>
			<point x="179.84" y="336.76" type="curve" smooth="yes"/>
			<point x="179.84" y="395.68"/>
			<point x="187.48" y="471.44"/>
			<point x="187.48" y="526.32" type="curve" smooth="yes"/>
			<point x="187.48" y="667.08"/>
			<point x="148.4" y="713.28"/>
			<point x="106.92" y="713.28" type="curve" smooth="yes"/>
			<point x="83.44" y="713.28"/>
			<point x="58.68" y="702.6"/>
			<point x="58.68" y="674.08" type="curve" smooth="yes"/>
			<point x="58.68" y="624.56"/>
			<point x="81.08" y="612.24"/>
			<point x="81.08" y="489" type="curve" smooth="yes"/>
			<point x="81.08" y="451.32"/>
			<point x="76.08" y="392.92"/>
			<point x="76.08" y="338.6" type="curve" smooth="yes"/>
			<point x="76.08" y="126.96"/>
			<point x="157.96" y="-13"/>
		</contour>
	</outline>
</glyph>
<glyph name="V" format="2">
	<unicode hex="0056"/>
	<advance width="673"/>
	<outline>
		<contour>
			<point x="345.2" y="-11.32" type="curve" smooth="yes"/>
			<point x="371.6" y="-11.32"/>
			<point x="385.48" y="4.08"/>
			<point x="399.44" y="55.72" type="curve" smooth="yes"/>
			<point x="456.44" y="263.04"/>
			<point x="514.96" y="385.88"/>
			<point x="625.92" y="574.04" type="curve" smooth="yes"/>
			<point x="646.64" y="608.92"/>
			<point x="654.36" y="627.76"/>
			<point x="654.36" y="659.04" type="curve" smooth="yes"/>
			<point x="654.36" y="687.76"/>
			<point x="639.36" y="710.92"/>
			<point x="612.2" y="710.92" type="curve" smooth="yes"/>
			<point x="590.72" y="710.92"/>
			<point x="578.64" y="704.92"/>
			<point x="539.16" y="643.88" type="curve" smooth="yes"/>
			<point x="437.12" y="484.96"/>
			<point x="365.04" y="310.24"/>
			<point x="311.52" y="102.8" type="curve"/>
			<point x="341.88" y="126.44" type="line"/>
			<point x="245.08" y="274.44"/>
			<point x="237.88" y="505.2"/>
			<point x="154.72" y="641.12" type="curve" smooth="yes"/>
			<point x="126.08" y="690.08"/>
			<point x="102.8" y="707.92"/>
			<point x="73.16" y="707.92" type="curve" smooth="yes"/>
			<point x="44.76" y="707.92"/>
			<point x="31.68" y="688.68"/>
			<point x="31.68" y="666.4" type="curve" smooth="yes"/>
			<point x="31.68" y="637.68"/>
			<point x="47.16" y="614.52"/>
			<point x="75.64" y="570.24" type="curve" smooth="yes"/>
			<point x="138.76" y="474.12"/>
			<point x="144.88" y="250.4"/>
			<point x="252.56" y="67.92" type="curve" smooth="yes"/>
			<point x="291.2" y="1.4"/>
			<point x="309.68" y="-11.32"/>
		</contour>
	</outline>
</glyph>
<glyph name="W" format="2">
	<unicode hex="0057"/>
	<advance width="966"/>
	<outline>
		<contour>
			<point x="162.68" y="631.24" type="curve" smooth="yes"/>
			<point x="159.68" y="681.24"/>
			<point x="140.56" y="712"/>
			<point x="91.64" y="712" type="curve" smooth="yes"/>
			<point x="60.92" y="712"/>
			<point x="49.36" y="684.16"/>
			<point x="51.68" y="652.76" type="curve" smooth="yes"/>
			<point x="65.04" y="462.24"/>
			<point x="128.64" y="195.84"/>
			<point x="192.24" y="60.2" type="curve" smooth="yes"/>
			<point x="219.48" y="2.32"/>
			<point x="246.2" y="-8"/>
			<point x="271.84" y="-8" type="curve" smooth="yes"/>
			<point x="302.6" y="-8"/>
			<point x="322.92" y="11.64"/>
			<point x="330.12" y="47.44" type="curve" smooth="yes"/>
			<point x="365.48" y="236.28"/>
			<point x="413.32" y="446.52"/>
			<point x="498.16" y="544.36" type="curve" smooth="yes"/>
			<point x="517.44" y="565.96"/>
			<point x="450.48" y="579.4"/>
			<point x="472.8" y="552.48" type="curve" smooth="yes"/>
			<point x="550.4" y="458.64"/>
			<point x="546.68" y="174.16"/>
			<point x="622.16" y="59.68" type="curve" smooth="yes"/>
			<point x="661.84" y="-0.88"/>
			<point x="689.08" y="-12"/>
			<point x="724.4" y="-12" type="curve" smooth="yes"/>
			<point x="745.32" y="-12"/>
			<point x="764.52" y="0.36"/>
			<point x="781.84" y="42" type="curve" smooth="yes"/>
			<point x="841.48" y="189.6"/>
			<point x="856.12" y="456.48"/>
			<point x="906.96" y="601.16" type="curve" smooth="yes"/>
			<point x="927.68" y="662.12"/>
			<point x="919.16" y="712"/>
			<point x="869.2" y="712" type="curve" smooth="yes"/>
			<point x="844.6" y="712"/>
			<point x="830.44" y="704.36"/>
			<point x="813.08" y="664.2" type="curve" smooth="yes"/>
			<point x="762.28" y="541.44"/>
			<point x="749.12" y="252.08"/>
			<point x="689.44" y="116.88" type="curve" smooth="yes"/>
			<point x="677" y="84"/>
			<point x="746.28" y="77.72"/>
			<point x="722.76" y="108.4" type="curve" smooth="yes"/>
			<point x="639.52" y="219.04"/>
			<point x="638.52" y="417.32"/>
			<point x="603.92" y="522.6" type="curve" smooth="yes"/>
			<point x="572.84" y="618"/>
			<point x="544.8" y="652"/>
			<point x="496.6" y="652" type="curve" smooth="yes"/>
			<point x="460.04" y="652"/>
			<point x="429.08" y="624.2"/>
			<point x="400.52" y="583.88" type="curve" smooth="yes"/>
			<point x="337.24" y="493.36"/>
			<point x="285.76" y="326.08"/>
			<point x="246.2" y="116.48" type="curve" smooth="yes"/>
			<point x="235.96" y="60.88"/>
			<point x="292.12" y="74.28"/>
			<point x="270.24" y="138.84" type="curve" smooth="yes"/>
			<point x="214.36" y="296.4"/>
			<point x="171.68" y="499.24"/>
		</contour>
	</outline>
</glyph>
<glyph name="X" format="2">
	<unicode hex="0058"/>
	<advance width="622"/>
	<outline>
		<contour>
			<point x="169.4" y="666.6" type="curve" smooth="yes"/>
			<point x="228.4" y="469.08"/>
			<point x="469.28" y="246.6"/>
			<point x="542.48" y="126.36" type="curve" smooth="yes"/>
			<point x="595.52" y="41.48"/>
			<point x="563.04" y="-7.92"/>
			<point x="521.24" y="-7.92" type="curve" smooth="yes"/>
			<point x="499.96" y="-7.92"/>
			<point x="479.32" y="4.2"/>
			<point x="452.04" y="51.48" type="curve" smooth="yes"/>
			<point x="369.8" y="201.48"/>
			<point x="133.44" y="422.48"/>
			<point x="75.96" y="578.84" type="curve" smooth="yes"/>
			<point x="40" y="677.6"/>
			<point x="57.08" y="710.28"/>
			<point x="109.4" y="710.28" type="curve" smooth="yes"/>
			<point x="140.88" y="710.28"/>
			<point x="162.16" y="690.4"/>
		</contour>
		<contour>
			<point x="542.8" y="592.4" type="curve" smooth="yes"/>
			<point x="423.96" y="476.8"/>
			<point x="256.52" y="266.88"/>
			<point x="136.88" y="36.36" type="curve" smooth="yes"/>
			<point x="117.28" y="-1.24"/>
			<point x="103.04" y="-10.44"/>
			<point x="79.72" y="-10.44" type="curve" smooth="yes"/>
			<point x="41.88" y="-10.44"/>
			<point x="23.16" y="36.36"/>
			<point x="64.28" y="111.36" type="curve" smooth="yes"/>
			<point x="157.96" y="282.24"/>
			<point x="351.12" y="559.8"/>
			<point x="484.4" y="682.72" type="curve" smooth="yes"/>
			<point x="506.16" y="702.48"/>
			<point x="518.64" y="708.36"/>
			<point x="534.96" y="708.36" type="curve" smooth="yes"/>
			<point x="570.4" y="708.36"/>
			<point x="600.28" y="648.8"/>
		</contour>
	</outline>
</glyph>
<glyph name="Y" format="2">
	<unicode hex="0059"/>
	<advance width="612"/>
	<outline>
		<contour>
			<point x="550.32" y="588.4" type="curve" smooth="yes"/>
			<point x="418.88" y="459.76"/>
			<point x="315.68" y="249.08"/>
			<point x="275.68" y="42.24" type="curve" smooth="yes"/>
			<point x="267.32" y="-1.36"/>
			<point x="252.12" y="-14"/>
			<point x="222" y="-14" type="curve" smooth="yes"/>
			<point x="185.12" y="-14"/>
			<point x="167.36" y="19.52"/>
			<point x="182.32" y="88.2" type="curve" smooth="yes"/>
			<point x="219.44" y="272.96"/>
			<point x="333.76" y="523.72"/>
			<point x="493.96" y="681.92" type="curve" smooth="yes"/>
			<point x="520.6" y="708"/>
			<point x="535.6" y="713"/>
			<point x="550.6" y="713" type="curve" smooth="yes"/>
			<point x="572.56" y="713"/>
			<point x="590.68" y="692.4"/>
			<point x="590.68" y="663.16" type="curve" smooth="yes"/>
			<point x="590.68" y="635.96"/>
			<point x="585.4" y="622.56"/>
		</contour>
		<contour>
			<point x="117.44" y="672.28" type="curve" smooth="yes"/>
			<point x="191.84" y="537.44"/>
			<point x="236" y="516.48"/>
			<point x="315.36" y="365.52" type="curve" smooth="yes"/>
			<point x="329.16" y="337.92"/>
			<point x="323.2" y="287.56"/>
			<point x="285.12" y="287.56" type="curve" smooth="yes"/>
			<point x="264.56" y="287.56"/>
			<point x="250" y="299.24"/>
			<point x="239.36" y="317.52" type="curve" smooth="yes"/>
			<point x="150.2950387771" y="465.3701795893"/>
			<point x="108.32" y="495.56"/>
			<point x="48.44" y="589.28" type="curve" smooth="yes"/>
			<point x="27.08" y="624.76"/>
			<point x="20.52" y="640.16"/>
			<point x="20.52" y="664.8" type="curve" smooth="yes"/>
			<point x="20.52" y="692.68"/>
			<point x="37.28" y="711.36"/>
			<point x="60.68" y="711.36" type="curve" smooth="yes"/>
			<point x="84.8" y="711.36"/>
			<point x="100.6" y="702"/>
		</contour>
	</outline>
</glyph>
<glyph name="Z" format="2">
	<unicode hex="005A"/>
	<advance width="650"/>
	<outline>
		<contour>
			<point x="115" y="682.44" type="curve" smooth="yes"/>
			<point x="191.24" y="700"/>
			<point x="263.76" y="710"/>
			<point x="336" y="710" type="curve" smooth="yes"/>
			<point x="526.96" y="710"/>
			<point x="572.8" y="641.52"/>
			<point x="572.8" y="564.64" type="curve" smooth="yes"/>
			<point x="572.8" y="480.8"/>
			<point x="544.8" y="434.28"/>
			<point x="343.76" y="307.36" type="curve" smooth="yes"/>
			<point x="154.68" y="187.24"/>
			<point x="155.16" y="152.72"/>
			<point x="157.96" y="73.44" type="curve" smooth="yes"/>
			<point x="155.52" y="47.56"/>
			<point x="89.96" y="118.04"/>
			<point x="128.84" y="101.64" type="curve" smooth="yes"/>
			<point x="152.84" y="91.32"/>
			<point x="178.96" y="89.04"/>
			<point x="205.36" y="89.04" type="curve" smooth="yes"/>
			<point x="278.56" y="89.04"/>
			<point x="357.88" y="100.56"/>
			<point x="445" y="100.56" type="curve" smooth="yes"/>
			<point x="561.12" y="100.56"/>
			<point x="624" y="83.44"/>
			<point x="624" y="29.88" type="curve" smooth="yes"/>
			<point x="624" y="6.48"/>
			<point x="605.8" y="-7"/>
			<point x="573.48" y="-7" type="curve" smooth="yes"/>
			<point x="528.44" y="-7"/>
			<point x="505.52" y="0"/>
			<point x="429" y="0" type="curve" smooth="yes"/>
			<point x="346" y="0"/>
			<point x="268" y="-8.28"/>
			<point x="201" y="-8.28" type="curve" smooth="yes"/>
			<point x="93" y="-8.28"/>
			<point x="55.24" y="42.32"/>
			<point x="55.24" y="115.32" type="curve" smooth="yes"/>
			<point x="55.24" y="182.88"/>
			<point x="81.6" y="263.96"/>
			<point x="291.56" y="392.52" type="curve" smooth="yes"/>
			<point x="464.08" y="497.88"/>
			<point x="477.16" y="537.76"/>
			<point x="471.16" y="598.4" type="curve" smooth="yes"/>
			<point x="467.52" y="646.72"/>
			<point x="520.84" y="561.2"/>
			<point x="482.56" y="585.64" type="curve" smooth="yes"/>
			<point x="455.68" y="602.4"/>
			<point x="426.52" y="609.08"/>
			<point x="351.72" y="609.08" type="curve" smooth="yes"/>
			<point x="236.4" y="609.08"/>
			<point x="178.2" y="584.44"/>
			<point x="135" y="584.44" type="curve" smooth="yes"/>
			<point x="105.92" y="584.44"/>
			<point x="69" y="599.8"/>
			<point x="69" y="636.12" type="curve" smooth="yes"/>
			<point x="69" y="656.96"/>
			<point x="83" y="674.44"/>
		</contour>
	</outline>
</glyph>
<glyph name="bracketleft" format="2">
	<unicode hex="005B"/>
	<advance width="512"/>
	<outline>
		<contour>
			<point x="394.04" y="715.04" type="curve" smooth="yes"/>
			<point x="327.96" y="715.04"/>
			<point x="222.32" y="695.84"/>
			<point x="170.04" y="697.2" type="curve"/>
			<point x="224.44" y="740.64" type="line"/>
			<point x="203.12" y="610.72"/>
			<point x="223.44" y="345.24"/>
			<point x="217.44" y="238" type="curve" smooth="yes"/>
			<point x="212.76" y="139.08"/>
			<point x="191.36" y="-69.24"/>
			<point x="243.88" y="-186.04" type="curve"/>
			<point x="184.92" y="-167.2" type="line"/>
			<point x="232.0133333334" y="-154.5955555555"/>
			<point x="290.4154838709" y="-158.36"/>
			<point x="351.6" y="-158.36" type="curve" smooth="yes"/>
			<point x="386.224" y="-158.36"/>
			<point x="423.1392" y="-153.32"/>
			<point x="443.6" y="-153.32" type="curve" smooth="yes"/>
			<point x="468.3382857143" y="-153.32"/>
			<point x="483.36" y="-170.664"/>
			<point x="483.36" y="-193.8" type="curve" smooth="yes"/>
			<point x="483.36" y="-238.06"/>
			<point x="448.12" y="-258.36"/>
			<point x="381.08" y="-258.36" type="curve" smooth="yes"/>
			<point x="342.92" y="-258.36"/>
			<point x="306.24" y="-256.64"/>
			<point x="273.28" y="-257.92" type="curve" smooth="yes"/>
			<point x="242.68" y="-258.88"/>
			<point x="220.04" y="-265.92"/>
			<point x="198.76" y="-265.92" type="curve" smooth="yes"/>
			<point x="179.28" y="-265.92"/>
			<point x="163.24" y="-255.36"/>
			<point x="154.36" y="-239.88" type="curve" smooth="yes"/>
			<point x="85.84" y="-118.84"/>
			<point x="108.2" y="129.24"/>
			<point x="113.52" y="243.92" type="curve" smooth="yes"/>
			<point x="119.52" y="353.76"/>
			<point x="100.52" y="625.16"/>
			<point x="121.16" y="757.68" type="curve" smooth="yes"/>
			<point x="125.76" y="784.04"/>
			<point x="149.84" y="801.12"/>
			<point x="176.52" y="801.12" type="curve" smooth="yes"/>
			<point x="240.2120754717" y="801.12"/>
			<point x="341.8211320755" y="817.64"/>
			<point x="415.24" y="817.64" type="curve" smooth="yes"/>
			<point x="458.2851948052" y="817.64"/>
			<point x="484.08" y="804.7922222222"/>
			<point x="484.08" y="774.48" type="curve" smooth="yes"/>
			<point x="484.08" y="745.6342857143"/>
			<point x="462.9155555555" y="713.04"/>
			<point x="428.4" y="713.04" type="curve" smooth="yes"/>
			<point x="415.68" y="713.04"/>
			<point x="407.04" y="715.04"/>
		</contour>
	</outline>
</glyph>
<glyph name="bracketright" format="2">
	<unicode hex="005D"/>
	<advance width="485"/>
	<outline>
		<contour>
			<point x="71.16" y="-162" type="curve" smooth="yes"/>
			<point x="131.16" y="-161.68"/>
			<point x="269.92" y="-145.96"/>
			<point x="326.6" y="-125.92" type="curve"/>
			<point x="291.76" y="-167.64" type="line"/>
			<point x="333.76" y="84.4"/>
			<point x="244.64" y="411.8"/>
			<point x="268.96" y="759.6" type="curve"/>
			<point x="325.32" y="697.4" type="line"/>
			<point x="259.24" y="696.52"/>
			<point x="178.4" y="714.04"/>
			<point x="94.72" y="714.04" type="curve" smooth="yes"/>
			<point x="56.8" y="714.04"/>
			<point x="26.48" y="743.2"/>
			<point x="26.8" y="782.12" type="curve" smooth="yes"/>
			<point x="27.12" y="803.76"/>
			<point x="40.48" y="818.28"/>
			<point x="72.8" y="817.96" type="curve" smooth="yes"/>
			<point x="127.44" y="817.64"/>
			<point x="197.72" y="803.96"/>
			<point x="259.36" y="803.96" type="curve" smooth="yes"/>
			<point x="280.04" y="803.96"/>
			<point x="300.72" y="808.96"/>
			<point x="318.72" y="808.96" type="curve" smooth="yes"/>
			<point x="351.92" y="808.96"/>
			<point x="375.52" y="785.6"/>
			<point x="372.88" y="752.4" type="curve" smooth="yes"/>
			<point x="347.24" y="399.96"/>
			<point x="437.04" y="68.96"/>
			<point x="395.04" y="-186.04" type="curve" smooth="yes"/>
			<point x="391.76" y="-204.44"/>
			<point x="378.28" y="-219.56"/>
			<point x="360.2" y="-226.16" type="curve" smooth="yes"/>
			<point x="302.52" y="-246.88"/>
			<point x="164.12" y="-265.6"/>
			<point x="102.76" y="-265.92" type="curve" smooth="yes"/>
			<point x="63.32" y="-266.24"/>
			<point x="27.12" y="-241.28"/>
			<point x="26.8" y="-204.28" type="curve" smooth="yes"/>
			<point x="26.48" y="-182"/>
			<point x="41.4" y="-162.32"/>
		</contour>
	</outline>
</glyph>
<glyph name="a" format="2">
	<unicode hex="0061"/>
	<advance width="663"/>
	<outline>
		<contour>
			<point x="393.96" y="395.4" type="curve" smooth="yes"/>
			<point x="398.28" y="421.92"/>
			<point x="414.64" y="437.84"/>
			<point x="438.8" y="437.84" type="curve" smooth="yes"/>
			<point x="474.72" y="437.84"/>
			<point x="501.72" y="409.6"/>
			<point x="509.2" y="369.28" type="curve" smooth="yes"/>
			<point x="530.16" y="248.96"/>
			<point x="544.8" y="172"/>
			<point x="617.16" y="81.72" type="curve" smooth="yes"/>
			<point x="641.88" y="52.64"/>
			<point x="620.88" y="-7"/>
			<point x="580.24" y="-7" type="curve" smooth="yes"/>
			<point x="560" y="-7"/>
			<point x="549.44" y="1.96"/>
			<point x="538.76" y="14.64" type="curve" smooth="yes"/>
			<point x="484.16" y="85.64"/>
			<point x="446.36" y="155.96"/>
			<point x="429.8" y="332.64" type="curve"/>
			<point x="468.72" y="333.88" type="line"/>
			<point x="429.8045884425" y="79.2441439821"/>
			<point x="314.9116245487" y="-10"/>
			<point x="212.44" y="-10" type="curve" smooth="yes"/>
			<point x="119.0290909091" y="-10"/>
			<point x="59" y="55.76"/>
			<point x="59" y="156.6" type="curve" smooth="yes"/>
			<point x="59" y="319.6265129683"/>
			<point x="194.020397351" y="504.24"/>
			<point x="357.4" y="504.24" type="curve" smooth="yes"/>
			<point x="391.64" y="504.24"/>
			<point x="417.96" y="483.92"/>
			<point x="417.96" y="447.2" type="curve" smooth="yes"/>
			<point x="417.96" y="429.64"/>
			<point x="407.04" y="417.64"/>
			<point x="387.32" y="415" type="curve" smooth="yes"/>
			<point x="252.4645900175" y="393.2984998656"/>
			<point x="160.72" y="273.6247887324"/>
			<point x="160.72" y="151.48" type="curve" smooth="yes"/>
			<point x="160.72" y="116.16"/>
			<point x="164.08" y="92.96"/>
			<point x="184.68" y="47.84" type="curve"/>
			<point x="129.72" y="123.08" type="line"/>
			<point x="159.8934736345" y="94.0050827619"/>
			<point x="175.88" y="87.28"/>
			<point x="211.96" y="87.28" type="curve" smooth="yes"/>
			<point x="293.68" y="87.28"/>
			<point x="362.0577564089" y="194.7761645217"/>
		</contour>
	</outline>
</glyph>
<glyph name="b" format="2">
	<unicode hex="0062"/>
	<advance width="594"/>
	<outline>
		<contour>
			<point x="188" y="727" type="curve" smooth="yes"/>
			<point x="188" y="642.24"/>
			<point x="171.68" y="575.2"/>
			<point x="171.68" y="417.44" type="curve" smooth="yes"/>
			<point x="171.68" y="364.08"/>
			<point x="174.12" y="309.64"/>
			<point x="179.76" y="237.2" type="curve" smooth="yes"/>
			<point x="183.08" y="190.16"/>
			<point x="143.16" y="217.04"/>
			<point x="155.76" y="271.4" type="curve" smooth="yes"/>
			<point x="189.2" y="429.28"/>
			<point x="285.72" y="503.88"/>
			<point x="370.36" y="503.88" type="curve" smooth="yes"/>
			<point x="472.44" y="503.88"/>
			<point x="549.4" y="440.6"/>
			<point x="549.4" y="291.4" type="curve" smooth="yes"/>
			<point x="549.4" y="106.04"/>
			<point x="378.72" y="-10"/>
			<point x="199.6" y="-10" type="curve" smooth="yes"/>
			<point x="139.08" y="-10"/>
			<point x="69.36" y="9.12"/>
			<point x="69.36" y="61.48" type="curve" smooth="yes"/>
			<point x="69.36" y="87.44"/>
			<point x="87.04" y="100.28"/>
			<point x="112.56" y="100.28" type="curve" smooth="yes"/>
			<point x="132.12" y="100.28"/>
			<point x="161.04" y="89.56"/>
			<point x="187.6" y="89.56" type="curve" smooth="yes"/>
			<point x="320.32" y="89.56"/>
			<point x="447.2" y="159.76"/>
			<point x="447.2" y="300.4" type="curve" smooth="yes"/>
			<point x="447.2" y="354.64"/>
			<point x="430.72" y="403.32"/>
			<point x="369.4" y="403.32" type="curve" smooth="yes"/>
			<point x="273" y="403.32"/>
			<point x="215.44" y="279.12"/>
			<point x="182.6" y="103.6" type="curve" smooth="yes"/>
			<point x="177.28" y="78.68"/>
			<point x="165.04" y="68.52"/>
			<point x="148.28" y="68.52" type="curve" smooth="yes"/>
			<point x="126.6" y="68.52"/>
			<point x="108.64" y="94.12"/>
			<point x="101" y="135.6" type="curve" smooth="yes"/>
			<point x="81.64" y="243.04"/>
			<point x="72" y="358.48"/>
			<point x="72" y="423.2" type="curve" smooth="yes"/>
			<point x="72" y="601.08"/>
			<point x="90.24" y="669.92"/>
			<point x="88" y="762.56" type="curve" smooth="yes"/>
			<point x="87.04" y="787.72"/>
			<point x="98" y="809.64"/>
			<point x="121.76" y="809.64" type="curve" smooth="yes"/>
			<point x="154.88" y="809.64"/>
			<point x="188" y="779.88"/>
		</contour>
	</outline>
</glyph>
<glyph name="c" format="2">
	<unicode hex="0063"/>
	<advance width="504"/>
	<outline>
		<contour>
			<point x="460" y="111.28" type="curve" smooth="yes"/>
			<point x="460" y="144.8"/>
			<point x="449.8" y="157.28"/>
			<point x="428.76" y="157.28" type="curve" smooth="yes"/>
			<point x="391.08" y="157.28"/>
			<point x="398.04" y="91.2"/>
			<point x="272.72" y="91.2" type="curve" smooth="yes"/>
			<point x="194.72" y="91.2"/>
			<point x="147.68" y="139.0165656565"/>
			<point x="147.68" y="212.6" type="curve" smooth="yes"/>
			<point x="147.68" y="310.0254545454"/>
			<point x="228.92" y="403.32"/>
			<point x="340.6" y="403.32" type="curve" smooth="yes"/>
			<point x="369.92" y="403.32"/>
			<point x="370.92" y="385.2"/>
			<point x="391.92" y="385.2" type="curve" smooth="yes"/>
			<point x="418.2829268293" y="385.2"/>
			<point x="432" y="408.227368421"/>
			<point x="432" y="437.6" type="curve" smooth="yes"/>
			<point x="432" y="492.74"/>
			<point x="391.3" y="504.6"/>
			<point x="350.6" y="504.6" type="curve" smooth="yes"/>
			<point x="186.36" y="504.6"/>
			<point x="46.4" y="379.12"/>
			<point x="46.4" y="220" type="curve" smooth="yes"/>
			<point x="46.4" y="84.64"/>
			<point x="137.36" y="-9"/>
			<point x="275.6" y="-9" type="curve" smooth="yes"/>
			<point x="382.44" y="-9"/>
			<point x="460" y="38.12"/>
		</contour>
	</outline>
</glyph>
<glyph name="d" format="2">
	<unicode hex="0064"/>
	<advance width="643"/>
	<outline>
		<contour>
			<point x="265.8" y="-9" type="curve" smooth="yes"/>
			<point x="351.32" y="-9"/>
			<point x="441.56" y="71.24"/>
			<point x="482.76" y="284.48" type="curve"/>
			<point x="432.68" y="282" type="line"/>
			<point x="423.16" y="128.2"/>
			<point x="482.0451376147" y="-11.84"/>
			<point x="549.8" y="-11.84" type="curve" smooth="yes"/>
			<point x="580.96" y="-11.84"/>
			<point x="602.64" y="14.4"/>
			<point x="602.64" y="37" type="curve" smooth="yes"/>
			<point x="602.64" y="82.936"/>
			<point x="522.2" y="91.436"/>
			<point x="522.2" y="303.52" type="curve" smooth="yes"/>
			<point x="522.2" y="447.8968807339"/>
			<point x="545.04" y="540.7833027523"/>
			<point x="548.24" y="706.92" type="curve" smooth="yes"/>
			<point x="550.16" y="773.76"/>
			<point x="528.246" y="810"/>
			<point x="484.8" y="810" type="curve" smooth="yes"/>
			<point x="461.7436363636" y="810"/>
			<point x="444.4" y="796.4871232877"/>
			<point x="444.4" y="751.88" type="curve" smooth="yes"/>
			<point x="444.4" y="327.5928340676"/>
			<point x="365.96" y="91.2"/>
			<point x="260.12" y="91.2" type="curve" smooth="yes"/>
			<point x="204.64" y="91.2"/>
			<point x="147.36" y="177.32"/>
			<point x="147.36" y="279" type="curve" smooth="yes"/>
			<point x="147.36" y="357.28"/>
			<point x="196.44" y="405.04"/>
			<point x="283.48" y="405.04" type="curve" smooth="yes"/>
			<point x="370.32" y="405.04"/>
			<point x="373.0207874016" y="362.24"/>
			<point x="406.96" y="362.24" type="curve" smooth="yes"/>
			<point x="420.976" y="362.24"/>
			<point x="432.08" y="375.04"/>
			<point x="432.08" y="393.76" type="curve" smooth="yes"/>
			<point x="432.08" y="460.28"/>
			<point x="369.2" y="505.24"/>
			<point x="268.4" y="505.24" type="curve" smooth="yes"/>
			<point x="133.72" y="505.88"/>
			<point x="43.6" y="415.6344827586"/>
			<point x="43.6" y="279" type="curve" smooth="yes"/>
			<point x="43.6" y="124"/>
			<point x="135.28" y="-9"/>
		</contour>
	</outline>
</glyph>
<glyph name="e" format="2">
	<unicode hex="0065"/>
	<advance width="563"/>
	<outline>
		<contour>
			<point x="216" y="179.2" type="curve" smooth="yes"/>
			<point x="360.08" y="179.2"/>
			<point x="471.6" y="238.76"/>
			<point x="471.6" y="349" type="curve" smooth="yes"/>
			<point x="471.6" y="450.4"/>
			<point x="405.1322543352" y="504.6"/>
			<point x="309.4" y="504.6" type="curve" smooth="yes"/>
			<point x="143.6322580645" y="504.6"/>
			<point x="38.6" y="347.48"/>
			<point x="38.6" y="210" type="curve" smooth="yes"/>
			<point x="38.6" y="82"/>
			<point x="106.36" y="-10"/>
			<point x="261.8" y="-10" type="curve" smooth="yes"/>
			<point x="396.6855932203" y="-10"/>
			<point x="509.76" y="66.96"/>
			<point x="509.76" y="123.92" type="curve" smooth="yes"/>
			<point x="509.76" y="149.04"/>
			<point x="502.56" y="160.92"/>
			<point x="483.08" y="160.92" type="curve" smooth="yes"/>
			<point x="442.36" y="160.92"/>
			<point x="401.4" y="84.12"/>
			<point x="254.32" y="84.12" type="curve" smooth="yes"/>
			<point x="169.11" y="84.12"/>
			<point x="138.24" y="132.84"/>
			<point x="138.24" y="196.52" type="curve" smooth="yes"/>
			<point x="138.24" y="304.32"/>
			<point x="212.547368421" y="405.32"/>
			<point x="315.04" y="405.32" type="curve" smooth="yes"/>
			<point x="359.2612658228" y="405.32"/>
			<point x="376.52" y="385.72"/>
			<point x="376.52" y="348.2" type="curve" smooth="yes"/>
			<point x="376.52" y="290"/>
			<point x="308.450052356" y="253.8"/>
			<point x="207.2" y="253.8" type="curve" smooth="yes"/>
			<point x="175.2" y="253.8"/>
			<point x="156.52" y="260.84"/>
			<point x="141.84" y="260.84" type="curve" smooth="yes"/>
			<point x="122.2" y="260.84"/>
			<point x="115.24" y="252.88"/>
			<point x="115.24" y="236.28" type="curve" smooth="yes"/>
			<point x="115.24" y="207.44"/>
			<point x="145.32" y="179.2"/>
		</contour>
	</outline>
</glyph>
<glyph name="f" format="2">
	<unicode hex="0066"/>
	<advance width="364"/>
	<outline>
		<contour>
			<point x="284.8" y="412.24" type="curve" smooth="yes"/>
			<point x="312.72" y="413.2"/>
			<point x="325" y="427.64"/>
			<point x="325" y="447.12" type="curve" smooth="yes"/>
			<point x="325" y="478.2291891892"/>
			<point x="297.88" y="501.04"/>
			<point x="264.36" y="501.04" type="curve" smooth="yes"/>
			<point x="217.48" y="501.04"/>
			<point x="173.84" y="495.08"/>
			<point x="126.68" y="483.24" type="curve" smooth="yes"/>
			<point x="93.28" y="473.72"/>
			<point x="77.84" y="447.72"/>
			<point x="77.84" y="419.84" type="curve" smooth="yes"/>
			<point x="77.84" y="398.6869565217"/>
			<point x="97.48" y="385.4"/>
			<point x="120.08" y="385.4" type="curve" smooth="yes"/>
			<point x="148.72" y="385.4"/>
			<point x="175.04" y="408.72"/>
		</contour>
		<contour>
			<point x="128.8" y="-62.92" type="curve" smooth="yes"/>
			<point x="156.4" y="-62.92"/>
			<point x="169.88" y="-49.12"/>
			<point x="169.88" y="2.12" type="curve" smooth="yes"/>
			<point x="169.88" y="209.6843979058"/>
			<point x="144.84" y="325.1980183486"/>
			<point x="144.84" y="444.08" type="curve" smooth="yes"/>
			<point x="144.84" y="595.64"/>
			<point x="167.6" y="682.72"/>
			<point x="321.24" y="719.92" type="curve" smooth="yes"/>
			<point x="347.16" y="726.84"/>
			<point x="359.4" y="742.48"/>
			<point x="359.4" y="763.8" type="curve" smooth="yes"/>
			<point x="359.4" y="796.2"/>
			<point x="329.72" y="810"/>
			<point x="303.16" y="810" type="curve" smooth="yes"/>
			<point x="164.36" y="810"/>
			<point x="43.16" y="689.6"/>
			<point x="43.16" y="484.2" type="curve" smooth="yes"/>
			<point x="43.16" y="304.0577232925"/>
			<point x="66.6" y="233.48721202"/>
			<point x="66.6" y="26.8" type="curve" smooth="yes"/>
			<point x="66.6" y="-30.36"/>
			<point x="97.88" y="-62.92"/>
		</contour>
	</outline>
</glyph>
<glyph name="g" format="2">
	<unicode hex="0067"/>
	<advance width="619"/>
	<outline>
		<contour>
			<point x="443.12" y="464.28" type="curve" smooth="yes"/>
			<point x="486.92" y="464.28"/>
			<point x="507.3638910651" y="426.9907131762"/>
			<point x="510.36" y="388.4" type="curve" smooth="yes"/>
			<point x="524.04" y="223.56"/>
			<point x="573.8" y="148.4"/>
			<point x="573.8" y="-47.48" type="curve" smooth="yes"/>
			<point x="573.8" y="-179.52"/>
			<point x="504.055" y="-260"/>
			<point x="381.4" y="-260" type="curve" smooth="yes"/>
			<point x="174.2971428572" y="-260"/>
			<point x="110.72" y="-157.4016"/>
			<point x="110.72" y="-85.08" type="curve" smooth="yes"/>
			<point x="110.72" y="-48.76"/>
			<point x="135.76" y="-19"/>
			<point x="171.84" y="-19" type="curve" smooth="yes"/>
			<point x="192.4" y="-19"/>
			<point x="200.4" y="-30"/>
			<point x="200.4" y="-51" type="curve" smooth="yes"/>
			<point x="200.4" y="-116.6979020979"/>
			<point x="265.7636363637" y="-161.44"/>
			<point x="372.76" y="-161.44" type="curve" smooth="yes"/>
			<point x="449.432920354" y="-161.44"/>
			<point x="472.88" y="-117.4"/>
			<point x="472.88" y="-37.76" type="curve" smooth="yes"/>
			<point x="472.88" y="98.88"/>
			<point x="429.52" y="177.6"/>
			<point x="417.52" y="290.88" type="curve"/>
			<point x="459.76" y="281.16" type="line"/>
			<point x="433.4304821963" y="135.3161405825"/>
			<point x="339.12" y="75"/>
			<point x="235.2" y="75" type="curve" smooth="yes"/>
			<point x="118.3018181818" y="75"/>
			<point x="45.4" y="139.7158762887"/>
			<point x="45.4" y="259" type="curve" smooth="yes"/>
			<point x="45.4" y="392.4021052631"/>
			<point x="160.36" y="505.52"/>
			<point x="287.6" y="505.52" type="curve" smooth="yes"/>
			<point x="389.76" y="505.52"/>
			<point x="425.04" y="449.2796521739"/>
			<point x="425.04" y="396.36" type="curve" smooth="yes"/>
			<point x="425.04" y="375.04"/>
			<point x="411.16" y="353.08"/>
			<point x="396.88" y="353.08" type="curve" smooth="yes"/>
			<point x="358.3862068965" y="353.08"/>
			<point x="367.12" y="408.16"/>
			<point x="303.08" y="408.16" type="curve" smooth="yes"/>
			<point x="220.64" y="408.16"/>
			<point x="146.32" y="335.1594520548"/>
			<point x="146.32" y="260.08" type="curve" smooth="yes"/>
			<point x="146.32" y="204.3793548387"/>
			<point x="173.92" y="173.84"/>
			<point x="234.84" y="173.84" type="curve" smooth="yes"/>
			<point x="331" y="173.84"/>
			<point x="405.96" y="242.92"/>
			<point x="405.96" y="417.6" type="curve" smooth="yes"/>
			<point x="405.96" y="450.04"/>
			<point x="414.92" y="464.28"/>
		</contour>
	</outline>
</glyph>
<glyph name="h" format="2">
	<unicode hex="0068"/>
	<advance width="639"/>
	<outline>
		<contour>
			<point x="543.36" y="-10.64" type="curve" smooth="yes"/>
			<point x="568.8872727272" y="-10.64"/>
			<point x="589.04" y="7.03"/>
			<point x="589.04" y="28.96" type="curve" smooth="yes"/>
			<point x="589.04" y="42.1353846154"/>
			<point x="584.1451695817" y="54.3096608367"/>
			<point x="578.4" y="65.8" type="curve" smooth="yes"/>
			<point x="559.2678845934" y="99.9690486224"/>
			<point x="540.4954892667" y="139.7332775774"/>
			<point x="528" y="268" type="curve" smooth="yes"/>
			<point x="514.4259815262" y="417.6342032114"/>
			<point x="492.56" y="506.16"/>
			<point x="401.8" y="506.16" type="curve" smooth="yes"/>
			<point x="318.8" y="506.16"/>
			<point x="243.92" y="416.24"/>
			<point x="148.44" y="168.48" type="curve"/>
			<point x="172.2" y="143.76" type="line"/>
			<point x="169.48" y="343.64"/>
			<point x="211.88" y="507.92"/>
			<point x="225.48" y="638.56" type="curve" smooth="yes"/>
			<point x="235.68" y="766.6"/>
			<point x="207.72" y="809.32"/>
			<point x="167.28" y="810" type="curve" smooth="yes"/>
			<point x="136.4" y="810"/>
			<point x="124.2" y="788.48"/>
			<point x="122.16" y="765.96" type="curve" smooth="yes"/>
			<point x="118.76" y="724.96"/>
			<point x="126.28" y="681.32"/>
			<point x="121.52" y="618.6" type="curve" smooth="yes"/>
			<point x="110.64" y="492.4"/>
			<point x="68.6" y="337.16"/>
			<point x="68.6" y="107.8" type="curve" smooth="yes"/>
			<point x="68.6" y="32.8"/>
			<point x="98.6061538462" y="-10"/>
			<point x="135.8" y="-10" type="curve" smooth="yes"/>
			<point x="159.36" y="-10"/>
			<point x="176.96" y="-1.04"/>
			<point x="189.16" y="32.48" type="curve" smooth="yes"/>
			<point x="263.12" y="256.92"/>
			<point x="354.52" y="390.28"/>
			<point x="396.96" y="394.44" type="curve"/>
			<point x="416.2" y="359.04"/>
			<point x="425.28" y="311.52"/>
			<point x="433.32" y="190.48" type="curve" smooth="yes"/>
			<point x="440.6561429861" y="85.1399624471"/>
			<point x="484.856" y="-10.64"/>
		</contour>
	</outline>
</glyph>
<glyph name="i" format="2">
	<unicode hex="0069"/>
	<advance width="299"/>
	<outline>
		<contour>
			<point x="155.48" y="-10.68" type="curve" smooth="yes"/>
			<point x="179.8" y="-10.68"/>
			<point x="192.28" y="5.44"/>
			<point x="192.28" y="31.4" type="curve" smooth="yes"/>
			<point x="192.28" y="110.6"/>
			<point x="202.56" y="361.88"/>
			<point x="201.56" y="435.4" type="curve" smooth="yes"/>
			<point x="200.56" y="481.2"/>
			<point x="174.8" y="505.6"/>
			<point x="143.76" y="505.6" type="curve" smooth="yes"/>
			<point x="111.88" y="505.6"/>
			<point x="85.24" y="473.6"/>
			<point x="85.24" y="433.6" type="curve" smooth="yes"/>
			<point x="85.24" y="330.84"/>
			<point x="90.16" y="270.24"/>
			<point x="90.16" y="67.4" type="curve" smooth="yes"/>
			<point x="90.16" y="26.72"/>
			<point x="119.04" y="-10.68"/>
		</contour>
		<contour>
			<point x="161.2" y="654.28" type="curve" smooth="yes"/>
			<point x="206.28" y="654.28"/>
			<point x="223.52" y="684.48"/>
			<point x="223.52" y="710.6" type="curve" smooth="yes"/>
			<point x="223.52" y="755.8"/>
			<point x="185.76" y="811.56"/>
			<point x="123.88" y="811.56" type="curve" smooth="yes"/>
			<point x="90.48" y="811.56"/>
			<point x="63.72" y="785.16"/>
			<point x="63.72" y="750.56" type="curve" smooth="yes"/>
			<point x="63.72" y="701.28"/>
			<point x="108.68" y="654.28"/>
		</contour>
	</outline>
</glyph>
<glyph name="j" format="2">
	<unicode hex="006A"/>
	<advance width="274"/>
	<outline>
		<contour>
			<point x="152.4" y="449.68" type="curve" smooth="yes"/>
			<point x="189.76" y="276.32"/>
			<point x="215.88" y="128.68"/>
			<point x="215.88" y="-40" type="curve" smooth="yes"/>
			<point x="215.88" y="-185"/>
			<point x="138.32" y="-260"/>
			<point x="20.48" y="-260" type="curve" smooth="yes"/>
			<point x="-69.36" y="-260"/>
			<point x="-120.6" y="-223.12"/>
			<point x="-120.6" y="-178.68" type="curve" smooth="yes"/>
			<point x="-120.6" y="-152.6"/>
			<point x="-106.04" y="-138.08"/>
			<point x="-84.52" y="-138.08" type="curve" smooth="yes"/>
			<point x="-49.52" y="-138.08"/>
			<point x="-30.84" y="-160.08"/>
			<point x="11.48" y="-160.08" type="curve" smooth="yes"/>
			<point x="77.84" y="-160.08"/>
			<point x="115.92" y="-120.12"/>
			<point x="115.92" y="-43.68" type="curve" smooth="yes"/>
			<point x="115.92" y="260.16"/>
			<point x="47.28" y="341.48"/>
			<point x="47.28" y="437.36" type="curve" smooth="yes"/>
			<point x="47.28" y="485.92"/>
			<point x="71.52" y="504.96"/>
			<point x="96.76" y="504.96" type="curve" smooth="yes"/>
			<point x="121.8" y="504.96"/>
			<point x="142.4" y="493.96"/>
		</contour>
		<contour>
			<point x="138.96" y="652.04" type="curve" smooth="yes"/>
			<point x="184.04" y="652.04"/>
			<point x="201.28" y="686.4"/>
			<point x="201.28" y="715.4" type="curve" smooth="yes"/>
			<point x="201.28" y="755.8"/>
			<point x="168.64" y="806.12"/>
			<point x="114.44" y="806.12" type="curve" smooth="yes"/>
			<point x="77.2" y="806.12"/>
			<point x="47.88" y="777.16"/>
			<point x="47.88" y="738.72" type="curve" smooth="yes"/>
			<point x="47.88" y="694.56"/>
			<point x="89.64" y="652.04"/>
		</contour>
	</outline>
</glyph>
<glyph name="k" format="2">
	<unicode hex="006B"/>
	<advance width="596"/>
	<outline>
		<contour>
			<point x="497.88" y="-7" type="curve" smooth="yes"/>
			<point x="526.52" y="-7"/>
			<point x="541.32" y="8.76"/>
			<point x="541.32" y="33.72" type="curve" smooth="yes"/>
			<point x="541.32" y="60.96"/>
			<point x="526.2" y="87.12"/>
			<point x="468.4" y="103.84" type="curve" smooth="yes"/>
			<point x="337.1416347427" y="142.7363410901"/>
			<point x="278.68" y="207.16"/>
			<point x="278.68" y="235.4" type="curve" smooth="yes"/>
			<point x="278.68" y="273.7856716418"/>
			<point x="374.0076773366" y="363.8310582909"/>
			<point x="476.32" y="401.92" type="curve" smooth="yes"/>
			<point x="516.12" y="415.8"/>
			<point x="531.08" y="430.68"/>
			<point x="531.08" y="456.48" type="curve" smooth="yes"/>
			<point x="531.08" y="488.24"/>
			<point x="510.5711111111" y="505.24"/>
			<point x="477.24" y="505.24" type="curve" smooth="yes"/>
			<point x="389.36" y="505.24"/>
			<point x="172" y="344.72"/>
			<point x="172" y="229" type="curve" smooth="yes"/>
			<point x="172" y="124.4"/>
			<point x="386.12" y="-7"/>
		</contour>
		<contour>
			<point x="168.24" y="809.32" type="curve" smooth="yes"/>
			<point x="140.92" y="810"/>
			<point x="126.72" y="794.84"/>
			<point x="124.68" y="768.2" type="curve" smooth="yes"/>
			<point x="119.92" y="726.08"/>
			<point x="126.88" y="711.4"/>
			<point x="112.6" y="591.96" type="curve" smooth="yes"/>
			<point x="92.88" y="404.32"/>
			<point x="68.6" y="213.3824590164"/>
			<point x="68.6" y="123.4" type="curve" smooth="yes"/>
			<point x="68.6" y="16.28"/>
			<point x="102.86" y="-10"/>
			<point x="136.8" y="-10" type="curve" smooth="yes"/>
			<point x="161.1955555555" y="-10"/>
			<point x="174.6" y="3.56"/>
			<point x="174.6" y="33.96" type="curve" smooth="yes"/>
			<point x="174.6" y="72.08"/>
			<point x="169.6" y="105.288"/>
			<point x="169.6" y="154.6" type="curve" smooth="yes"/>
			<point x="169.6" y="286.9136299766"/>
			<point x="186.88" y="360.2"/>
			<point x="216.12" y="594.64" type="curve" smooth="yes"/>
			<point x="233.8" y="760.84"/>
			<point x="214.88" y="809.32"/>
		</contour>
	</outline>
</glyph>
<glyph name="l" format="2">
	<unicode hex="006C"/>
	<advance width="345"/>
	<outline>
		<contour>
			<point x="187.08" y="726.68" type="curve" smooth="yes"/>
			<point x="187.08" y="650.48"/>
			<point x="161" y="562.64"/>
			<point x="161" y="347" type="curve" smooth="yes"/>
			<point x="161" y="140.08"/>
			<point x="186.44" y="90.56"/>
			<point x="218.6" y="90.56" type="curve" smooth="yes"/>
			<point x="261.9787012987" y="90.56"/>
			<point x="272.96" y="116.64"/>
			<point x="297" y="116.64" type="curve" smooth="yes"/>
			<point x="320.12" y="116.64"/>
			<point x="327.72" y="98.88"/>
			<point x="327.72" y="74.2" type="curve" smooth="yes"/>
			<point x="327.72" y="25.44"/>
			<point x="270.24" y="-11"/>
			<point x="206.52" y="-11" type="curve" smooth="yes"/>
			<point x="129.96" y="-11"/>
			<point x="58.12" y="30.76"/>
			<point x="58.12" y="367" type="curve" smooth="yes"/>
			<point x="58.12" y="531.72448"/>
			<point x="69.48" y="634.4"/>
			<point x="87.08" y="742.6" type="curve" smooth="yes"/>
			<point x="95.76" y="792.36"/>
			<point x="110.1054545454" y="810"/>
			<point x="135.92" y="810" type="curve" smooth="yes"/>
			<point x="167.768" y="810"/>
			<point x="187.08" y="786.32"/>
		</contour>
	</outline>
</glyph>
<glyph name="m" format="2">
	<unicode hex="006D"/>
	<advance width="902"/>
	<outline>
		<contour>
			<point x="175.44" y="348.64" type="curve" smooth="yes"/>
			<point x="175.44" y="223"/>
			<point x="130.48" y="240.84"/>
			<point x="155.76" y="335.44" type="curve" smooth="yes"/>
			<point x="185.88" y="450.36"/>
			<point x="234.32" y="504.24"/>
			<point x="297.88" y="504.24" type="curve" smooth="yes"/>
			<point x="368.2" y="504.24"/>
			<point x="402.24" y="414.44"/>
			<point x="422.04" y="275.68" type="curve" smooth="yes"/>
			<point x="432.76" y="195.16"/>
			<point x="444.4" y="158.28"/>
			<point x="458.76" y="133.96" type="curve" smooth="yes"/>
			<point x="487.92" y="83.04"/>
			<point x="411.2" y="72.4"/>
			<point x="426.32" y="139.24" type="curve" smooth="yes"/>
			<point x="473.16" y="357.32"/>
			<point x="562.2014285714" y="504.24"/>
			<point x="650" y="504.24" type="curve" smooth="yes"/>
			<point x="740.64" y="504.24"/>
			<point x="776.96" y="425.04"/>
			<point x="791.96" y="259.12" type="curve" smooth="yes"/>
			<point x="808.32" y="77.52"/>
			<point x="842.52" y="78.88"/>
			<point x="842.52" y="28.88" type="curve" smooth="yes"/>
			<point x="842.52" y="5.96"/>
			<point x="824.6" y="-9"/>
			<point x="799.2" y="-9" type="curve" smooth="yes"/>
			<point x="744.2" y="-9"/>
			<point x="712.96" y="49.48"/>
			<point x="695.96" y="198.88" type="curve" smooth="yes"/>
			<point x="677.96" y="360"/>
			<point x="668.28" y="381.52"/>
			<point x="638.44" y="416.32" type="curve" smooth="yes"/>
			<point x="614.08" y="446.28"/>
			<point x="695.6" y="450"/>
			<point x="659" y="415.64" type="curve" smooth="yes"/>
			<point x="576.04" y="338.28"/>
			<point x="540.28" y="206.12"/>
			<point x="495.44" y="37.08" type="curve" smooth="yes"/>
			<point x="487.8" y="6.92"/>
			<point x="466.28" y="-9"/>
			<point x="441.56" y="-9" type="curve" smooth="yes"/>
			<point x="382.08" y="-9"/>
			<point x="354.88" y="66.84"/>
			<point x="338.8" y="186.16" type="curve" smooth="yes"/>
			<point x="321.4" y="313.72"/>
			<point x="308" y="379.36"/>
			<point x="266.8" y="416.6" type="curve" smooth="yes"/>
			<point x="244.76" y="438.16"/>
			<point x="321.96" y="432.68"/>
			<point x="294.44" y="406.56" type="curve" smooth="yes"/>
			<point x="221.32" y="335.4"/>
			<point x="195.48" y="171.04"/>
			<point x="182.8" y="36.56" type="curve" smooth="yes"/>
			<point x="179.48" y="2.2"/>
			<point x="162.7630769231" y="-9"/>
			<point x="138" y="-9" type="curve" smooth="yes"/>
			<point x="88.3630769231" y="-9"/>
			<point x="73.76" y="60.08"/>
			<point x="73.76" y="130.16" type="curve" smooth="yes"/>
			<point x="73.76" y="197.893015873"/>
			<point x="83.08" y="271.68"/>
			<point x="83.08" y="338.44" type="curve" smooth="yes"/>
			<point x="83.08" y="373.3395121951"/>
			<point x="74.68" y="402.7678048781"/>
			<point x="74.68" y="432.44" type="curve" smooth="yes"/>
			<point x="74.68" y="448.64"/>
			<point x="87.96" y="462.84"/>
			<point x="109.08" y="462.84" type="curve" smooth="yes"/>
			<point x="157.428292683" y="462.84"/>
			<point x="175.44" y="412.2688"/>
		</contour>
	</outline>
</glyph>
<glyph name="n" format="2">
	<unicode hex="006E"/>
	<advance width="642"/>
	<outline>
		<contour>
			<point x="536.72" y="-10" type="curve" smooth="yes"/>
			<point x="566.2" y="-10"/>
			<point x="586.76" y="14.72"/>
			<point x="586.76" y="42.2" type="curve" smooth="yes"/>
			<point x="586.76" y="61.08"/>
			<point x="581.8" y="71.28"/>
			<point x="569.24" y="81.52" type="curve" smooth="yes"/>
			<point x="525.52" y="118.24"/>
			<point x="526" y="200.6552671756"/>
			<point x="526" y="350.96" type="curve" smooth="yes"/>
			<point x="526" y="439.68"/>
			<point x="480.64" y="504.96"/>
			<point x="411.8" y="504.96" type="curve" smooth="yes"/>
			<point x="314.48" y="504.96"/>
			<point x="209.52" y="377.76"/>
			<point x="142.52" y="130.28" type="curve"/>
			<point x="166.68" y="114.6" type="line"/>
			<point x="159.8841496707" y="280.7257208945"/>
			<point x="194.36" y="339.64"/>
			<point x="194.36" y="423.56" type="curve" smooth="yes"/>
			<point x="194.36" y="477.68"/>
			<point x="158.9771428572" y="500.12"/>
			<point x="134.2" y="500.12" type="curve" smooth="yes"/>
			<point x="110.5571428572" y="500.12"/>
			<point x="97.6" y="484.73"/>
			<point x="97.6" y="463.72" type="curve" smooth="yes"/>
			<point x="97.6" y="339.3734210526"/>
			<point x="68.6" y="287.2728205128"/>
			<point x="68.6" y="151" type="curve" smooth="yes"/>
			<point x="68.6" y="58"/>
			<point x="94.384" y="-9"/>
			<point x="145" y="-9" type="curve" smooth="yes"/>
			<point x="176.9088888889" y="-9"/>
			<point x="194.3451755687" y="9.8611544167"/>
			<point x="207.24" y="62.24" type="curve" smooth="yes"/>
			<point x="256.16" y="251.48"/>
			<point x="354.28" y="405.96"/>
			<point x="403.24" y="405.96" type="curve" smooth="yes"/>
			<point x="424.64" y="405.96"/>
			<point x="436.28" y="394.96"/>
			<point x="455.8" y="370.72" type="curve"/>
			<point x="456.04" y="420.24"/>
			<point x="430.48" y="434.48"/>
			<point x="383.6" y="432.72" type="curve"/>
			<point x="421.36" y="406.84"/>
			<point x="429.84" y="391.32"/>
			<point x="429.84" y="275.88" type="curve" smooth="yes"/>
			<point x="429.84" y="73.92"/>
			<point x="463.76" y="-10"/>
		</contour>
	</outline>
</glyph>
<glyph name="o" format="2">
	<unicode hex="006F"/>
	<advance width="625"/>
	<outline>
		<contour>
			<point x="327.48" y="-12" type="curve" smooth="yes"/>
			<point x="463.36" y="-12"/>
			<point x="566.68" y="101.88"/>
			<point x="566.68" y="252.4" type="curve" smooth="yes"/>
			<point x="566.68" y="405.04"/>
			<point x="477.64" y="501.04"/>
			<point x="330.28" y="501.04" type="curve" smooth="yes"/>
			<point x="243.7463043478" y="501.04"/>
			<point x="157.76" y="420.52"/>
			<point x="157.76" y="357.24" type="curve" smooth="yes"/>
			<point x="157.76" y="324.44"/>
			<point x="171.2" y="313.2"/>
			<point x="191.44" y="313.2" type="curve" smooth="yes"/>
			<point x="219.36" y="313.2"/>
			<point x="223.44" y="332.72"/>
			<point x="254.16" y="363.44" type="curve" smooth="yes"/>
			<point x="279.3210241758" y="388.6010241758"/>
			<point x="300.7018181818" y="402.76"/>
			<point x="339.56" y="402.76" type="curve" smooth="yes"/>
			<point x="417.24" y="402.76"/>
			<point x="466.04" y="346"/>
			<point x="466.04" y="253.92" type="curve" smooth="yes"/>
			<point x="466.04" y="152.48"/>
			<point x="409.88" y="86"/>
			<point x="323.84" y="86" type="curve" smooth="yes"/>
			<point x="222.8" y="86"/>
			<point x="158.56" y="152.48"/>
			<point x="158.56" y="254.92" type="curve" smooth="yes"/>
			<point x="158.56" y="319.860591716"/>
			<point x="204.6165634906" y="365.9342805373"/>
			<point x="250.44" y="391.52" type="curve" smooth="yes"/>
			<point x="287.84" y="408.44"/>
			<point x="298.72" y="429.68"/>
			<point x="298.72" y="460.56" type="curve" smooth="yes"/>
			<point x="298.72" y="486.1356521739"/>
			<point x="279.76" y="495"/>
			<point x="257.08" y="495" type="curve" smooth="yes"/>
			<point x="184.8" y="495"/>
			<point x="58.28" y="390.92"/>
			<point x="58.28" y="252.4" type="curve" smooth="yes"/>
			<point x="58.28" y="98.56"/>
			<point x="170.6" y="-12"/>
		</contour>
	</outline>
</glyph>
<glyph name="p" format="2">
	<unicode hex="0070"/>
	<advance width="569"/>
	<outline>
		<contour>
			<point x="156.6" y="375.68" type="curve" smooth="yes"/>
			<point x="156.6" y="217.88"/>
			<point x="209.4" y="98.12"/>
			<point x="209.4" y="-46" type="curve" smooth="yes"/>
			<point x="209.4" y="-172.56"/>
			<point x="186.76" y="-261"/>
			<point x="127.08" y="-261" type="curve" smooth="yes"/>
			<point x="99.72" y="-261"/>
			<point x="77.28" y="-245.04"/>
			<point x="77.28" y="-206.76" type="curve" smooth="yes"/>
			<point x="77.28" y="-164.16"/>
			<point x="104.92" y="-143.56"/>
			<point x="104.92" y="-33.36" type="curve" smooth="yes"/>
			<point x="104.92" y="112.2"/>
			<point x="53" y="254.44"/>
			<point x="49.48" y="406" type="curve" smooth="yes"/>
			<point x="48.84" y="439.08"/>
			<point x="63.68" y="456"/>
			<point x="89.52" y="456" type="curve" smooth="yes"/>
			<point x="126.4482051282" y="456"/>
			<point x="156.6" y="419.16"/>
		</contour>
		<contour>
			<point x="203.08" y="504.88" type="curve" smooth="yes"/>
			<point x="381.2" y="504.88"/>
			<point x="521.44" y="387.2"/>
			<point x="521.44" y="193.88" type="curve" smooth="yes"/>
			<point x="521.44" y="75.12"/>
			<point x="435.52" y="-10"/>
			<point x="309.36" y="-10" type="curve" smooth="yes"/>
			<point x="208.8" y="-10"/>
			<point x="132.8" y="41.8"/>
			<point x="132.8" y="97.08" type="curve" smooth="yes"/>
			<point x="132.8" y="114.6"/>
			<point x="143.2" y="130.4"/>
			<point x="161.76" y="130.4" type="curve" smooth="yes"/>
			<point x="192.48" y="130.4"/>
			<point x="204.44" y="88.96"/>
			<point x="296.68" y="88.96" type="curve" smooth="yes"/>
			<point x="368.04" y="88.96"/>
			<point x="416.96" y="120.88"/>
			<point x="416.96" y="206.6" type="curve" smooth="yes"/>
			<point x="416.96" y="327"/>
			<point x="317.72" y="404.68"/>
			<point x="205.6" y="404.68" type="curve" smooth="yes"/>
			<point x="177.64" y="404.68"/>
			<point x="149.92" y="395.6"/>
			<point x="127.68" y="395.6" type="curve" smooth="yes"/>
			<point x="100.36" y="395.6"/>
			<point x="78.56" y="417.92"/>
			<point x="78.56" y="443.8" type="curve" smooth="yes"/>
			<point x="78.56" y="484.52"/>
			<point x="115.96" y="504.88"/>
		</contour>
	</outline>
</glyph>
<glyph name="q" format="2">
	<unicode hex="0071"/>
	<advance width="577"/>
	<outline>
		<contour>
			<point x="427.08" y="333.56" type="curve" smooth="yes"/>
			<point x="451.04" y="333.56"/>
			<point x="470.76" y="353.36375"/>
			<point x="470.76" y="375.68" type="curve" smooth="yes"/>
			<point x="470.76" y="436.0425"/>
			<point x="409.12" y="504.6"/>
			<point x="318.6" y="504.6" type="curve" smooth="yes"/>
			<point x="179" y="504.6"/>
			<point x="35.4" y="336.6363517915"/>
			<point x="35.4" y="180.8" type="curve" smooth="yes"/>
			<point x="35.4" y="66.1337373737"/>
			<point x="94.8" y="-10"/>
			<point x="214.6" y="-10" type="curve" smooth="yes"/>
			<point x="301.32" y="-10"/>
			<point x="382.52" y="38.16"/>
			<point x="433.6" y="123.64" type="curve" smooth="yes"/>
			<point x="478.72" y="190.64"/>
			<point x="411.9035319422" y="194.0412561802"/>
			<point x="410.08" y="141.72" type="curve" smooth="yes"/>
			<point x="404.4639273318" y="-6.8073559333"/>
			<point x="413.16" y="-39.16"/>
			<point x="415.08" y="-199.28" type="curve" smooth="yes"/>
			<point x="416.04" y="-233.28"/>
			<point x="437.4" y="-260"/>
			<point x="468.28" y="-260" type="curve" smooth="yes"/>
			<point x="504.44" y="-260"/>
			<point x="540.076146122" y="-230.0033721432"/>
			<point x="578.8" y="-196" type="curve" smooth="yes"/>
			<point x="590.8" y="-185"/>
			<point x="598.8" y="-169"/>
			<point x="598.8" y="-151" type="curve" smooth="yes"/>
			<point x="598.8" y="-120.012631579"/>
			<point x="585.64" y="-94.44"/>
			<point x="569.56" y="-94.44" type="curve" smooth="yes"/>
			<point x="544.76" y="-94.44"/>
			<point x="526.5129653508" y="-120.5697340852"/>
			<point x="495.8" y="-138.12" type="curve" smooth="yes"/>
			<point x="471.8187401979" y="-151.6519054892"/>
			<point x="514.36" y="-180.48"/>
			<point x="513.4" y="-143.32" type="curve" smooth="yes"/>
			<point x="511.48" y="3.4053598015"/>
			<point x="506.4202381197" y="65.9449394405"/>
			<point x="504" y="199.96" type="curve"/>
			<point x="514.2322004317" y="228.9365242059"/>
			<point x="527.2" y="268.1608510638"/>
			<point x="527.2" y="311.2" type="curve" smooth="yes"/>
			<point x="527.2" y="343.1822222222"/>
			<point x="506.8" y="368"/>
			<point x="473.6" y="368" type="curve" smooth="yes"/>
			<point x="451.6" y="368"/>
			<point x="439.6" y="356"/>
			<point x="434.96" y="335.64" type="curve" smooth="yes"/>
			<point x="400" y="183.72"/>
			<point x="315.6" y="88.6"/>
			<point x="214.6" y="88.6" type="curve" smooth="yes"/>
			<point x="165.3057142857" y="88.6"/>
			<point x="137.6" y="117.6038709677"/>
			<point x="137.6" y="171.8" type="curve" smooth="yes"/>
			<point x="137.6" y="279.128"/>
			<point x="236.3904081632" y="405"/>
			<point x="318.6" y="405" type="curve" smooth="yes"/>
			<point x="353.84" y="405"/>
			<point x="368.92" y="391.52"/>
			<point x="390.84" y="358.16" type="curve" smooth="yes"/>
			<point x="400.8145025327" y="341.4714333845"/>
			<point x="412.76" y="333.56"/>
		</contour>
	</outline>
</glyph>
<glyph name="r" format="2">
	<unicode hex="0072"/>
	<advance width="487"/>
	<outline>
		<contour>
			<point x="162.6" y="-12" type="curve" smooth="yes"/>
			<point x="196.36" y="-12"/>
			<point x="205.32" y="6.56"/>
			<point x="212.84" y="74.24" type="curve" smooth="yes"/>
			<point x="228.12" y="245.52"/>
			<point x="266.76" y="364.96"/>
			<point x="411.36" y="402.72" type="curve" smooth="yes"/>
			<point x="441.04" y="410.84"/>
			<point x="449.72" y="431"/>
			<point x="449.72" y="450.12" type="curve" smooth="yes"/>
			<point x="449.72" y="481.76"/>
			<point x="438.84" y="504.68"/>
			<point x="405.16" y="504.68" type="curve" smooth="yes"/>
			<point x="304.92" y="504.68"/>
			<point x="181.32" y="413.92"/>
			<point x="154.96" y="170.48" type="curve"/>
			<point x="193.32" y="154.08" type="line"/>
			<point x="192.84" y="426.32"/>
			<point x="160.68" y="496.72"/>
			<point x="103.16" y="496.72" type="curve" smooth="yes"/>
			<point x="78.64" y="496.72"/>
			<point x="63.16" y="480.3062068965"/>
			<point x="63.16" y="456.44" type="curve" smooth="yes"/>
			<point x="63.16" y="438.6488888889"/>
			<point x="65.7541943928" y="425.5972008294"/>
			<point x="76.04" y="393.48" type="curve" smooth="yes"/>
			<point x="97.52" y="325.12"/>
			<point x="104.12" y="200.28"/>
			<point x="104.12" y="68.76" type="curve" smooth="yes"/>
			<point x="104.12" y="24.6"/>
			<point x="132.36" y="-12"/>
		</contour>
	</outline>
</glyph>
<glyph name="s" format="2">
	<unicode hex="0073"/>
	<advance width="502"/>
	<outline>
		<contour>
			<point x="180.6" y="-10" type="curve" smooth="yes"/>
			<point x="319.2" y="-10"/>
			<point x="450.8" y="38.84"/>
			<point x="450.8" y="148.8" type="curve" smooth="yes"/>
			<point x="450.8" y="296.84"/>
			<point x="174.56" y="269.96"/>
			<point x="156.6" y="342.48" type="curve"/>
			<point x="184.4" y="383.16"/>
			<point x="242.2123076923" y="405.12"/>
			<point x="321.08" y="405.12" type="curve" smooth="yes"/>
			<point x="344.56" y="405.12"/>
			<point x="360.08" y="401.84"/>
			<point x="371.84" y="401.84" type="curve" smooth="yes"/>
			<point x="392.16" y="401.84"/>
			<point x="404.4" y="417.6"/>
			<point x="404.4" y="440.6" type="curve" smooth="yes"/>
			<point x="404.4" y="469.8836363636"/>
			<point x="373.279297892" y="504.9600163281"/>
			<point x="322.6" y="505.96" type="curve" smooth="yes"/>
			<point x="196.64" y="508.96"/>
			<point x="62.4" y="443.28"/>
			<point x="62.4" y="344" type="curve" smooth="yes"/>
			<point x="62.4" y="198.04"/>
			<point x="323.56" y="225.88"/>
			<point x="353.6" y="148.36" type="curve"/>
			<point x="330.008909362" y="105.7767978076"/>
			<point x="262.8" y="88.6"/>
			<point x="181.72" y="88.6" type="curve" smooth="yes"/>
			<point x="113.28" y="88.6"/>
			<point x="104.88" y="114.2"/>
			<point x="77.16" y="114.2" type="curve" smooth="yes"/>
			<point x="54.32" y="114.2"/>
			<point x="42.4" y="98"/>
			<point x="42.4" y="78.8" type="curve" smooth="yes"/>
			<point x="42.4" y="37.04"/>
			<point x="91.44" y="-10"/>
		</contour>
	</outline>
</glyph>
<glyph name="t" format="2">
	<unicode hex="0074"/>
	<advance width="462"/>
	<outline>
		<contour>
			<point x="172.32" y="305.84" type="curve" smooth="yes"/>
			<point x="172.32" y="412.8"/>
			<point x="189.12" y="460.16"/>
			<point x="199.32" y="557.32" type="curve" smooth="yes"/>
			<point x="208.16" y="658.48"/>
			<point x="187.84" y="709.2"/>
			<point x="138.16" y="709.2" type="curve" smooth="yes"/>
			<point x="109.48" y="709.2"/>
			<point x="102.2" y="694"/>
			<point x="100.84" y="674.84" type="curve" smooth="yes"/>
			<point x="98.12" y="641.48"/>
			<point x="101.52" y="608.04"/>
			<point x="96.08" y="546.88" type="curve" smooth="yes"/>
			<point x="88.6" y="470.16"/>
			<point x="71.4" y="403.6554356847"/>
			<point x="71.4" y="301.2" type="curve" smooth="yes"/>
			<point x="71.4" y="112.68"/>
			<point x="133.28" y="-13"/>
			<point x="306.12" y="-13" type="curve" smooth="yes"/>
			<point x="380.68" y="-13"/>
			<point x="421.48" y="26.64"/>
			<point x="421.48" y="74.6" type="curve" smooth="yes"/>
			<point x="421.48" y="99.32"/>
			<point x="413.4844444445" y="111.52"/>
			<point x="395.4" y="111.52" type="curve" smooth="yes"/>
			<point x="369.1166197183" y="111.52"/>
			<point x="364.4715492957" y="89.48"/>
			<point x="314.96" y="89.48" type="curve" smooth="yes"/>
			<point x="220.3896296296" y="89.48"/>
			<point x="172.32" y="144.96"/>
		</contour>
		<contour>
			<point x="170.08" y="367.8" type="curve" smooth="yes"/>
			<point x="230.4" y="392.68"/>
			<point x="282.24" y="406.76"/>
			<point x="371.64" y="413.44" type="curve" smooth="yes"/>
			<point x="396.96" y="415.44"/>
			<point x="408.56" y="427.24"/>
			<point x="408.56" y="447.84" type="curve" smooth="yes"/>
			<point x="408.56" y="478.36"/>
			<point x="376.68" y="504.6"/>
			<point x="336.6" y="504.6" type="curve" smooth="yes"/>
			<point x="286.4" y="504.6"/>
			<point x="220.88" y="491.6"/>
			<point x="171" y="472.96" type="curve" smooth="yes"/>
			<point x="115.8" y="452.68"/>
			<point x="108.44" y="430.28"/>
			<point x="108.44" y="400.52" type="curve" smooth="yes"/>
			<point x="108.44" y="370.64"/>
			<point x="130.84" y="350.96"/>
		</contour>
	</outline>
</glyph>
<glyph name="u" format="2">
	<unicode hex="0075"/>
	<advance width="598"/>
	<outline>
		<contour>
			<point x="312.6" y="-10" type="curve" smooth="yes"/>
			<point x="430.6454054054" y="-10"/>
			<point x="523.8" y="112.1297494417"/>
			<point x="523.8" y="363.96" type="curve" smooth="yes"/>
			<point x="523.8" y="463.48"/>
			<point x="498.04" y="497.96"/>
			<point x="456.16" y="497.96" type="curve" smooth="yes"/>
			<point x="426.64" y="497.96"/>
			<point x="418.44" y="481.2"/>
			<point x="418.44" y="453.96" type="curve" smooth="yes"/>
			<point x="418.44" y="419.92"/>
			<point x="424.48" y="401.04"/>
			<point x="424.48" y="350.16" type="curve" smooth="yes"/>
			<point x="424.48" y="182.7890528838"/>
			<point x="379.24" y="90.2"/>
			<point x="300.6" y="90.2" type="curve" smooth="yes"/>
			<point x="233.6" y="90.2"/>
			<point x="156.32" y="203.2859378596"/>
			<point x="156.32" y="299.32" type="curve" smooth="yes"/>
			<point x="156.32" y="382.64"/>
			<point x="179.68" y="400.96"/>
			<point x="179.68" y="438.2" type="curve" smooth="yes"/>
			<point x="179.68" y="470.6796396396"/>
			<point x="155.92" y="496.24"/>
			<point x="125.08" y="496.24" type="curve" smooth="yes"/>
			<point x="107.24" y="496.24"/>
			<point x="92.68" y="484.68"/>
			<point x="87.4" y="469.48" type="curve" smooth="yes"/>
			<point x="65.5459919573" y="413.4849798932"/>
			<point x="55.4" y="360.2173493976"/>
			<point x="55.4" y="299.32" type="curve" smooth="yes"/>
			<point x="55.4" y="169.6358388356"/>
			<point x="156.2474626866" y="-10"/>
		</contour>
	</outline>
</glyph>
<glyph name="v" format="2">
	<unicode hex="0076"/>
	<advance width="549"/>
	<outline>
		<contour>
			<point x="205.8" y="39.8" type="curve" smooth="yes"/>
			<point x="228.56" y="4.84"/>
			<point x="247.6" y="-10"/>
			<point x="275.48" y="-10" type="curve" smooth="yes"/>
			<point x="298.32" y="-10"/>
			<point x="309.24" y="0.28"/>
			<point x="321.52" y="29.48" type="curve" smooth="yes"/>
			<point x="391.64" y="193.76"/>
			<point x="415.64" y="287.92"/>
			<point x="507.16" y="411.16" type="curve" smooth="yes"/>
			<point x="514.16" y="420.8"/>
			<point x="519.16" y="432.72"/>
			<point x="519.16" y="446" type="curve" smooth="yes"/>
			<point x="519.16" y="473.8"/>
			<point x="493.6" y="504.24"/>
			<point x="470.2" y="504.24" type="curve" smooth="yes"/>
			<point x="450" y="504.24"/>
			<point x="440.76" y="497.52"/>
			<point x="425.84" y="479.64" type="curve" smooth="yes"/>
			<point x="344.72" y="377.16"/>
			<point x="312.44" y="254.64"/>
			<point x="248.56" y="107.52" type="curve"/>
			<point x="284.64" y="106.36" type="line"/>
			<point x="243.36" y="180.52"/>
			<point x="213.32" y="288.92"/>
			<point x="182.16" y="374.32" type="curve" smooth="yes"/>
			<point x="157.52" y="439.88"/>
			<point x="128.28" y="502.24"/>
			<point x="65.12" y="502.24" type="curve" smooth="yes"/>
			<point x="41" y="502.24"/>
			<point x="28.44" y="488.4"/>
			<point x="28.44" y="472.64" type="curve" smooth="yes"/>
			<point x="28.44" y="429.36"/>
			<point x="59.6" y="420.24"/>
			<point x="112.36" y="275.12" type="curve" smooth="yes"/>
			<point x="142.52" y="192.92"/>
			<point x="176.08" y="86.24"/>
		</contour>
	</outline>
</glyph>
<glyph name="w" format="2">
	<unicode hex="0077"/>
	<advance width="876"/>
	<outline>
		<contour>
			<point x="144.12" y="443.84" type="curve" smooth="yes"/>
			<point x="196.92" y="338.96"/>
			<point x="199.4" y="176.56"/>
			<point x="252.12" y="88.2" type="curve" smooth="yes"/>
			<point x="270.36" y="58.76"/>
			<point x="198.96" y="57.36"/>
			<point x="218.04" y="85.84" type="curve" smooth="yes"/>
			<point x="258" y="148.44"/>
			<point x="280.4" y="278.36"/>
			<point x="317.32" y="374.12" type="curve" smooth="yes"/>
			<point x="350.92" y="462.6"/>
			<point x="377.44" y="502.88"/>
			<point x="421.6" y="502.88" type="curve" smooth="yes"/>
			<point x="479.28" y="502.88"/>
			<point x="512.12" y="452.64"/>
			<point x="554.6" y="344.28" type="curve" smooth="yes"/>
			<point x="588.68" y="254.24"/>
			<point x="610.6" y="143.92"/>
			<point x="663.8" y="95.84" type="curve" smooth="yes"/>
			<point x="706.84" y="57.92"/>
			<point x="614.84" y="44.4"/>
			<point x="637.72" y="89.28" type="curve" smooth="yes"/>
			<point x="683.36" y="172.84"/>
			<point x="681.2" y="315.32"/>
			<point x="712.52" y="411.4" type="curve" smooth="yes"/>
			<point x="729.2" y="462"/>
			<point x="761.5571134021" y="504.88"/>
			<point x="805.6" y="504.88" type="curve" smooth="yes"/>
			<point x="830.2494915255" y="504.88"/>
			<point x="852.72" y="482.36"/>
			<point x="852.72" y="459.2" type="curve" smooth="yes"/>
			<point x="852.72" y="438.2"/>
			<point x="841.72" y="418.2"/>
			<point x="826.04" y="402.92" type="curve" smooth="yes"/>
			<point x="785.8497147215" y="361.5492761428"/>
			<point x="778.1476311879" y="246.3425683538"/>
			<point x="761.6" y="159.72" type="curve" smooth="yes"/>
			<point x="734.44" y="17.64"/>
			<point x="705.6" y="-13"/>
			<point x="661.6" y="-13" type="curve" smooth="yes"/>
			<point x="622.7506122449" y="-13"/>
			<point x="598.12" y="6.24"/>
			<point x="558.52" y="71.12" type="curve" smooth="yes"/>
			<point x="496.92" y="173.36"/>
			<point x="472.68" y="341.6"/>
			<point x="420.68" y="399.6" type="curve" smooth="yes"/>
			<point x="391.56" y="430.04"/>
			<point x="460.12" y="431.64"/>
			<point x="437.84" y="403.36" type="curve" smooth="yes"/>
			<point x="388.12" y="339.72"/>
			<point x="368.88" y="191.16"/>
			<point x="316.2" y="62.48" type="curve" smooth="yes"/>
			<point x="292.56" y="5.12"/>
			<point x="271.24" y="-15"/>
			<point x="232.6" y="-15" type="curve" smooth="yes"/>
			<point x="187.64" y="-15"/>
			<point x="155.32" y="21.88"/>
			<point x="129.56" y="124.2" type="curve" smooth="yes"/>
			<point x="103" y="230"/>
			<point x="86" y="349.48"/>
			<point x="39.2" y="425.4" type="curve" smooth="yes"/>
			<point x="8.08" y="475.92"/>
			<point x="29.6" y="505.88"/>
			<point x="69.12" y="505.88" type="curve" smooth="yes"/>
			<point x="95.44" y="505.88"/>
			<point x="117.4" y="498.64"/>
		</contour>
	</outline>
</glyph>
<glyph name="x" format="2">
	<unicode hex="0078"/>
	<advance width="528"/>
	<outline>
		<contour>
			<point x="466.84" y="406.48" type="curve" smooth="yes"/>
			<point x="318.1764947278" y="318.2115650665"/>
			<point x="199.16" y="162.88"/>
			<point x="143.6" y="-7.24" type="curve" smooth="yes"/>
			<point x="134.32" y="-38.84"/>
			<point x="116.2" y="-59.08"/>
			<point x="96.88" y="-59.08" type="curve" smooth="yes"/>
			<point x="78.76" y="-59.08"/>
			<point x="54.72" y="-50.88"/>
			<point x="54.72" y="3.04" type="curve" smooth="yes"/>
			<point x="54.72" y="99.36"/>
			<point x="180.32" y="317.52"/>
			<point x="350.16" y="447.84" type="curve" smooth="yes"/>
			<point x="410.64" y="496"/>
			<point x="437.44" y="505.96"/>
			<point x="458.52" y="505.96" type="curve" smooth="yes"/>
			<point x="486.68" y="505.96"/>
			<point x="500.84" y="488.32"/>
			<point x="500.84" y="457.68" type="curve" smooth="yes"/>
			<point x="500.84" y="438.48"/>
			<point x="492.84" y="422.48"/>
		</contour>
		<contour>
			<point x="446.56" y="122.88" type="curve" smooth="yes"/>
			<point x="487.56" y="64.88"/>
			<point x="493.56" y="37.88"/>
			<point x="493.56" y="18.88" type="curve" smooth="yes"/>
			<point x="493.56" y="-0.44"/>
			<point x="479.88" y="-11.92"/>
			<point x="455.16" y="-11.92" type="curve" smooth="yes"/>
			<point x="437.24" y="-11.92"/>
			<point x="411.4" y="-2.56"/>
			<point x="385.28" y="34.84" type="curve" smooth="yes"/>
			<point x="302.68" y="149.88"/>
			<point x="169.44" y="310"/>
			<point x="81.56" y="388.36" type="curve" smooth="yes"/>
			<point x="49.52" y="416.68"/>
			<point x="30.48" y="436.64"/>
			<point x="30.48" y="464.72" type="curve" smooth="yes"/>
			<point x="30.48" y="482.76"/>
			<point x="41.96" y="504.6"/>
			<point x="66.64" y="504.6" type="curve" smooth="yes"/>
			<point x="88.16" y="504.6"/>
			<point x="107.72" y="498.08"/>
			<point x="147.72" y="463" type="curve" smooth="yes"/>
			<point x="216" y="403.2"/>
			<point x="384.28" y="209.16"/>
		</contour>
	</outline>
</glyph>
<glyph name="y" format="2">
	<unicode hex="0079"/>
	<advance width="582"/>
	<outline>
		<contour>
			<point x="169.72" y="425.48" type="curve" smooth="yes"/>
			<point x="172.44" y="481.72"/>
			<point x="155.68" y="505.32"/>
			<point x="113.96" y="505.32" type="curve" smooth="yes"/>
			<point x="82.88" y="505.32"/>
			<point x="58.4" y="479.1092215569"/>
			<point x="58.4" y="343" type="curve" smooth="yes"/>
			<point x="58.4" y="134.5986206897"/>
			<point x="129.44" y="44"/>
			<point x="245.6" y="44" type="curve" smooth="yes"/>
			<point x="303.2239130435" y="44"/>
			<point x="385.08" y="77.56"/>
			<point x="435.64" y="249.88" type="curve" smooth="yes"/>
			<point x="445.56" y="283"/>
			<point x="396.8760746828" y="310.1284122454"/>
			<point x="398.92" y="280.44" type="curve" smooth="yes"/>
			<point x="400.96" y="134.04"/>
			<point x="414.8" y="76.56"/>
			<point x="414.8" y="-5" type="curve" smooth="yes"/>
			<point x="414.8" y="-96.7683582089"/>
			<point x="387.28" y="-158.8"/>
			<point x="294.44" y="-158.8" type="curve" smooth="yes"/>
			<point x="183.596" y="-158.8"/>
			<point x="169.824" y="-125.6"/>
			<point x="132.56" y="-125.6" type="curve" smooth="yes"/>
			<point x="107.72" y="-125.6"/>
			<point x="97.12" y="-138.52"/>
			<point x="97.12" y="-165.08" type="curve" smooth="yes"/>
			<point x="97.12" y="-223.54"/>
			<point x="166.7214814815" y="-261"/>
			<point x="297.72" y="-261" type="curve" smooth="yes"/>
			<point x="413.16" y="-261"/>
			<point x="513.8" y="-186.36"/>
			<point x="513.8" y="-5" type="curve" smooth="yes"/>
			<point x="513.8" y="186.68"/>
			<point x="473.8" y="231.32"/>
			<point x="490.8" y="400" type="curve" smooth="yes"/>
			<point x="499.3733521705" y="482.9824043152"/>
			<point x="455.7504761905" y="504.32"/>
			<point x="427.2" y="504.32" type="curve" smooth="yes"/>
			<point x="402.9104" y="504.32"/>
			<point x="395.8013781113" y="497.332747529"/>
			<point x="391.8" y="460.32" type="curve" smooth="yes"/>
			<point x="373.5613501762" y="280.7330292008"/>
			<point x="322.4189349113" y="144.2"/>
			<point x="239.68" y="144.2" type="curve" smooth="yes"/>
			<point x="168.2579310345" y="144.2"/>
			<point x="161.56" y="272.4"/>
		</contour>
	</outline>
</glyph>
<glyph name="z" format="2">
	<unicode hex="007A"/>
	<advance width="613"/>
	<outline>
		<contour>
			<point x="101.52" y="475.44" type="curve" smooth="yes"/>
			<point x="166.96" y="492.52"/>
			<point x="249" y="504.96"/>
			<point x="318.2" y="504.96" type="curve" smooth="yes"/>
			<point x="470.2" y="504.96"/>
			<point x="516.2" y="444.92"/>
			<point x="516.2" y="384.88" type="curve" smooth="yes"/>
			<point x="516.2" y="310.0509090909"/>
			<point x="427.56" y="201.68"/>
			<point x="148.6" y="98.32" type="curve"/>
			<point x="172.04" y="121.52" type="line"/>
			<point x="180.68" y="94.28"/>
			<point x="198.36" y="88"/>
			<point x="232.6" y="88" type="curve" smooth="yes"/>
			<point x="304.2" y="88"/>
			<point x="383.56" y="101.28"/>
			<point x="464.64" y="101.28" type="curve" smooth="yes"/>
			<point x="517.08" y="101.28"/>
			<point x="550" y="74.08"/>
			<point x="550" y="39.6" type="curve" smooth="yes"/>
			<point x="550" y="17.2"/>
			<point x="534.4" y="0"/>
			<point x="505.04" y="0" type="curve" smooth="yes"/>
			<point x="427.08" y="0"/>
			<point x="308.48" y="-10"/>
			<point x="216.2" y="-10" type="curve" smooth="yes"/>
			<point x="97.68" y="-10"/>
			<point x="64.4" y="44.88"/>
			<point x="64.4" y="97.36" type="curve" smooth="yes"/>
			<point x="64.4" y="135.44"/>
			<point x="80.48" y="160.72"/>
			<point x="113.48" y="173.12" type="curve" smooth="yes"/>
			<point x="315.0726415693" y="252.232745245"/>
			<point x="419.3772085752" y="331.6344171504"/>
			<point x="421.56" y="408.76" type="curve"/>
			<point x="446.56" y="360.48" type="line"/>
			<point x="417.88" y="394.2"/>
			<point x="386.52" y="406"/>
			<point x="321.72" y="406" type="curve" smooth="yes"/>
			<point x="212.52" y="406"/>
			<point x="148.64" y="375.52"/>
			<point x="111.52" y="375.52" type="curve" smooth="yes"/>
			<point x="90.2" y="375.52"/>
			<point x="67.88" y="404.04"/>
			<point x="67.88" y="434.56" type="curve" smooth="yes"/>
			<point x="67.88" y="456.68"/>
			<point x="75.48" y="468.48"/>
		</contour>
	</outline>
</glyph>
<glyph name="section" format="2">
	<unicode hex="00A7"/>
	<advance width="574"/>
	<outline>
		<contour>
			<point x="214.4" y="-259.32" type="curve"/>
			<point x="372.64" y="-259.32"/>
			<point x="515.2" y="-211.12"/>
			<point x="515.2" y="-110.2" type="curve" smooth="yes"/>
			<point x="515.2" y="59.32"/>
			<point x="159.04" y="77"/>
			<point x="159.04" y="181.44" type="curve" smooth="yes"/>
			<point x="159.04" y="224.3466666666"/>
			<point x="197.73215083" y="255.2350981948"/>
			<point x="290.52" y="278.08" type="curve"/>
			<point x="218.28" y="328.4" type="line"/>
			<point x="117.5236114087" y="304.3894972812"/>
			<point x="60.6" y="252.24"/>
			<point x="60.6" y="177.48" type="curve" smooth="yes"/>
			<point x="60.6" y="-0.12"/>
			<point x="385.5193061719" y="-8.1954718588"/>
			<point x="409" y="-113" type="curve"/>
			<point x="366.04" y="-142.36"/>
			<point x="294.48" y="-159.64"/>
			<point x="202.24" y="-159.64" type="curve"/>
			<point x="126.56" y="-159.64"/>
			<point x="115.36" y="-144.2"/>
			<point x="84.8" y="-144.2" type="curve" smooth="yes"/>
			<point x="57.76" y="-144.2"/>
			<point x="48.44" y="-157.04"/>
			<point x="48.44" y="-179.12" type="curve" smooth="yes"/>
			<point x="48.44" y="-222.6"/>
			<point x="97.68" y="-259.32"/>
		</contour>
		<contour>
			<point x="324.4" y="21.6" type="line"/>
			<point x="445.36" y="30.44"/>
			<point x="521.8" y="82.32"/>
			<point x="521.8" y="160.12" type="curve" smooth="yes"/>
			<point x="521.8" y="318.36"/>
			<point x="171.4" y="339.68"/>
			<point x="171.4" y="428.56" type="curve" smooth="yes"/>
			<point x="171.4" y="500.72"/>
			<point x="284.56" y="576.88"/>
			<point x="472.32" y="610.6" type="curve" smooth="yes"/>
			<point x="505.68" y="615.92"/>
			<point x="520.2" y="633.36"/>
			<point x="520.2" y="657.16" type="curve" smooth="yes"/>
			<point x="520.2" y="687.12"/>
			<point x="503.68" y="710"/>
			<point x="462.96" y="710" type="curve" smooth="yes"/>
			<point x="327.04" y="710"/>
			<point x="67.2" y="597.72"/>
			<point x="67.2" y="427.8" type="curve" smooth="yes"/>
			<point x="67.2" y="255.64"/>
			<point x="399.88" y="247.88"/>
			<point x="423.36" y="150.72" type="curve"/>
			<point x="391.88" y="108.8"/>
			<point x="327.8" y="84.96"/>
			<point x="230.16" y="82.68" type="curve"/>
		</contour>
	</outline>
</glyph>
<glyph name="endash" format="2">
	<unicode hex="2013"/>
	<advance width="700"/>
	<outline>
		<contour>
			<point x="146.16" y="200.48" type="curve" smooth="yes"/>
			<point x="210.190031489" y="200.48"/>
			<point x="313.0960435571" y="210.48"/>
			<point x="598.48" y="210.48" type="curve" smooth="yes"/>
			<point x="630.16" y="210.48"/>
			<point x="648.84" y="224.68"/>
			<point x="648.84" y="247.48" type="curve" smooth="yes"/>
			<point x="648.84" y="269.199266055"/>
			<point x="620.12" y="304.84"/>
			<point x="539.88" y="304.84" type="curve" smooth="yes"/>
			<point x="387.2014693877" y="304.84"/>
			<point x="242.0216424072" y="300.5123000398"/>
			<point x="83.8" y="287.64" type="curve" smooth="yes"/>
			<point x="56.9724892414" y="284.9244812747"/>
			<point x="50.52" y="267.88"/>
			<point x="50.52" y="252.88" type="curve" smooth="yes"/>
			<point x="50.52" y="227.1460194175"/>
			<point x="84.2677300613" y="200.48"/>
		</contour>
	</outline>
</glyph>
<glyph name="emdash" format="2">
	<unicode hex="2014"/>
	<advance width="1000"/>
	<outline>
		<contour>
			<point x="146.16" y="200.48" type="curve" smooth="yes"/>
			<point x="252.3769722815" y="200.48"/>
			<point x="423.6593034826" y="210.48"/>
			<point x="899.12" y="210.48" type="curve" smooth="yes"/>
			<point x="930.8" y="210.48"/>
			<point x="949.48" y="224.68"/>
			<point x="949.48" y="247.48" type="curve" smooth="yes"/>
			<point x="949.48" y="269.12"/>
			<point x="920.76" y="304.84"/>
			<point x="840.52" y="304.84" type="curve" smooth="yes"/>
			<point x="586.8021561383" y="304.84"/>
			<point x="346.44" y="300.56"/>
			<point x="83.8" y="287.64" type="curve" smooth="yes"/>
			<point x="56.88" y="286.32"/>
			<point x="50.52" y="268.04"/>
			<point x="50.52" y="252.88" type="curve" smooth="yes"/>
			<point x="50.52" y="227"/>
			<point x="84.36" y="200.48"/>
		</contour>
	</outline>
</glyph>
<glyph name="quoteleft" format="2">
	<unicode hex="2018"/>
	<advance width="221"/>
	<outline>
		<contour>
			<point x="198.92" y="810.28" type="curve" smooth="yes"/>
			<point x="174.52" y="810.28"/>
			<point x="157.36" y="802.36"/>
			<point x="129.32" y="765.04" type="curve" smooth="yes"/>
			<point x="78.12" y="697.2"/>
			<point x="46.24" y="607.4"/>
			<point x="46.24" y="538.2" type="curve" smooth="yes"/>
			<point x="46.24" y="487.72"/>
			<point x="69" y="442.2"/>
			<point x="102.32" y="442.2" type="curve" smooth="yes"/>
			<point x="127.72" y="442.2"/>
			<point x="140.92" y="461"/>
			<point x="152.28" y="514.08" type="curve" smooth="yes"/>
			<point x="163.96" y="569.76"/>
			<point x="184" y="630.64"/>
			<point x="235.52" y="692.84" type="curve" smooth="yes"/>
			<point x="254.28" y="715.6"/>
			<point x="257.92" y="726.16"/>
			<point x="257.92" y="738.36" type="curve" smooth="yes"/>
			<point x="258.6" y="770.36"/>
			<point x="236.52" y="810.28"/>
		</contour>
	</outline>
</glyph>
<glyph name="quoteright" format="2">
	<unicode hex="2019"/>
	<advance width="231"/>
	<outline>
		<contour>
			<point x="186.16" y="812.32" type="curve" smooth="yes"/>
			<point x="162.36" y="812.32"/>
			<point x="148.8" y="802.4"/>
			<point x="127.36" y="760.96" type="curve" smooth="yes"/>
			<point x="86.52" y="683.12"/>
			<point x="53.08" y="574.48"/>
			<point x="53.08" y="499.68" type="curve" smooth="yes"/>
			<point x="53.08" y="450.6"/>
			<point x="73.28" y="415"/>
			<point x="104.36" y="415" type="curve" smooth="yes"/>
			<point x="129.76" y="415"/>
			<point x="142.6" y="432.44"/>
			<point x="155.8" y="477.52" type="curve" smooth="yes"/>
			<point x="171.36" y="532.72"/>
			<point x="182.4" y="590.72"/>
			<point x="228.8" y="674.96" type="curve" smooth="yes"/>
			<point x="252.04" y="716.52"/>
			<point x="255.68" y="730.72"/>
			<point x="255.68" y="746.92" type="curve" smooth="yes"/>
			<point x="255.68" y="776.96"/>
			<point x="218.44" y="812.32"/>
		</contour>
	</outline>
</glyph>
<glyph name="quotedblleft" format="2">
	<unicode hex="201C"/>
	<advance width="443"/>
	<outline>
		<contour>
			<point x="194.36" y="810.28" type="curve" smooth="yes"/>
			<point x="170.28" y="810.28"/>
			<point x="153.76" y="802.36"/>
			<point x="125.72" y="765.04" type="curve" smooth="yes"/>
			<point x="74.52" y="697.2"/>
			<point x="42.64" y="607.4"/>
			<point x="42.64" y="538.2" type="curve" smooth="yes"/>
			<point x="42.64" y="487.72"/>
			<point x="65.4" y="442.2"/>
			<point x="98.72" y="442.2" type="curve" smooth="yes"/>
			<point x="124.12" y="442.2"/>
			<point x="137.32" y="461"/>
			<point x="148.68" y="514.08" type="curve" smooth="yes"/>
			<point x="160.36" y="569.76"/>
			<point x="180.4" y="630.64"/>
			<point x="231.92" y="692.84" type="curve" smooth="yes"/>
			<point x="251.32" y="716.56"/>
			<point x="254.96" y="728.08"/>
			<point x="254.96" y="741.24" type="curve" smooth="yes"/>
			<point x="255.64" y="771.96"/>
			<point x="232.92" y="810.28"/>
		</contour>
		<contour>
			<point x="365.96" y="718.68" type="curve" smooth="yes"/>
			<point x="341.56" y="718.68"/>
			<point x="324.4" y="710.76"/>
			<point x="297.72" y="673.44" type="curve" smooth="yes"/>
			<point x="260.92" y="622.28"/>
			<point x="241.44" y="547.1866108786"/>
			<point x="241.44" y="491.84" type="curve" smooth="yes"/>
			<point x="241.44" y="441.36"/>
			<point x="264.2" y="395.84"/>
			<point x="297.52" y="395.84" type="curve" smooth="yes"/>
			<point x="322.92" y="395.84"/>
			<point x="336.12" y="414.64"/>
			<point x="347.48" y="467.72" type="curve" smooth="yes"/>
			<point x="356.3085364234" y="509.1331699758"/>
			<point x="367.8" y="553.36"/>
			<point x="404.6" y="599.88" type="curve" smooth="yes"/>
			<point x="425.28" y="627.6"/>
			<point x="429.52" y="640.4314285714"/>
			<point x="429.52" y="655.28" type="curve" smooth="yes"/>
			<point x="430.1372026181" y="683.5328628347"/>
			<point x="406.3655813954" y="718.68"/>
		</contour>
	</outline>
</glyph>
<glyph name="quotedblright" format="2">
	<unicode hex="201D"/>
	<advance width="459"/>
	<outline>
		<contour>
			<point x="182.96" y="812.32" type="curve" smooth="yes"/>
			<point x="159.16" y="812.32"/>
			<point x="145.6" y="802.4"/>
			<point x="124.16" y="760.96" type="curve" smooth="yes"/>
			<point x="83.32" y="683.12"/>
			<point x="49.88" y="574.48"/>
			<point x="49.88" y="499.68" type="curve" smooth="yes"/>
			<point x="49.88" y="450.6"/>
			<point x="70.08" y="415"/>
			<point x="101.16" y="415" type="curve" smooth="yes"/>
			<point x="126.56" y="415"/>
			<point x="139.4" y="432.44"/>
			<point x="152.6" y="477.52" type="curve" smooth="yes"/>
			<point x="168.16" y="532.72"/>
			<point x="179.2" y="590.72"/>
			<point x="225.6" y="674.96" type="curve" smooth="yes"/>
			<point x="248.84" y="716.52"/>
			<point x="252.48" y="730.72"/>
			<point x="252.48" y="746.92" type="curve" smooth="yes"/>
			<point x="252.48" y="776.96"/>
			<point x="215.24" y="812.32"/>
		</contour>
		<contour>
			<point x="382.16" y="739.52" type="curve" smooth="yes"/>
			<point x="358.36" y="739.52"/>
			<point x="344.8" y="729.6"/>
			<point x="323.36" y="688.16" type="curve" smooth="yes"/>
			<point x="292.3153258806" y="628.6243716046"/>
			<point x="269.08" y="547.0278260869"/>
			<point x="269.08" y="490.48" type="curve" smooth="yes"/>
			<point x="269.08" y="443"/>
			<point x="291.2" y="409"/>
			<point x="325.8" y="409" type="curve" smooth="yes"/>
			<point x="348.64" y="409"/>
			<point x="360.52" y="424.84"/>
			<point x="371.8" y="468.32" type="curve" smooth="yes"/>
			<point x="381.362136754" y="506.4467850181"/>
			<point x="388.0040352315" y="545.9721994792"/>
			<point x="423.52" y="603.76" type="curve" smooth="yes"/>
			<point x="448.04" y="643.72"/>
			<point x="451.68" y="657.92"/>
			<point x="451.68" y="674.12" type="curve" smooth="yes"/>
			<point x="451.68" y="704.16"/>
			<point x="414.44" y="739.52"/>
		</contour>
	</outline>
</glyph>
<glyph name="dagger" format="2">
	<unicode hex="2020"/>
	<advance width="564"/>
	<outline>
		<contour>
			<point x="344.2" y="629.64" type="curve" smooth="yes"/>
			<point x="344.2" y="521.88"/>
			<point x="328.04" y="395.04"/>
			<point x="328.04" y="210.2" type="curve" smooth="yes"/>
			<point x="328.04" y="-39.72"/>
			<point x="346.56" y="-83.28"/>
			<point x="346.56" y="-203.16" type="curve" smooth="yes"/>
			<point x="346.56" y="-245.52"/>
			<point x="325.04" y="-261.28"/>
			<point x="301.48" y="-261.28" type="curve" smooth="yes"/>
			<point x="277.2" y="-261.28"/>
			<point x="259.44" y="-242.48"/>
			<point x="253.56" y="-207.36" type="curve" smooth="yes"/>
			<point x="228.24" y="-39.4"/>
			<point x="228.36" y="69"/>
			<point x="228.36" y="212.36" type="curve" smooth="yes"/>
			<point x="228.36" y="409.16"/>
			<point x="246.12" y="542.8"/>
			<point x="244.52" y="664.76" type="curve" smooth="yes"/>
			<point x="243.88" y="692.08"/>
			<point x="255.48" y="713.92"/>
			<point x="283.4" y="713.92" type="curve" smooth="yes"/>
			<point x="317.8" y="713.92"/>
			<point x="344.2" y="686.84"/>
		</contour>
		<contour>
			<point x="87.92" y="364.28" type="curve" smooth="yes"/>
			<point x="52.2" y="358.84"/>
			<point x="32.68" y="382.0548837209"/>
			<point x="32.68" y="409.84" type="curve" smooth="yes"/>
			<point x="33.36" y="439.1071264368"/>
			<point x="42.9471465404" y="459.3970620664"/>
			<point x="100.72" y="469.96" type="curve" smooth="yes"/>
			<point x="216.64" y="492.2"/>
			<point x="356.24" y="504.6"/>
			<point x="467.44" y="504.6" type="curve" smooth="yes"/>
			<point x="510.4" y="504.6"/>
			<point x="539.4" y="482.2"/>
			<point x="539.4" y="451.04" type="curve" smooth="yes"/>
			<point x="539.4" y="427.24"/>
			<point x="527.8" y="414.8"/>
			<point x="493.52" y="413.44" type="curve" smooth="yes"/>
			<point x="280.12" y="403.92"/>
			<point x="187.08" y="381.28"/>
		</contour>
	</outline>
</glyph>
<glyph name="daggerdbl" format="2">
	<unicode hex="2021"/>
	<advance width="564"/>
	<outline>
		<contour>
			<point x="347.4" y="629.64" type="curve" smooth="yes"/>
			<point x="347.4" y="521.88"/>
			<point x="331.24" y="395.04"/>
			<point x="331.24" y="210.2" type="curve" smooth="yes"/>
			<point x="331.24" y="-39.72"/>
			<point x="349.76" y="-83.28"/>
			<point x="349.76" y="-203.16" type="curve" smooth="yes"/>
			<point x="349.76" y="-245.52"/>
			<point x="328.24" y="-261.28"/>
			<point x="304.68" y="-261.28" type="curve" smooth="yes"/>
			<point x="280.4" y="-261.28"/>
			<point x="262.64" y="-242.48"/>
			<point x="256.76" y="-207.36" type="curve" smooth="yes"/>
			<point x="231.44" y="-39.4"/>
			<point x="231.56" y="69"/>
			<point x="231.56" y="212.36" type="curve" smooth="yes"/>
			<point x="231.56" y="409.16"/>
			<point x="249.32" y="542.8"/>
			<point x="247.72" y="664.76" type="curve" smooth="yes"/>
			<point x="247.08" y="692.08"/>
			<point x="258.68" y="713.92"/>
			<point x="286.6" y="713.92" type="curve" smooth="yes"/>
			<point x="321" y="713.92"/>
			<point x="347.4" y="686.84"/>
		</contour>
		<contour>
			<point x="87.92" y="366.84" type="curve" smooth="yes"/>
			<point x="52.2" y="361.4"/>
			<point x="32.68" y="384.76"/>
			<point x="32.68" y="412.72" type="curve" smooth="yes"/>
			<point x="33.36" y="441.84"/>
			<point x="42.96" y="461.64"/>
			<point x="101.68" y="471.24" type="curve" smooth="yes"/>
			<point x="218.56" y="491.88"/>
			<point x="356.24" y="504.6"/>
			<point x="467.44" y="504.6" type="curve" smooth="yes"/>
			<point x="510.4" y="504.6"/>
			<point x="539.4" y="482.2"/>
			<point x="539.4" y="451.04" type="curve" smooth="yes"/>
			<point x="539.4" y="427.24"/>
			<point x="527.8" y="414.8"/>
			<point x="493.52" y="413.44" type="curve" smooth="yes"/>
			<point x="277.56" y="403.92"/>
			<point x="186.44" y="383.84"/>
		</contour>
		<contour>
			<point x="87.92" y="-11.28" type="curve" smooth="yes"/>
			<point x="52.2" y="-16.72"/>
			<point x="32.68" y="6.64"/>
			<point x="32.68" y="34.6" type="curve" smooth="yes"/>
			<point x="33.36" y="63.72"/>
			<point x="43.92" y="83.52"/>
			<point x="103.6" y="92.48" type="curve" smooth="yes"/>
			<point x="222.08" y="111.84"/>
			<point x="356.24" y="122.64"/>
			<point x="467.44" y="122.64" type="curve" smooth="yes"/>
			<point x="510.4" y="122.64"/>
			<point x="539.4" y="100.24"/>
			<point x="539.4" y="69.08" type="curve" smooth="yes"/>
			<point x="539.4" y="45.28"/>
			<point x="527.8" y="32.84"/>
			<point x="493.52" y="31.48" type="curve" smooth="yes"/>
			<point x="279.48" y="21.96"/>
			<point x="185.16" y="5.72"/>
		</contour>
	</outline>
</glyph>
<glyph name="ellipsis" format="2">
	<unicode hex="2026"/>
	<advance width="867"/>
	<outline>
		<contour>
			<point x="178.24" y="-11.92" type="curve" smooth="yes"/>
			<point x="221.84" y="-11.92"/>
			<point x="241.24" y="16.64"/>
			<point x="241.24" y="46.12" type="curve" smooth="yes"/>
			<point x="241.24" y="92.64"/>
			<point x="208.4" y="143.96"/>
			<point x="142.48" y="143.96" type="curve" smooth="yes"/>
			<point x="108.16" y="143.96"/>
			<point x="79.76" y="119.48"/>
			<point x="79.76" y="80.6" type="curve" smooth="yes"/>
			<point x="79.76" y="27.44"/>
			<point x="119.6" y="-11.92"/>
		</contour>
		<contour>
			<point x="451.04" y="-11.92" type="curve" smooth="yes"/>
			<point x="494.64" y="-11.92"/>
			<point x="514.04" y="16.64"/>
			<point x="514.04" y="46.12" type="curve" smooth="yes"/>
			<point x="514.04" y="92.64"/>
			<point x="481.2" y="143.96"/>
			<point x="415.28" y="143.96" type="curve" smooth="yes"/>
			<point x="380.96" y="143.96"/>
			<point x="352.56" y="119.48"/>
			<point x="352.56" y="80.6" type="curve" smooth="yes"/>
			<point x="352.56" y="27.44"/>
			<point x="392.4" y="-11.92"/>
		</contour>
		<contour>
			<point x="723.84" y="-11.92" type="curve" smooth="yes"/>
			<point x="767.44" y="-11.92"/>
			<point x="786.84" y="16.64"/>
			<point x="786.84" y="46.12" type="curve" smooth="yes"/>
			<point x="786.84" y="92.64"/>
			<point x="754" y="143.96"/>
			<point x="688.08" y="143.96" type="curve" smooth="yes"/>
			<point x="653.76" y="143.96"/>
			<point x="625.36" y="119.48"/>
			<point x="625.36" y="80.6" type="curve" smooth="yes"/>
			<point x="625.36" y="27.44"/>
			<point x="665.2" y="-11.92"/>
		</contour>
	</outline>
</glyph>
<glyph name="minute" format="2">
	<unicode hex="2032"/>
	<advance width="266"/>
	<outline>
		<contour>
			<point x="103.8" y="400.68" type="curve" smooth="yes"/>
			<point x="128.16" y="400.68"/>
			<point x="144.6" y="414.2"/>
			<point x="159.8" y="441.72" type="curve" smooth="yes"/>
			<point x="189.96" y="499.96"/>
			<point x="211.12" y="585.68"/>
			<point x="211.12" y="645.64" type="curve" smooth="yes"/>
			<point x="211.12" y="695.68"/>
			<point x="183.12" y="716.36"/>
			<point x="147.08" y="716.36" type="curve" smooth="yes"/>
			<point x="114.56" y="716.36"/>
			<point x="99.76" y="695.04"/>
			<point x="99.76" y="654.84" type="curve" smooth="yes"/>
			<point x="99.76" y="499.64"/>
			<point x="67.96" y="479.16"/>
			<point x="67.96" y="436.2" type="curve" smooth="yes"/>
			<point x="67.96" y="413.44"/>
			<point x="80.88" y="400.68"/>
		</contour>
	</outline>
</glyph>
<glyph name="second" format="2">
	<unicode hex="2033"/>
	<advance width="463"/>
	<outline>
		<contour>
			<point x="169.24" y="400.68" type="curve" smooth="yes"/>
			<point x="193.6" y="400.68"/>
			<point x="210.04" y="414.2"/>
			<point x="225.24" y="441.72" type="curve" smooth="yes"/>
			<point x="255.4" y="499.96"/>
			<point x="276.56" y="585.68"/>
			<point x="276.56" y="645.64" type="curve" smooth="yes"/>
			<point x="276.56" y="695.68"/>
			<point x="248.56" y="716.36"/>
			<point x="212.52" y="716.36" type="curve" smooth="yes"/>
			<point x="180" y="716.36"/>
			<point x="165.2" y="695.04"/>
			<point x="165.2" y="654.84" type="curve" smooth="yes"/>
			<point x="165.2" y="494.84"/>
			<point x="133.4" y="478.52"/>
			<point x="133.4" y="436.2" type="curve" smooth="yes"/>
			<point x="133.4" y="413.44"/>
			<point x="146.32" y="400.68"/>
		</contour>
		<contour>
			<point x="226.2" y="400.68" type="curve" smooth="yes"/>
			<point x="250.56" y="400.68"/>
			<point x="267" y="414.2"/>
			<point x="282.2" y="441.72" type="curve" smooth="yes"/>
			<point x="312.36" y="499.96"/>
			<point x="333.52" y="585.68"/>
			<point x="333.52" y="645.64" type="curve" smooth="yes"/>
			<point x="333.52" y="695.68"/>
			<point x="305.52" y="716.36"/>
			<point x="269.48" y="716.36" type="curve" smooth="yes"/>
			<point x="236.96" y="716.36"/>
			<point x="222.16" y="695.04"/>
			<point x="222.16" y="654.84" type="curve" smooth="yes"/>
			<point x="222.16" y="499.64"/>
			<point x="190.36" y="479.16"/>
			<point x="190.36" y="436.2" type="curve" smooth="yes"/>
			<point x="190.36" y="413.44"/>
			<point x="203.28" y="400.68"/>
		</contour>
	</outline>
</glyph>
